<?xml version="1.0" encoding="utf-8"?>
<!-- Generator: Adobe Illustrator 19.2.1, SVG Export Plug-In . SVG Version: 6.00 Build 0)  -->
<svg version="1.1" xmlns="http://www.w3.org/2000/svg" xmlns:xlink="http://www.w3.org/1999/xlink" x="0px" y="0px"
	 viewBox="0 0 1010 643.2" style="enable-background:new 0 0 1010 643.2;" xml:space="preserve">
<style type="text/css">
	.st0{fill:#3F3D56;}
	.st1{fill:#F2F2F2;}
	.st2{fill:#BD2E2E;}
	.st3{fill:#FFB9B9;}
	.st4{opacity:0.1;enable-background:new    ;}
	.st5{fill:#D0CDE1;}
	.st6{fill:#2F2E41;}
	.st7{fill:#FFFFFF;}
	.st8{fill:#F4CECE;}
	.st9{fill:#D39999;}
	.st10{fill:none;stroke:#F2F2F2;stroke-width:5;stroke-linecap:square;stroke-miterlimit:10;}
	.st11{fill:#5E4046;}
</style>
<g id="baba1a6e-b9a0-45cd-92f7-13efe2c0b468">
	<title>segment_analysis</title>
	<ellipse class="st0" cx="246" cy="611.2" rx="246" ry="32"/>
	<path class="st1" d="M896.6,288.5H685.7L574.9,467.9c33.3,20.6,71.7,31.5,110.8,31.5C802.2,499.4,896.6,405,896.6,288.5z"/>
	<circle class="st2" cx="387.7" cy="535.2" r="56"/>
	<path class="st3" d="M282.5,127.7c0,0,2,20-4,28s15,58,15,58l30-56c0,0-10-6-4-23L282.5,127.7z"/>
	<path class="st4" d="M282.5,127.7c0,0,2,20-4,28s15,58,15,58l30-56c0,0-10-6-4-23L282.5,127.7z"/>
	<path class="st3" d="M372.5,228.7l1,41l-38,61l-7-23l21-41c0,0-7-19-5-30S372.5,228.7,372.5,228.7z"/>
	<path class="st3" d="M216.5,222.7l-1,41l38,61l7-23l-21-41c0,0,7-19,5-30S216.5,222.7,216.5,222.7z"/>
	<circle class="st3" cx="304.7" cy="122.9" r="26.4"/>
	<path class="st5" d="M351.5,178.7h9c0,0,24,56,16,58s-37,8-37,5S351.5,178.7,351.5,178.7z"/>
	<path class="st6" d="M278.5,122.8c0,0-2.9-4.3-1.8-8.9c0.7-2.6,0.9-5.3,0.8-8c1.2-4,2.8-7.9,4.6-11.7c2.3-4.2,1.2-5.9,8.5-7.3
		s4.3-10.8,23.5-0.6c1.3,1.8,3.6,2.7,5.8,2.2c4-0.8,5.4,4.7,5.4,4.7s2.6-1.5,3.6,0.7s8.1-1.3,8.1,13.5s-8,28.1-8,28.1
		s0.6-25-12.5-27.5s-27.2-9.9-30.6-0.4C284,113,281.5,118.1,278.5,122.8z"/>
	<path class="st0" d="M678.6,479.8c-39.3,0-77.9-10.9-111.3-31.6l-0.8-0.5l0.5-0.8L678,267h212.4v1
		C890.4,384.8,795.4,479.8,678.6,479.8z M569.1,447c32.9,20.2,70.8,30.8,109.4,30.8c115.4,0,209.3-93.6,209.8-208.8H679.1L569.1,447
		z"/>
	<path class="st1" d="M424,258.2c0,73.1,37.8,141,100,179.4l110.8-179.4L451.7,153.6C433.5,185.4,423.9,221.5,424,258.2z"/>
	<path class="st0" d="M541.3,431.7l-0.9-0.5c-97.1-60-129.2-186.2-72.6-285.3l0.5-0.9l184.8,105.6L541.3,431.7z M469.1,147.8
		c-55.2,97.8-23.7,221.7,71.5,281.2l109.8-177.6L469.1,147.8z"/>
	<path class="st2" d="M739.7,20.1L694.2,226H905C905,125.2,834.3,40.9,739.7,20.1z"/>
	<path class="st0" d="M890.4,238.6H677.3l45.9-208.1l1,0.2c97,21.5,166.1,107.5,166.2,206.9V238.6z M679.8,236.6h208.6
		c-0.5-97-69.1-182.4-163.6-203.7L679.8,236.6z"/>
	<path class="st1" d="M649.1,0C573.4,0,503.6,40.5,466,106.2l183.1,104.6L694.6,4.9C679.6,1.6,664.4,0,649.1,0z"/>
	<path class="st0" d="M658.7,229.3L473.6,123.6l0.5-0.9C520.2,42.2,613.2,1,703.7,20.9l1,0.2L658.7,229.3z M476.3,122.8l181,103.4
		l44.9-203.6C613.2,3.5,522,44,476.3,122.8z"/>
	<polygon class="st0" points="767.8,168.6 766.3,167.3 876,50.8 965.3,50.8 965.3,52.8 876.9,52.8 	"/>
	<rect x="904.6" y="66.1" class="st2" width="105.4" height="3.6"/>
	<rect x="904.6" y="81.3" class="st2" width="105.4" height="3.6"/>
	<rect x="904.6" y="96.5" class="st2" width="105.4" height="3.6"/>
	<rect x="868.6" y="508.1" class="st2" width="105.4" height="3.6"/>
	<rect x="868.6" y="523.3" class="st2" width="105.4" height="3.6"/>
	<rect x="868.6" y="538.5" class="st2" width="105.4" height="3.6"/>
	<polygon class="st0" points="929,490.2 823.5,490.2 823.2,489.7 741.2,370.7 742.8,369.6 824.5,488.2 929,488.2 	"/>
	<path class="st6" d="M57.2,562.6c-3.3,29.2,14.6,55.2,14.6,55.2s23.3-21.3,26.7-50.5s-14.6-55.2-14.6-55.2S60.5,533.5,57.2,562.6z"
		/>
	<path class="st2" d="M69.9,561.1c12,26.8,2.8,57,2.8,57S44,604.9,32,578.1s-2.8-57-2.8-57S57.9,534.3,69.9,561.1z"/>
</g>
<g id="than_ao">
	<path class="st5" d="M297,192.8c0,0-9.4-16.4-14.3-29.6c-0.3-0.9-1.9-11.1-2.4-13.8l-9.3,9.2l-34,15.3l15,50c0,0-4,11-4,19
		s2,17,0,20s-3,8-1,12c1.2,2.5,1.5,5.3,1,8c0,0-14,8-6,10c5.3,1.2,10.7,1.2,16,0c0,0,1-3,9,1s50,5,50,5s27,1,26-3s5-51,5-51l14-66
		l-32-20l-10.3-9.1l-2.7,14.1L297,192.8z"/>
	<g>
		<path class="st6" d="M302,293.9c0,0,22.4,252.8-8,305c-25.6,3.3-104.1-12.2-104.1-12.2s46.7-299,58.3-297.2
			C258.5,291.2,302,293.9,302,293.9z"/>
		<path class="st4" d="M294.5,295.4c-9.3,1.3-3.6,272.7,5,303.2c24,0.1,93.6-13.1,93.6-13.1s-46.7-299-58.3-297.2
			C324.5,290,294.5,295.4,294.5,295.4z"/>
		<path class="st6" d="M294,295.4c0,0,10.1,293.4,9.2,304.2c24,0.1,89.3-13.9,89.3-13.9s-46.7-299-58.3-297.2
			C324,290,294,295.4,294,295.4z"/>
	</g>
	<path class="st4" d="M248.4,263.7l-5.8,36.1c0,0,48.6,16.8,100.2,10.1c-0.4-1.1-0.8-2.4-1.5-5.5c-7-10.6,4.1-36.3,4.1-36.3
		S302.6,282.9,248.4,263.7z"/>
	<path class="st0" d="M247,265.4l-3.6,33.8c0,0,45.9,15.5,97.5,5.6c1-8.7,4.4-34.7,4.4-34.7S301.3,284.6,247,265.4z"/>
</g>
<g id="co_ao">
	<path class="st7" d="M318.2,149.6l-8.7,18.1L294,187.3l3.5,9.8c0,0,16.8-7.8,16.5-9.5s7.3-21.8,7.3-21.8l2.3-12.3L318.2,149.6z"/>
	<polygon class="st7" points="278.3,152.4 281,149.3 287.2,166.1 300.5,185.9 293.7,195.5 278.3,173.4 	"/>
	<path class="st0" d="M319.6,149.6l15.6,12.4c0,0-4.8,9.8-10,18.1c-11.5,24.5-77.6,96.6-77.6,96.6l1.5-27.6c0,0,39.6-53.3,61.3-78.4
		C311.2,169.7,318.6,153.8,319.6,149.6z"/>
	<path class="st0" d="M280.3,149.3l-14.1,11.3c0,0,2.9,9.8,3.6,12s12.4,29.7,15.8,33.1c5.4-7.7,14-16.5,14-16.5l-14-21.5
		L280.3,149.3z"/>
</g>
<g id="ao_khoac">
	<path class="st8" d="M335.2,161.7c0,0-19.2,218.7-21.2,270.1c17.7,2.6,55.3-22.9,55.3-22.9l-7.4-52.7c0,0-10.6-134.3-11-142
		c-0.3,0,12.7-35.5,12.7-35.5L338,163.9L335.2,161.7z"/>
	<path class="st8" d="M351.4,171.6l-14.7,208.6c0,0,41.1-23.2,54.8-27.2c-1.9-20.3-15.3-167.1-15.3-167.1L351.4,171.6z"/>
	<path class="st8" d="M266,159.7c0,0,23.5,222.4,25.5,273.9c-17.7,2.6-78.1-7.6-78.1-7.6l13.8-69.1c0,0,16.9-136.7,17.2-144.4
		c0.3,0-7.4-39.4-7.4-39.4l26.2-11.1L266,159.7z"/>
	<path class="st9" d="M260.5,163.8l11.2-7.6c0,0,10.4,107.1,11.1,115.2s8.7,163.2,8.7,163.2l-16.5-0.8L260.5,163.8z"/>
	<polygon class="st9" points="330,157.9 342.9,166.7 328.5,430.7 309.6,434.5 	"/>
	<polygon class="st2" points="310.8,284.2 307.8,282.3 358.8,200.9 372.8,210.6 	"/>
	<path class="st10" d="M360.2,212.6"/>
	<path class="st10" d="M313.5,276.7"/>
	<polygon class="st11" points="315.6,273.4 317,274.4 363.4,210.6 361.2,209.1 	"/>
	<path class="st8" d="M250.7,167.7l-0.9,116.2l73.7-28c0,0-1.8,29.8-15.1,86.8c-18.5,20.6-99.3-21-104.9-22.6
		c1.9-20.3,20.8-142,20.8-142L250.7,167.7z"/>
</g>
</svg>
