<?xml version="1.0" encoding="utf-8"?>
<!-- Generator: Adobe Illustrator 19.2.1, SVG Export Plug-In . SVG Version: 6.00 Build 0)  -->
<svg version="1.1" id="bfbb5b39-9b4a-43f6-b630-7b09a59f4f63"
	 xmlns="http://www.w3.org/2000/svg" xmlns:xlink="http://www.w3.org/1999/xlink" x="0px" y="0px" viewBox="0 0 1190 972.9"
	 style="enable-background:new 0 0 1190 972.9;" xml:space="preserve">
<style type="text/css">
	.st0{opacity:0.15;enable-background:new    ;}
	.st1{fill:#3F3D56;}
	.st2{fill:#F2F2F2;}
	.st3{fill:#2F2E41;}
	.st4{fill:none;stroke:#3F3D56;stroke-width:2;stroke-miterlimit:10;}
	.st5{opacity:0.1;enable-background:new    ;}
	.st6{fill:#BD2E2E;}
	.st7{fill:#FFFFFF;}
	.st8{fill:#FF6584;}
	.st9{fill:none;stroke:#BD2E2E;stroke-width:2;stroke-miterlimit:10;}
	.st10{fill:#FFB9B9;}
	.st11{fill:none;stroke:#FFB9B9;stroke-miterlimit:10;}
	.st12{opacity:0.1;fill:#BD2E2E;enable-background:new    ;}
	.st13{opacity:0.1;}
	.st14{fill:none;stroke:#535461;stroke-width:2;stroke-miterlimit:10;}
	.st15{opacity:0.25;enable-background:new    ;}
	.st16{fill:none;stroke:#565987;stroke-miterlimit:10;}
	.st17{fill:none;stroke:#BD2E2E;stroke-width:4;stroke-miterlimit:10;}
	.st18{fill:#FFD037;}
	.st19{fill:#A8A8A8;}
	.st20{opacity:0.2;enable-background:new    ;}
</style>
<path class="st0" d="M1184,930c0,9.4-53.9,17.9-142.9,24.5c-16.2,1.2-33.6,2.3-52,3.4c-15.9,0.9-32.6,1.8-50,2.6
	c-16.9,0.8-34.4,1.5-52.6,2.1c-57.4,2.1-120.9,3.6-188.4,4.3c-16.4,0.2-33,0.3-49.8,0.4c-17.5,0.1-35.2,0.1-53.1,0.1
	C270.1,967.5,6.5,950.7,6.5,930s263.6-37.5,588.8-37.5c140,0,268.5,3.1,369.6,8.3c3.7,0.2,7.4,0.4,11,0.6c0,0,0,0,0.1,0
	C1103.2,908.3,1184,918.5,1184,930z"/>
<path class="st1" d="M1138.8,923.4c0,7.8-50.2,15-133.3,20.5c-15.1,1-31.3,1.9-48.4,2.8c-14.8,0.8-30.4,1.5-46.6,2.2
	c-15.8,0.6-32.1,1.2-49,1.8c-53.5,1.8-112.7,3-175.6,3.6c-15.3,0.1-30.7,0.3-46.4,0.3c-16.3,0.1-32.8,0.1-49.5,0.1
	c-303.1,0-548.9-14-548.9-31.4s245.7-31.4,548.9-31.4c67,0,131.3,0.7,190.6,2h0.2c56.2,1.2,108,2.9,153.8,5
	c3.5,0.2,6.9,0.3,10.3,0.5c0,0,0,0,0.1,0c21,1,40.6,2.1,58.7,3.3c0.2,0,0.4,0,0.6,0C1088,908.3,1138.8,915.5,1138.8,923.4z"/>
<path class="st2" d="M346.6,369c25,0,48.9-10.1,66.2-28.2l-65.3-69l-69.8,66.1C295.1,357.7,320.3,369.1,346.6,369z"/>
<path class="st6" d="M860.8,469.9c0.1,91-73.6,164.9-164.7,165c-0.1,0-0.2,0-0.3,0c-0.9,0-1.9,0-2.8,0c-4-0.1-7.9-0.3-11.8-0.6
	c-90.8-8-157.8-88.2-149.8-178.9c8-90.8,88.2-157.8,178.9-149.8C795.5,313.1,860.8,384.5,860.8,469.9L860.8,469.9z"/>
<path class="st5" d="M791.4,410.2c10.3-18.2,17.1-38.3,19.9-59.1c-65.6-63.2-170.1-61.3-233.3,4.3c-24.3,25.2-40,57.6-44.7,92.3
	c27.1,26.2,62.4,42.3,99.9,45.6c3.9,0.3,7.8,0.5,11.8,0.6c0.9,0,1.9,0,2.8,0C707.3,494,762.2,462,791.4,410.2z"/>
<rect x="503.8" y="630.9" class="st3" width="265" height="296"/>
<path class="st5" d="M853.7,531.5c-20.8,48.8-63.8,84.7-115.6,96.4h36.7v296H530.4l137.2-237.6l31.4-54.4l2.3-4l104-180.2
	L853.7,531.5z"/>
<polygon class="st1" points="839.3,449.8 977.1,688.4 1114.8,926.9 839.3,926.9 563.8,926.9 701.6,688.4 "/>
<circle class="st8" cx="745" cy="198.9" r="54.3"/>
<path class="st2" d="M744.8,236c0,41-24.4,55.3-54.4,55.3S636,276.9,636,236s54.4-93.1,54.4-93.1S744.8,195,744.8,236z"/>
<polygon class="st1" points="688.4,285 689,250.7 712.2,208.2 689.1,245.3 689.3,229.9 705.3,199.2 689.4,225.8 689.4,225.8 
	689.8,198.1 707,173.6 689.9,193.7 690.2,142.8 688.4,210.2 688.6,207.4 671.2,180.8 688.3,212.7 686.7,243.7 686.6,242.9 
	666.6,214.8 686.6,245.8 686.4,249.7 686.3,249.7 686.3,250 682.2,328.6 687.7,328.6 688.4,288 708.3,257.2 "/>
<path class="st2" d="M875.9,297.2c-13,38.9-40.6,44.7-69.1,35.2c-28.5-9.5-47.1-30.8-34.1-69.7s81.1-71,81.1-71
	S888.9,258.3,875.9,297.2z"/>
<polygon class="st1" points="806.9,325.8 818.3,293.5 853.8,260.6 820.1,288.4 825.2,273.8 850.1,249.8 826.6,270 826.6,270 
	835.8,243.8 859.8,226.1 837.3,239.7 853.7,191.6 830.6,254.9 831.7,252.3 823.6,221.5 829.7,257.2 818.3,286.1 818.5,285.3 
	808.4,252.4 817.6,288 816.1,291.6 816.1,291.7 816,292 787.2,365.2 792.4,367 805.9,328.7 834.6,305.7 "/>
<path class="st2" d="M605.8,265.9c14.7,38.2-2.8,60.4-30.9,71.2s-55.9,6.2-70.7-32s17.3-106.5,17.3-106.5S591.1,227.7,605.8,265.9z"
	/>
<polygon class="st1" points="570.9,332 559,299.8 565.4,251.8 557.2,294.7 551.9,280.2 555.7,245.8 550.5,276.4 550.5,276.4 
	540.9,250.4 548.1,221.4 539.4,246.3 521.4,198.7 543.9,262.2 543.1,259.5 517.3,240.9 544.7,264.6 554.4,294.1 554,293.3 
	525.2,274.4 555,296.1 556.2,299.7 556.2,299.8 556.3,300.1 580.8,374.9 585.9,372.9 571.9,334.8 579.4,298.9 "/>
<path class="st6" d="M490.3,590.8c-3.4,5.4-7.7,5.3-11.7,2.8s-6-6.4-2.6-11.7c3.4-5.4,14.8-7.7,14.8-7.7S493.6,585.5,490.3,590.8z"
	/>
<path class="st6" d="M892.4,429.7c0.6,6.3-2.9,8.9-7.5,9.4s-8.6-1.4-9.2-7.7s7-15.2,7-15.2S891.8,423.3,892.4,429.7z"/>
<path class="st6" d="M472.3,476.3c-3.4,5.4-7.7,5.3-11.7,2.8s-6-6.4-2.6-11.7s14.8-7.7,14.8-7.7S475.7,470.9,472.3,476.3z"/>
<g>
	<circle class="st3" cx="261" cy="776.2" r="118.1"/>
	<rect x="207.2" y="868.8" class="st3" width="35.9" height="64.3"/>
	<rect x="278.9" y="868.8" class="st3" width="35.9" height="64.3"/>
	<ellipse class="st3" cx="237.1" cy="933.8" rx="29.9" ry="11.2"/>
	<ellipse class="st3" cx="308.8" cy="932.3" rx="29.9" ry="11.2"/>
	<circle class="st7" cx="264" cy="746.3" r="40.4"/>
	<circle class="st1" cx="264" cy="728.3" r="13.5"/>
	<path class="st6" d="M146.5,666.4c-9.5-42.7,20.9-85.8,68.1-96.4c47.1-10.5,93.1,15.6,102.6,58.3s-21.7,58.4-68.8,69
		S156,709,146.5,666.4z"/>
	
		<ellipse transform="matrix(0.4214 -0.9069 0.9069 0.4214 -382.697 691.1886)" class="st3" cx="350.3" cy="645.5" rx="59" ry="18.5"/>
	
		<ellipse transform="matrix(0.8838 -0.4678 0.4678 0.8838 -303.2414 141.6731)" class="st3" cx="133.6" cy="681.4" rx="18.5" ry="59"/>
	<circle class="st3" cx="295.2" cy="426.7" r="118.1"/>
	
		<rect x="205.6" y="525.2" transform="matrix(0.1781 -0.984 0.984 0.1781 -339.0831 680.2687)" class="st3" width="64.3" height="35.9"/>
	
		<rect x="276.2" y="538" transform="matrix(0.1781 -0.984 0.984 0.1781 -293.6425 760.231)" class="st3" width="64.3" height="35.9"/>
	
		<ellipse transform="matrix(0.6463 -0.7631 0.7631 0.6463 -345.2053 446.2177)" class="st3" cx="308.7" cy="595.5" rx="11.2" ry="29.9"/>
	
		<ellipse transform="matrix(0.6463 -0.7631 0.7631 0.6463 -360.1062 389.0469)" class="st3" cx="239.6" cy="583" rx="11.2" ry="29.9"/>
	<circle class="st7" cx="303.5" cy="397.8" r="40.4"/>
	<circle class="st1" cx="320.1" cy="383.4" r="13.5"/>
	<path class="st6" d="M202.1,298.3c-1.8-43.7,35.9-80.7,84.1-82.7s88.8,31.9,90.6,75.6s-31.8,53.6-80,55.6
		C248.5,348.7,203.9,342,202.1,298.3z"/>
	
		<ellipse transform="matrix(0.9747 -0.2234 0.2234 0.9747 -80.3139 100.5583)" class="st3" cx="404.2" cy="405.2" rx="59" ry="18.5"/>
	
		<ellipse transform="matrix(0.9747 -0.2234 0.2234 0.9747 -94.7833 49.7525)" class="st3" cx="172.5" cy="443.7" rx="59" ry="18.5"/>
	<path class="st7" d="M262.8,473.2c-2.6,14.6,7.1,28.6,21.7,31.3c14.6,2.6,28.6-7.1,31.3-21.7c2.6-14.6-8.7-19.8-23.3-22.4
		C277.8,457.7,265.4,458.6,262.8,473.2z"/>
	
		<rect x="456.8" y="306.9" transform="matrix(0.2872 -0.9579 0.9579 0.2872 13.836 742.9363)" class="st1" width="98.6" height="110.6"/>
	<path class="st6" d="M478.2,404.9l-1.4-0.4c0.5-1.5,12.3-37.8,29.7-43.5l0.5,1.4C490.3,367.8,478.4,404.5,478.2,404.9z"/>
	<circle class="st6" cx="516.2" cy="355.7" r="7.3"/>
	<path class="st6" d="M507.3,379.9c-4,0.1-7.9-0.9-11.4-2.9c6.7-4.7,15.5-5,22.5-0.9C515.2,378.4,511.3,379.7,507.3,379.9z"/>
</g>
</svg>
