<?xml version="1.0" encoding="utf-8"?>
<!-- Generator: Adobe Illustrator 19.2.1, SVG Export Plug-In . SVG Version: 6.00 Build 0)  -->
<svg version="1.1" id="bfbb5b39-9b4a-43f6-b630-7b09a59f4f63"
	 xmlns="http://www.w3.org/2000/svg" xmlns:xlink="http://www.w3.org/1999/xlink" x="0px" y="0px" viewBox="0 0 1188.5 961.6"
	 style="enable-background:new 0 0 1188.5 961.6;" xml:space="preserve">
<style type="text/css">
	.st0{opacity:0.15;enable-background:new    ;}
	.st1{fill:#3F3D56;}
	.st2{fill:#F2F2F2;}
	.st3{fill:#2F2E41;}
	.st4{fill:none;stroke:#3F3D56;stroke-width:2;stroke-miterlimit:10;}
	.st5{opacity:0.1;enable-background:new    ;}
	.st6{fill:#BD2E2E;}
	.st7{fill:#FFFFFF;}
	.st8{fill:#FF6584;}
	.st9{fill:none;stroke:#BD2E2E;stroke-width:2;stroke-miterlimit:10;}
	.st10{fill:#FFB9B9;}
	.st11{fill:none;stroke:#FFB9B9;stroke-miterlimit:10;}
	.st12{opacity:0.1;fill:#BD2E2E;enable-background:new    ;}
	.st13{opacity:0.1;}
	.st14{fill:none;stroke:#535461;stroke-width:2;stroke-miterlimit:10;}
	.st15{opacity:0.25;enable-background:new    ;}
	.st16{fill:none;stroke:#565987;stroke-miterlimit:10;}
	.st17{fill:none;stroke:#BD2E2E;stroke-width:4;stroke-miterlimit:10;}
	.st18{fill:#FFD037;}
	.st19{fill:#A8A8A8;}
	.st20{opacity:0.2;enable-background:new    ;}
</style>
<line class="st4" x1="1003.3" y1="882.2" x2="1003.3" y2="408.3"/>
<g>
	<path class="st2" d="M184,462.1v36c31.5,0,57,25.5,57,57s-25.5,57-57,57v36h186v-186H184z"/>
	<circle class="st2" cx="184" cy="555.1" r="45"/>
	<polygon class="st2" points="866,600.2 793,555.2 793,903.1 866,903.1 	"/>
	<polygon class="st2" points="681,903.1 754,903.1 754,531.1 681,486.1 	"/>
	<polygon class="st2" points="642,462.1 277,237.1 277,440.1 394,440.1 394,674.1 277,674.1 277,903.1 642,903.1 	"/>
	<polygon class="st2" points="905,624.2 905,903.1 943,903.1 1046,711.1 	"/>
</g>
<path class="st5" d="M970.5,890.4c-1.5,0.9-2.8,1.6-3.8,2.2c-2.3,1.3-3.6,1.9-3.6,1.9s-0.6-1.8-1.5-5.2
	c-5.1-18.4-19.8-82.7,4.8-141.8c1.3-3.1,2.7-6.1,4.1-9.1c1.2,2.8,2.3,5.7,3.4,8.7C995.8,809.1,976,874.5,970.5,890.4z"/>
<rect x="888.4" y="770.3" transform="matrix(0.3868 -0.9222 0.9222 0.3868 -84.0983 1416.0492)" class="st1" width="268.7" height="2"/>
<path class="st1" d="M1177.5,917.6c0,9.4-53.9,17.9-142.9,24.5c-16.2,1.2-33.6,2.3-52,3.4c-15.9,0.9-32.6,1.8-50,2.6
	c-16.9,0.8-34.4,1.5-52.6,2.1c-57.4,2.1-120.9,3.6-188.4,4.3c-16.4,0.2-33,0.3-49.8,0.4c-17.5,0.1-35.2,0.1-53.1,0.1
	C263.6,955.1,0,938.3,0,917.6s263.6-37.5,588.8-37.5c140,0,268.5,3.1,369.6,8.3c3.7,0.2,7.4,0.4,11,0.6c0,0,0,0,0.1,0
	C1096.7,895.9,1177.5,906.1,1177.5,917.6z"/>
<path class="st5" d="M997,890.4c-7.4,48.3-54.3,32.1-111,32.1c-59.9,0-108.8,18.1-111.8-40.9c56.2,1.2,108,2.9,153.8,5
	c3.5,0.2,6.9,0.3,10.3,0.5c0,0,0,0,0.1,0C959.3,888.1,978.9,889.2,997,890.4z"/>
<g>
	<path class="st1" d="M1046.8,770c-60.6,45.3-77.7,124.8-77.7,124.8s81.1,6.1,141.7-39.1s77.7-124.8,77.7-124.8
		S1107.4,724.7,1046.8,770z"/>
	<path class="st6" d="M969.2,894.1c0,0-0.9-0.5-2.5-1.5c-1.3-0.8-3-1.9-5.2-3.3c-19-12.5-68.4-49.4-88.6-106.4
		c-25.3-71.3,4.6-147,4.6-147s65.2,36.6,92.9,102.5c1.2,2.8,2.3,5.7,3.4,8.7c22,62,2.3,127.4-3.2,143.3
		C969.7,892.8,969.2,894.1,969.2,894.1z"/>
	<path class="st1" d="M969.5,896.3l-0.9-0.7c-0.7-0.5-66.4-48.8-83.3-122c-16.9-73.2,21-145.4,21.4-146.2l0.5-1l0.9,0.7
		c0.7,0.5,66.4,48.8,83.3,122l0,0c16.9,73.2-21,145.4-21.4,146.2L969.5,896.3z M907.9,629.5c-4.6,9.1-36.3,76-20.7,143.7
		s73.5,113.9,81.6,120.1c4.6-9.1,36.3-76,20.7-143.7l0,0C973.9,681.9,916,635.6,907.9,629.5z"/>
	<path class="st6" d="M1072.1,791.2c-29.1,69.8-102,105.9-102,105.9s-25.8-77.2,3.2-147s102-105.9,102-105.9
		S1101.2,721.3,1072.1,791.2z"/>
	<path class="st0" d="M1177.5,917.6c0,9.4-53.9,17.9-142.9,24.5c-16.2,1.2-33.6,2.3-52,3.4c-15.9,0.9-32.6,1.8-50,2.6
		c-16.9,0.8-34.4,1.5-52.6,2.1c-57.4,2.1-120.9,3.6-188.4,4.3c-16.4,0.2-33,0.3-49.8,0.4c-17.5,0.1-35.2,0.1-53.1,0.1
		C263.6,955.1,0,938.3,0,917.6s263.6-37.5,588.8-37.5c140,0,268.5,3.1,369.6,8.3c3.7,0.2,7.4,0.4,11,0.6c0,0,0,0,0.1,0
		C1096.7,895.9,1177.5,906.1,1177.5,917.6z"/>
	<path class="st1" d="M1132.3,911c0,7.8-50.2,15-133.3,20.5c-15.1,1-31.3,1.9-48.4,2.8c-14.8,0.8-30.4,1.5-46.6,2.2
		c-15.8,0.6-32.1,1.2-49,1.8c-53.5,1.8-112.7,3-175.6,3.6c-15.3,0.1-30.7,0.3-46.4,0.3c-16.3,0.1-32.8,0.1-49.5,0.1
		c-303.1,0-548.9-14-548.9-31.4s245.7-31.4,548.9-31.4c67,0,131.3,0.7,190.6,2h0.2c56.2,1.2,108,2.9,153.8,5
		c3.5,0.2,6.9,0.3,10.3,0.5c0,0,0,0,0.1,0c21,1,40.6,2.1,58.7,3.3c0.2,0,0.4,0,0.6,0C1081.5,895.9,1132.3,903.1,1132.3,911z"/>
	<path class="st6" d="M317.3,875.7c0,17.4-10.4,23.5-23.1,23.5c-0.3,0-0.6,0-0.9,0c-0.6,0-1.2,0-1.8-0.1
		c-11.5-0.8-20.5-7.2-20.5-23.4c0-16.8,21.4-37.9,23-39.5l0,0c0.1-0.1,0.1-0.1,0.1-0.1S317.3,858.3,317.3,875.7z"/>
	<path class="st1" d="M293.3,896.5l8.5-11.8l-8.5,13.1v1.4c-0.6,0-1.2,0-1.8-0.1l0.9-17.4v-0.1l0,0l0.1-1.6l-8.5-13.1l8.5,11.9v0.3
		l0.7-13.2l-7.3-13.6l7.4,11.3l0.7-27.3v-0.1v0.1l-0.1,21.5l7.2-8.5l-7.3,10.4l-0.2,11.8l6.8-11.3l-6.8,13l-0.1,6.6l9.8-15.7
		l-9.9,18L293.3,896.5z"/>
	<path class="st1" d="M774,863.5c0-66.3,50.1-120,112-120s112,53.7,112,120s-50.1,47-112,47S774,929.8,774,863.5z"/>
	<rect x="151.4" y="784.4" class="st1" width="2" height="135.2"/>
	<circle class="st1" cx="152.4" cy="784.4" r="19.1"/>
	<path class="st1" d="M152.4,867.7c0,0-2.7-58.7-58.7-51.9"/>
	<path class="st6" d="M117.3,901.7c0,17.4-10.4,23.5-23.1,23.5c-0.3,0-0.6,0-0.9,0c-0.6,0-1.2,0-1.8-0.1C80,924.3,71,917.9,71,901.7
		c0-16.8,21.4-37.9,23-39.5l0,0c0.1-0.1,0.1-0.1,0.1-0.1S117.3,884.3,117.3,901.7z"/>
	<path class="st1" d="M93.3,922.5l8.5-11.8l-8.5,13.1v1.4c-0.6,0-1.2,0-1.8-0.1l0.9-17.4v-0.1l0,0l0.1-1.6L84,892.7l8.5,11.9v0.3
		l0.7-13.2L86,878.2l7.4,11.3l0.7-27.3v-0.1v0.1L94,883.7l7.2-8.5l-7.3,10.4l-0.2,11.8l6.8-11.3l-6.8,13l-0.1,6.6l9.8-15.7l-9.9,18
		L93.3,922.5z"/>
	<circle class="st6" cx="129" cy="753.1" r="10"/>
	<path class="st6" d="M714.3,917.7c0,17.4-10.4,23.5-23.1,23.5c-0.3,0-0.6,0-0.9,0c-0.6,0-1.2,0-1.8-0.1
		c-11.5-0.8-20.5-7.2-20.5-23.4c0-16.8,21.4-37.9,23-39.5l0,0c0.1-0.1,0.1-0.1,0.1-0.1S714.3,900.3,714.3,917.7z"/>
	<path class="st1" d="M690.3,938.5l8.5-11.8l-8.5,13.1v1.4c-0.6,0-1.2,0-1.8-0.1l0.9-17.4v-0.1l0,0l0.1-1.6l-8.5-13.1l8.5,11.9v0.3
		l0.7-13.2l-7.3-13.6l7.4,11.3l0.7-27.3v-0.1v0.1l-0.1,21.5l7.2-8.5l-7.3,10.4l-0.2,11.8l6.8-11.3l-6.8,13l-0.1,6.6l9.8-15.7
		l-9.9,18L690.3,938.5z"/>
</g>
<g>
	<circle class="st3" cx="462.8" cy="750.7" r="118.1"/>
	<rect x="409" y="843.4" class="st3" width="35.9" height="64.3"/>
	<rect x="480.7" y="843.4" class="st3" width="35.9" height="64.3"/>
	<ellipse class="st3" cx="438.9" cy="908.4" rx="29.9" ry="11.2"/>
	<ellipse class="st3" cx="510.6" cy="906.9" rx="29.9" ry="11.2"/>
	<circle class="st7" cx="465.8" cy="720.8" r="40.4"/>
	<circle class="st1" cx="465.8" cy="720.8" r="13.5"/>
	<path class="st6" d="M348.2,640.9c-9.6-42.7,20.9-85.8,68-96.4c47.1-10.6,93.1,15.5,102.5,58.3c9.6,42.7-21.7,58.4-68.9,68.9
		S357.7,683.6,348.2,640.9z"/>
	
		<ellipse transform="matrix(0.9193 -0.3935 0.3935 0.9193 -233.7067 280.0894)" class="st3" cx="566.2" cy="710" rx="59" ry="18.5"/>
	
		<ellipse transform="matrix(0.9193 -0.3935 0.3935 0.9193 -282.7213 199.4445)" class="st3" cx="345" cy="789.2" rx="59" ry="18.5"/>
	<path class="st7" d="M531.6,785.1c0,11.5-29.7,34.4-62.8,34.4s-64.3-21.4-64.3-32.9c0-11.5,31.2-9,64.3-9
		C501.8,777.6,531.6,773.4,531.6,785.1z"/>
</g>
<circle class="st1" cx="1003.3" cy="408.3" r="26"/>
<path class="st1" d="M1003.3,521.6c0,0-3.7-79.9-79.9-70.6"/>
</svg>
