<?xml version="1.0" encoding="utf-8"?>
<!-- Generator: Adobe Illustrator 19.2.1, SVG Export Plug-In . SVG Version: 6.00 Build 0)  -->
<svg version="1.1" id="bfbb5b39-9b4a-43f6-b630-7b09a59f4f63"
	 xmlns="http://www.w3.org/2000/svg" xmlns:xlink="http://www.w3.org/1999/xlink" x="0px" y="0px" viewBox="0 0 1110.7 962.9"
	 style="enable-background:new 0 0 1110.7 962.9;" xml:space="preserve">
<style type="text/css">
	.st0{opacity:0.15;enable-background:new    ;}
	.st1{fill:#3F3D56;}
	.st2{fill:#F2F2F2;}
	.st3{fill:#2F2E41;}
	.st4{fill:none;stroke:#3F3D56;stroke-width:2;stroke-miterlimit:10;}
	.st5{opacity:0.1;enable-background:new    ;}
	.st6{fill:#BD2E2E;}
	.st7{fill:#FFFFFF;}
	.st8{fill:#FF6584;}
	.st9{fill:none;stroke:#BD2E2E;stroke-width:2;stroke-miterlimit:10;}
	.st10{fill:#FFB9B9;}
	.st11{fill:none;stroke:#FFB9B9;stroke-miterlimit:10;}
	.st12{opacity:0.1;fill:#BD2E2E;enable-background:new    ;}
	.st13{opacity:0.1;}
	.st14{fill:none;stroke:#535461;stroke-width:2;stroke-miterlimit:10;}
	.st15{opacity:0.25;enable-background:new    ;}
	.st16{fill:none;stroke:#565987;stroke-miterlimit:10;}
	.st17{fill:none;stroke:#BD2E2E;stroke-width:4;stroke-miterlimit:10;}
	.st18{fill:#FFD037;}
	.st19{fill:#A8A8A8;}
	.st20{opacity:0.2;enable-background:new    ;}
</style>
<path class="st12" d="M557.7,874.5c303.8-2.2,549.6,15.8,549,40.3c-0.6,24.4-247.3,46-551.1,48.2C251.8,965.1,6,947.1,6.6,922.7
	S253.9,876.7,557.7,874.5z"/>
<g>
	<path class="st12" d="M12,655c17.6,72.2,54.8,134.6,113.6,164.9c122.2,62.9,397.8,30.5,603.4-6.8
		c106.4-19.2,199.9-72.3,267.8-147.1L12,655z"/>
	<path class="st12" d="M1090.5,315.1H977.7c-5.2,0.2-9.5-3.9-9.7-9.1c-0.2-5.2,3.9-9.5,9.1-9.7c0.2,0,0.4,0,0.6,0h19.5
		c-5.2,0.2-9.5-3.9-9.7-9.1c-0.2-5.2,3.9-9.5,9.1-9.7c0.2,0,0.4,0,0.6,0h-13.9c-5.2,0.2-9.5-3.9-9.7-9.1c-0.2-5.2,3.9-9.5,9.1-9.7
		c0.2,0,0.4,0,0.6,0h58.9c-13.1-5.8-28.3-10-46-12.2c-160.5-19.8-217.9-6.7-238.1,6.8c-25,16.6-52.8,28.9-82.5,34.8
		c-99.1,19.6-284.4,43.3-452.4-7.6c-83.5-25.3-145.5,17.4-182.7,88.8h1069.7c-1.4-20.8-5.6-39.9-13.3-56.7
		C1095.1,314.3,1092.8,315.1,1090.5,315.1z"/>
	<path class="st12" d="M688.3,542.9l-1.5-0.1l-15.4-0.9l-147.2-8.3l-15.9-0.9l-234.3-13.2l-65.7-3.7l-10.4-0.6l-9.2-0.5L2.4,504.3
		c-4.3,42-2.9,84.4,4.4,126l156.8,5.5l12.4,0.5l2.2,0.1l74.4,2.6l4,0.1l8.6,0.3l75,2.6l10.3,0.4l35.8,1.3h0.7l5.3,0.2l18,0.6l0,0
		L426,645l30,1h0.6l2.7,0.1l2.8,0.1h0.6l47.8,1.7l13.4,0.5h0.6l6.5,0.2l0,0l1.2,0h0.5l5.7,0.2l17.3,0.6l0,0l6.5,0.2l8.3,0.3h0.3
		l11.5,0.4l33.1,1.2l9.1,0.3h1l44.2,1.5l25.7,0.9l31.9,1.1l5.1,0.2l8.3,0.3l30.1,1l226.8,8c27.5-30.3,50.6-64.3,68.8-100.9
		L688.3,542.9z M262,612.9c-2.4,0-4.7-0.8-6.5-2.4l0,0c-0.8-0.7-1.5-1.5-2.1-2.5c-0.8-1.4-1.2-2.9-1.2-4.5c0-1.8,0.6-3.6,1.6-5.1
		l0,0c0.3-0.5,0.7-0.9,1.1-1.3c1.9-1.9,4.4-2.9,7.1-2.9h19.5c-5.2,0.2-9.6-3.8-9.8-8.9c-0.2-5.2,3.8-9.6,8.9-9.8c0.3,0,0.6,0,0.9,0
		h-13.9c-0.3,0-0.6,0-0.9,0c-5.2-0.3-9.1-4.6-8.9-9.8c0.3-5.2,4.6-9.1,9.8-8.9h112.8c5.2-0.2,9.6,3.8,9.8,8.9
		c0.2,5.2-3.8,9.6-8.9,9.8c-0.3,0-0.6,0-0.9,0h13.9c5.2-0.2,9.6,3.8,9.8,8.9c0.2,5.2-3.8,9.6-8.9,9.8c-0.3,0-0.6,0-0.9,0h-19.5
		c5.2-0.2,9.6,3.8,9.8,8.9c0.2,5.2-3.8,9.6-8.9,9.8c-0.3,0-0.6,0-0.9,0L262,612.9z"/>
	<path class="st12" d="M1110.2,370.2l-778.4,18.2l-85.5,2l-217.8,5.1C15.3,428,6.6,464.8,2.6,502.9h1088.6
		c7.1-22.4,12.3-45.2,15.7-68.4C1110.2,412,1111.5,390.4,1110.2,370.2z M222.2,453.1h-19.5c5.3-0.1,9.6,4.1,9.8,9.4
		c0,0.2,0,0.4,0,0.6c-0.2,3-1.8,5.6-4.3,7.2c-1.6,1-3.5,1.6-5.4,1.6H89.8c-5.2,0.2-9.5-3.9-9.7-9.1c-0.2-5.2,3.9-9.5,9.1-9.7
		c0.2,0,0.4,0,0.6,0h19.5c-5.2,0.2-9.5-3.9-9.7-9.1c-0.2-5.2,3.9-9.5,9.1-9.7c0.2,0,0.4,0,0.6,0H95.4c-5.2,0.2-9.5-3.9-9.7-9.1
		c-0.2-5.2,3.9-9.5,9.1-9.7c0.2,0,0.4,0,0.6,0h112.8c5.2-0.2,9.5,3.9,9.7,9.1c0.2,5.2-3.9,9.5-9.1,9.7c-0.2,0-0.4,0-0.6,0h13.9
		c1.6,0,3.2,0.4,4.6,1.1c3.1,1.6,5.1,4.7,5.1,8.2C231.8,449,227.5,453.1,222.2,453.1L222.2,453.1z"/>
</g>
<g>
	<g class="st13">
		<path class="st14" d="M732.6,651c0,0,28.5-67.6,81.9-92.7c22.4-10.5,40.9-27.4,52.2-48.7c5.3-10.1,9.7-20.7,13.1-31.6"/>
		<path class="st6" d="M913.3,461.9c-5.5,6.7-34.3,16.5-34.3,16.5s3.5-29.1,9-35.9c5.7-6.7,15.7-7.8,22.7-2.5
			c6.7,5,8.1,14.5,3.1,21.2C913.6,461.5,913.5,461.7,913.3,461.9z"/>
		<path class="st6" d="M903.4,515.1c-8.5,2.7-38.2-4.1-38.2-4.1s19.4-22.6,27.8-25.4s17.6,1.6,20.5,9.8c2.7,8.1-1.6,16.8-9.7,19.5
			C903.7,515,903.6,515.1,903.4,515.1z"/>
		<path class="st6" d="M849.9,578c-8.7-1.7-30.8-22-30.8-22s28.7-10.2,37.4-8.4c8.5,1.5,14.1,9.6,12.6,18c0,0.1,0,0.2-0.1,0.3
			C867.2,574.3,858.6,579.7,849.9,578z"/>
		<path class="st6" d="M798.3,616.8c-8.9-0.3-34.2-16.7-34.2-16.7s26.4-14.7,35.4-14.4s15.9,7.5,15.6,16.1S807.2,617.1,798.3,616.8z
			"/>
		<path class="st6" d="M837.6,492c1.1,8.5,20.5,31.2,20.5,31.2s12.7-26.7,11.6-35.2s-9.2-14.5-18.1-13.4S836.5,483.5,837.6,492z"/>
		<path class="st6" d="M777.8,538.2c3.7,7.8,29.3,23.9,29.3,23.9s3.8-29.1,0.1-36.9c-4-7.8-13.4-11.2-21.4-7.6
			c-7.8,3.3-11.4,12.3-8.2,20C777.7,537.8,777.8,538,777.8,538.2z"/>
		<path class="st6" d="M726.1,590.7c2.3,8.3,24.6,28.3,24.6,28.3s8.9-28.1,6.6-36.3s-11.2-13.2-19.8-11c-8.3,2-13.5,10.3-11.5,18.6
			C726,590.4,726.1,590.5,726.1,590.7z"/>
		<path class="st15" d="M913.3,461.9c-5.5,6.7-34.3,16.5-34.3,16.5s3.5-29.1,9-35.9c5.7-6.7,15.7-7.8,22.7-2.5
			c6.7,5,8.1,14.5,3.1,21.2C913.6,461.5,913.5,461.7,913.3,461.9z"/>
		<path class="st15" d="M903.4,515.1c-8.5,2.7-38.2-4.1-38.2-4.1s19.4-22.6,27.8-25.4s17.6,1.6,20.5,9.8c2.7,8.1-1.6,16.8-9.7,19.5
			C903.7,515,903.6,515.1,903.4,515.1z"/>
		<path class="st15" d="M849.9,578c-8.7-1.7-30.8-22-30.8-22s28.7-10.2,37.4-8.4c8.5,1.5,14.1,9.6,12.6,18c0,0.1,0,0.2-0.1,0.3
			C867.2,574.3,858.6,579.7,849.9,578z"/>
		<path class="st15" d="M798.3,616.8c-8.9-0.3-34.2-16.7-34.2-16.7s26.4-14.7,35.4-14.4s15.9,7.5,15.6,16.1S807.2,617.1,798.3,616.8
			z"/>
		<path class="st15" d="M837.6,492c1.1,8.5,20.5,31.2,20.5,31.2s12.7-26.7,11.6-35.2s-9.2-14.5-18.1-13.4S836.5,483.5,837.6,492z"/>
		<path class="st15" d="M777.8,538.2c3.7,7.8,29.3,23.9,29.3,23.9s3.8-29.1,0.1-36.9c-4-7.8-13.4-11.2-21.4-7.6
			c-7.8,3.3-11.4,12.3-8.2,20C777.7,537.8,777.8,538,777.8,538.2z"/>
		<path class="st15" d="M726.1,590.7c2.3,8.3,24.6,28.3,24.6,28.3s8.9-28.1,6.6-36.3s-11.2-13.2-19.8-11c-8.3,2-13.5,10.3-11.5,18.6
			C726,590.4,726.1,590.5,726.1,590.7z"/>
	</g>
	<g class="st13">
		<path class="st14" d="M754,548.6c0,0,3.6-72.9,45.2-113.6c17.5-17.1,29.1-38.9,32.5-62.6c1.6-11.3,2-22.6,1.4-34"/>
		<path class="st6" d="M859.2,312.6c-2.9,8.1-26.7,26.5-26.7,26.5s-6.8-28.5-3.9-36.7s12.1-12.4,20.6-9.6
			c8.1,2.5,12.7,11.2,10.1,19.3C859.3,312.3,859.3,312.4,859.2,312.6z"/>
		<path class="st6" d="M868.2,366c-7,5.3-37.4,8.3-37.4,8.3s10.5-27.6,17.5-32.8c7.1-5.3,17-4.1,22.7,2.7c5.3,6.5,4.3,16-2.1,21.3
			C868.7,365.6,868.5,365.8,868.2,366z"/>
		<path class="st6" d="M839.4,442.3c-8.8,1.1-36.7-11-36.7-11s23.5-18.7,32.4-19.8s17,4.8,18.2,13.3S848.3,441.2,839.4,442.3z"/>
		<path class="st6" d="M804.1,495.4c-8.5,2.6-38-4.9-38-4.9s19.9-22.3,28.4-24.8s17.6,2,20.3,10.2c2.5,8.1-2,16.8-10.1,19.3
			C804.4,495.3,804.3,495.4,804.1,495.4z"/>
		<path class="st6" d="M798.2,365.2c4,7.7,30.1,22.9,30.1,22.9s2.8-29.2-1.2-36.9c-4.2-7.7-13.8-10.8-21.7-6.9
			c-7.7,3.5-11,12.6-7.5,20.2C798,364.7,798.1,365,798.2,365.2z"/>
		<path class="st6" d="M757.8,427.7c6.2,6.2,35.8,13.2,35.8,13.2s-6.4-28.7-12.6-34.8c-6.3-6.2-16.4-6.3-22.9-0.3
			c-6.2,5.6-6.6,15.2-1,21.3C757.3,427.3,757.5,427.5,757.8,427.7z"/>
		<path class="st6" d="M727,493.7c5,7.1,33,18.8,33,18.8s-1.3-29.3-6.3-36.4c-5.2-7.1-15.1-8.8-22.5-4c-7.1,4.5-9.1,13.9-4.6,20.9
			C726.8,493.3,726.9,493.5,727,493.7z"/>
	</g>
</g>
<path class="st16" d="M387.8,817.8c0,0-10.3,6.9-7,17.3"/>
<path class="st16" d="M351.7,823.9c0,0,6.3-6.4,13.9-2.9"/>
<path class="st16" d="M381.2,788.1c0,0,11-5.6,13.9,1.4"/>
<path class="st16" d="M408.5,799.8c0,0-8.3-0.7-8.4,3.3"/>
<path class="st6" d="M275,703.7L275,703.7c1.5,4.7-1.1,9.6-5.8,11.1l-20.8,6.5c-4.7,1.5-9.6-1.1-11.1-5.8l0,0
	c-1.5-4.7,1.1-9.6,5.8-11.1l20.8-6.5C268.5,696.5,273.5,699.1,275,703.7z"/>
<path class="st17" d="M265.4,709.5c0,0,82.3-125.1,179.3-54.1s120.8,116,201.9,91s78.1-74.1,142.1-56.1s86.2-41.1,86.2-41.1"/>
<path class="st6" d="M882.8,625.6L882.8,625.6c4.5,1.9,6.6,7.1,4.6,11.6l-8.6,20c-1.9,4.5-7.1,6.5-11.6,4.6l0,0
	c-4.5-1.9-6.5-7.1-4.6-11.6l8.6-20C873.1,625.7,878.3,623.6,882.8,625.6z"/>
<g>
	<circle class="st3" cx="976" cy="821.5" r="59.1"/>
	<rect x="985" y="867.8" class="st3" width="17.9" height="32.1"/>
	<rect x="949.1" y="867.8" class="st3" width="17.9" height="32.1"/>
	<ellipse class="st3" cx="988" cy="900.3" rx="14.9" ry="5.6"/>
	<ellipse class="st3" cx="952.1" cy="899.6" rx="14.9" ry="5.6"/>
	<circle class="st7" cx="974.5" cy="806.5" r="20.2"/>
	<circle class="st1" cx="974.5" cy="797.6" r="6.7"/>
	<path class="st6" d="M982.4,782c-23.6-5.3-39.2-13.1-34.4-34.5c4.8-21.4,27.7-34.4,51.3-29.1c23.6,5.3,38.8,26.8,34,48.2
		S1005.9,787.3,982.4,782z"/>
	
		<ellipse transform="matrix(0.9069 -0.4214 0.4214 0.9069 -231.9063 462.8764)" class="st3" cx="931.3" cy="756.1" rx="9.3" ry="29.5"/>
	
		<ellipse transform="matrix(0.4678 -0.8838 0.8838 0.4678 -130.8385 1330.8525)" class="st3" cx="1039.7" cy="774.1" rx="29.5" ry="9.3"/>
	<circle class="st3" cx="958.9" cy="646.7" r="59.1"/>
	
		<rect x="978.7" y="688.9" transform="matrix(0.984 -0.1781 0.1781 0.984 -109.7748 187.208)" class="st3" width="17.9" height="32.1"/>
	
		<rect x="943.4" y="695.2" transform="matrix(0.984 -0.1781 0.1781 0.984 -111.478 181.0212)" class="st3" width="17.9" height="32.1"/>
	
		<ellipse transform="matrix(0.7631 -0.6463 0.6463 0.7631 -246.9411 788.5278)" class="st3" cx="952.1" cy="731.1" rx="14.9" ry="5.6"/>
	
		<ellipse transform="matrix(0.7631 -0.6463 0.6463 0.7631 -234.7074 809.3866)" class="st3" cx="986.7" cy="724.8" rx="14.9" ry="5.6"/>
	<circle class="st7" cx="954.7" cy="632.3" r="20.2"/>
	<circle class="st1" cx="946.5" cy="625" r="6.7"/>
	
		<ellipse transform="matrix(0.2234 -0.9747 0.9747 0.2234 82.4301 1375.3575)" class="st3" cx="904.4" cy="635.9" rx="9.3" ry="29.5"/>
	
		<ellipse transform="matrix(0.2234 -0.9747 0.9747 0.2234 153.6575 1503.3113)" class="st3" cx="1020.3" cy="655.2" rx="9.3" ry="29.5"/>
	<path class="st7" d="M960.3,663.5c-7.3,1.3-13,3.9-11.6,11.2c1.3,7.3,8.3,12.2,15.6,10.8c7.3-1.3,12.2-8.3,10.8-15.6
		C973.8,662.7,967.6,662.2,960.3,663.5z"/>
</g>
<g>
	<circle class="st6" cx="594.8" cy="624.8" r="59.1"/>
	<path class="st6" d="M576.5,535c14,13.6,15.7,34.5,15.7,34.5s-21-1.1-35-14.8c-14-13.6-15.7-34.5-15.7-34.5S562.5,521.3,576.5,535z
		"/>
	<path class="st3" d="M607.3,534.6c0.6,19.5-12.6,35.8-12.6,35.8s-14.3-15.4-14.9-34.9c-0.6-19.5,12.6-35.8,12.6-35.8
		S606.7,515.1,607.3,534.6z"/>
	<circle class="st2" cx="592.3" cy="618.2" r="30.4"/>
	<circle class="st1" cx="592.3" cy="626" r="9.9"/>
</g>
<rect x="83.1" y="832" class="st1" width="138" height="81.2"/>
<g>
	<path class="st5" d="M165.6,760.8c0.6,0.8,3.9,8.3,5.5,8.3S165.6,760.8,165.6,760.8z"/>
	<ellipse transform="matrix(0.9331 -0.3596 0.3596 0.9331 -245.8964 82.363)" class="st3" cx="98.4" cy="702" rx="9.4" ry="29.9"/>
	<circle class="st3" cx="153.9" cy="747.1" r="59.9"/>
	
		<rect x="163.1" y="794" transform="matrix(1 -2.799989e-003 2.799989e-003 1 -2.2682 0.4854)" class="st3" width="18.2" height="32.6"/>
	
		<rect x="126.8" y="794.1" transform="matrix(1 -2.801098e-003 2.801098e-003 1 -2.2695 0.3837)" class="st3" width="18.2" height="32.6"/>
	<circle class="st7" cx="152.3" cy="731.9" r="20.5"/>
	<circle class="st1" cx="152.3" cy="731.9" r="6.8"/>
	
		<ellipse transform="matrix(0.9023 -0.4311 0.4311 0.9023 -288.3726 165.6045)" class="st3" cx="221.2" cy="719.1" rx="29.9" ry="9.4"/>
	<path class="st7" d="M183.3,768.6c0,5.9-15,17.5-31.8,17.5c-16.7,0-32.5-16.4-32.5-22.3c0-5.9,15.7,1.1,32.4,1
		C168.2,764.9,183.3,762.7,183.3,768.6z"/>
	<ellipse class="st3" cx="179.7" cy="825.8" rx="16.6" ry="6.2"/>
	<ellipse class="st3" cx="143.3" cy="826.6" rx="16.6" ry="6.2"/>
</g>
<path class="st1" d="M1105.7,913.3c0,7.8-50.2,15-133.3,20.5c-15.1,1-31.3,1.9-48.4,2.8c-14.8,0.8-30.4,1.5-46.6,2.2
	c-15.8,0.6-32.1,1.2-49,1.8c-53.5,1.8-112.7,3-175.6,3.6c-15.3,0.1-30.7,0.3-46.4,0.3c-16.3,0.1-32.8,0.1-49.5,0.1
	C253.8,944.6,8,930.6,8,913.2s245.7-31.4,548.9-31.4c67,0,131.3,0.7,190.6,2h0.2c56.2,1.2,108,2.9,153.8,5c3.5,0.2,6.9,0.3,10.3,0.5
	c0,0,0,0,0.1,0c21,1,40.6,2.1,58.7,3.3c0.2,0,0.4,0,0.6,0C1054.9,898.2,1105.7,905.4,1105.7,913.3z"/>
<g>
	<ellipse class="st12" cx="447.8" cy="889.2" rx="16.7" ry="2.3"/>
	<ellipse class="st12" cx="384" cy="895.6" rx="16.7" ry="2.3"/>
	<ellipse class="st12" cx="308.8" cy="886.9" rx="16.7" ry="2.3"/>
	<ellipse class="st12" cx="409.5" cy="914.1" rx="11.9" ry="1.6"/>
	<ellipse class="st12" cx="343.3" cy="912.4" rx="11.9" ry="1.6"/>
	<path class="st6" d="M383.6,895.1c0,0,23.4-76.7-3.7-107.3c-20.2-23-43.2-20.2-53.5-17.4c-5.4,1.4-9.9,5.1-12.3,10.2
		c-3.6,7.8-2.9,20.3,22.4,35c42.5,24.6,45.1,58.3,45.1,58.3L383.6,895.1z"/>
	<path class="st16" d="M330.1,781.3c0,0,68.9,21.5,53.5,113.8"/>
	<path class="st6" d="M384.6,895.7c0,0-27.4-55.7-34.9-54.5c-3.6,0.6-5.2,4.1-6,7.6c-0.9,4.6-0.4,9.3,1.5,13.6
		C349.1,871.3,359.5,888.3,384.6,895.7z"/>
	<path class="st16" d="M349.9,851.8c0,0,28.8,41.7,34.3,43.5"/>
	<line class="st16" x1="347.2" y1="858.3" x2="353.9" y2="858.3"/>
	<line class="st16" x1="355.3" y1="873.6" x2="365.8" y2="874"/>
	<line class="st16" x1="361.7" y1="861.4" x2="360.5" y2="866.8"/>
	<line class="st16" x1="372.8" y1="878" x2="372.6" y2="883"/>
	<path class="st6" d="M383.7,895.7c0,0,27.4-55.7,34.9-54.5c3.6,0.6,5.2,4.1,6,7.6c0.9,4.6,0.4,9.3-1.5,13.6
		C419.3,871.3,408.8,888.3,383.7,895.7z"/>
	<path class="st16" d="M418.4,851.8c0,0-28.7,41.7-34.3,43.5"/>
	<line class="st16" x1="421.1" y1="858.3" x2="414.4" y2="858.3"/>
	<line class="st16" x1="413.1" y1="873.6" x2="402.5" y2="874"/>
	<line class="st16" x1="406.7" y1="861.4" x2="407.8" y2="866.8"/>
	<line class="st16" x1="395.5" y1="878" x2="395.7" y2="883"/>
	<path class="st6" d="M336.7,908.7c-0.7-0.6-1.3-1.4-1.6-2.4c-0.3-1,0.2-2,1.1-2.4c1-0.4,2.1,0.3,2.9,1s1.7,1.5,2.8,1.3
		c-1.1-1-1.6-2.5-1.3-4c0-0.3,0.2-0.6,0.4-0.8c0.6-0.6,1.6-0.3,2.2,0.1c2.1,1.5,2.7,4.4,2.7,6.9c0.1-0.9,0.1-1.9,0-2.9
		c-0.1-1,0.3-1.9,1.1-2.5c0.5-0.3,1.1-0.4,1.6-0.4c1-0.1,1.9,0.1,2.7,0.8c0.7,1,0.7,2.3-0.1,3.3c-0.8,0.9-1.7,1.6-2.8,2.2
		c-0.8,0.5-1.5,1.1-2,1.8c-0.1,0.1-0.1,0.2-0.1,0.3h-6C339,910.6,337.8,909.7,336.7,908.7z"/>
	<path class="st6" d="M441.1,886.3c-0.7-0.6-1.3-1.4-1.6-2.4c-0.3-1,0.2-2,1.1-2.4c1-0.4,2.1,0.3,2.9,1c0.8,0.7,1.7,1.5,2.8,1.3
		c-1.1-1-1.6-2.5-1.3-4c0-0.3,0.2-0.6,0.4-0.8c0.6-0.6,1.6-0.3,2.2,0.1c2.1,1.5,2.7,4.4,2.7,6.9c0.1-0.9,0.1-1.9,0-2.9
		c-0.1-1,0.3-1.9,1.1-2.5c0.5-0.3,1.1-0.4,1.6-0.4c1-0.1,1.9,0.1,2.7,0.8c0.7,1,0.7,2.3-0.1,3.3c-0.8,0.9-1.7,1.6-2.8,2.2
		c-0.8,0.5-1.5,1.1-2,1.8c-0.1,0.1-0.1,0.2-0.1,0.3h-6C443.4,888.1,442.2,887.3,441.1,886.3z"/>
	<path class="st6" d="M406.3,908.7c-0.7-0.6-1.3-1.4-1.6-2.4c-0.3-1,0.2-2,1.1-2.4c1-0.4,2.1,0.3,2.9,1c0.8,0.7,1.7,1.5,2.8,1.3
		c-1.1-1-1.6-2.5-1.3-4c0-0.3,0.2-0.6,0.4-0.8c0.6-0.6,1.6-0.3,2.2,0.1c2.1,1.5,2.7,4.4,2.7,6.9c0.1-0.9,0.1-1.9,0-2.9
		c-0.1-1,0.3-1.9,1.1-2.5c0.5-0.3,1.1-0.4,1.6-0.4c1-0.1,1.9,0.1,2.7,0.8c0.7,1,0.7,2.3-0.1,3.3c-0.8,0.9-1.7,1.6-2.8,2.2
		c-0.8,0.5-1.5,1.1-2,1.8c-0.1,0.1-0.1,0.2-0.1,0.3h-6C408.6,910.6,407.4,909.7,406.3,908.7z"/>
	<path class="st6" d="M307.7,863.4c0,0-2.2,2.9,1,7.3c3.3,4.4,6,8.1,4.9,10.9c0,0-4.9-8.2-8.9-8.3
		C300.6,873.2,303.3,868.3,307.7,863.4z"/>
	<path class="st5" d="M307.7,863.4c-0.2,0.3-0.3,0.6-0.5,0.9c-3.9,4.6-6,8.9-2.2,9c3.5,0.1,7.7,6.4,8.7,8c0,0.1-0.1,0.2-0.1,0.4
		s-4.9-8.2-8.9-8.3C300.6,873.2,303.3,868.3,307.7,863.4z"/>
	<path class="st18" d="M303.5,867.1c0,1,0.1,1.8,0.2,1.8s0.3-0.8,0.3-1.8s-0.1-0.5-0.3-0.5S303.5,866.1,303.5,867.1z"/>
	<path class="st18" d="M302.1,868.3c0.9,0.5,1.7,0.8,1.8,0.7c0.1-0.1-0.6-0.6-1.5-1.1s-0.5-0.1-0.6,0
		C301.7,868,301.2,867.8,302.1,868.3z"/>
	<path class="st6" d="M319.5,863.4c0,0,2.2,2.9-1,7.3c-3.3,4.4-6,8.1-4.9,10.9c0,0,4.9-8.2,8.9-8.3
		C326.5,873.2,323.9,868.3,319.5,863.4z"/>
	<path class="st5" d="M319.5,863.4c0.2,0.3,0.3,0.6,0.5,0.9c3.9,4.6,6,8.9,2.2,9c-3.5,0.1-7.7,6.4-8.7,8c0,0.1,0.1,0.2,0.1,0.4
		s4.9-8.2,8.9-8.3C326.5,873.2,323.9,868.3,319.5,863.4z"/>
	<path class="st18" d="M323.6,867.1c0,1-0.1,1.8-0.3,1.8c-0.1,0-0.3-0.8-0.3-1.8s0.1-0.5,0.3-0.5
		C323.5,866.6,323.6,866.1,323.6,867.1z"/>
	<path class="st18" d="M325.1,868.3c-0.9,0.5-1.7,0.8-1.8,0.7c-0.1-0.1,0.6-0.6,1.5-1.1s0.5-0.1,0.6,0
		C325.5,868,326,867.8,325.1,868.3z"/>
	<path class="st19" d="M322.9,881.2c0,0-6.2-0.2-8.1-1.5c-1.9-1.3-9.6-2.9-10.1-0.8c-0.5,2.2-9.4,10.7-2.3,10.7s16.4-1.1,18.3-2.2
		C322.5,886.3,322.9,881.2,322.9,881.2z"/>
	<path class="st20" d="M302.3,888.9c7.1,0.1,16.4-1.1,18.3-2.2c1.4-0.9,2-4,2.2-5.4h0.2c0,0-0.4,5-2.3,6.2s-11.2,2.3-18.3,2.2
		c-2,0-2.8-0.7-2.7-1.8C300,888.5,300.7,888.9,302.3,888.9z"/>
</g>
<ellipse transform="matrix(0.2234 -0.9747 0.9747 0.2234 -195.674 1001.7681)" class="st6" cx="530.8" cy="623.7" rx="9.3" ry="29.5"/>
<ellipse transform="matrix(0.9581 -0.2865 0.2865 0.9581 -153.4439 215.2316)" class="st6" cx="658.8" cy="632" rx="29.5" ry="9.3"/>
<ellipse transform="matrix(0.9345 -0.3559 0.3559 0.9345 -205.2809 250.29)" class="st6" cx="577.6" cy="683.1" rx="9.3" ry="29.5"/>
<ellipse transform="matrix(0.9467 -0.3221 0.3221 0.9467 -186.4196 235.364)" class="st6" cx="618.1" cy="681.1" rx="9.3" ry="29.5"/>
</svg>
