<?xml version="1.0" encoding="utf-8"?>
<!-- Generator: Adobe Illustrator 19.2.1, SVG Export Plug-In . SVG Version: 6.00 Build 0)  -->
<svg version="1.1" id="bfbb5b39-9b4a-43f6-b630-7b09a59f4f63"
	 xmlns="http://www.w3.org/2000/svg" xmlns:xlink="http://www.w3.org/1999/xlink" x="0px" y="0px" viewBox="0 0 1189 967.4"
	 style="enable-background:new 0 0 1189 967.4;" xml:space="preserve">
<style type="text/css">
	.st0{opacity:0.15;enable-background:new    ;}
	.st1{fill:#3F3D56;}
	.st2{fill:#F2F2F2;}
	.st3{fill:#2F2E41;}
	.st4{fill:none;stroke:#3F3D56;stroke-width:2;stroke-miterlimit:10;}
	.st5{opacity:0.1;enable-background:new    ;}
	.st6{fill:#BD2E2E;}
	.st7{fill:#FFFFFF;}
	.st8{fill:#FF6584;}
	.st9{fill:none;stroke:#BD2E2E;stroke-width:2;stroke-miterlimit:10;}
	.st10{fill:#FFB9B9;}
	.st11{fill:none;stroke:#FFB9B9;stroke-miterlimit:10;}
	.st12{opacity:0.1;fill:#BD2E2E;enable-background:new    ;}
	.st13{opacity:0.1;}
	.st14{fill:none;stroke:#535461;stroke-width:2;stroke-miterlimit:10;}
	.st15{opacity:0.25;enable-background:new    ;}
	.st16{fill:none;stroke:#565987;stroke-miterlimit:10;}
	.st17{fill:none;stroke:#BD2E2E;stroke-width:4;stroke-miterlimit:10;}
	.st18{fill:#FFD037;}
	.st19{fill:#A8A8A8;}
	.st20{opacity:0.2;enable-background:new    ;}
</style>
<path class="st0" d="M1185,918.2c0,9.4-53.9,17.9-142.9,24.5c-16.2,1.2-33.6,2.3-52,3.4c-15.9,0.9-32.6,1.8-50,2.6
	c-16.9,0.8-34.4,1.5-52.6,2.1c-57.4,2.1-120.9,3.6-188.4,4.3c-16.4,0.2-33,0.3-49.8,0.4c-17.5,0.1-35.2,0.1-53.1,0.1
	C271.1,955.7,7.5,938.9,7.5,918.2s263.6-37.5,588.8-37.5c140,0,268.5,3.1,369.6,8.3c3.7,0.2,7.4,0.4,11,0.6c0,0,0,0,0.1,0
	C1104.2,896.5,1185,906.7,1185,918.2z"/>
<path class="st1" d="M1139.8,911.6c0,7.8-50.2,15-133.3,20.5c-15.1,1-31.3,1.9-48.4,2.8c-14.8,0.8-30.4,1.5-46.6,2.2
	c-15.8,0.6-32.1,1.2-49,1.8c-53.5,1.8-112.7,3-175.6,3.6c-15.3,0.1-30.7,0.3-46.4,0.3c-16.3,0.1-32.8,0.1-49.5,0.1
	c-303.1,0-548.9-14-548.9-31.4s245.7-31.4,548.9-31.4c67,0,131.3,0.7,190.6,2h0.2c56.2,1.2,108,2.9,153.8,5
	c3.5,0.2,6.9,0.3,10.3,0.5c0,0,0,0,0.1,0c21,1,40.6,2.1,58.7,3.3c0.2,0,0.4,0,0.6,0C1089,896.5,1139.8,903.7,1139.8,911.6z"/>
<path class="st2" d="M1042.7,166.1L849.3,381.9c41.8,32.5,49.4,92.7,17,134.5s-92.7,49.4-134.5,17c-3.6-2.8-6.9-5.8-10.1-9
	L452.3,825c77.7,60.4,173.3,93.1,271.6,92.9c244.9,0,443.5-198.6,443.5-443.5C1167.6,359.3,1122.8,248.7,1042.7,166.1z"/>
<g>
	<path class="st3" d="M592.1,408.4c-278.7,0-504.8,224.8-507,503h1013.9C1096.9,633.2,870.8,408.4,592.1,408.4z"/>
	<circle class="st2" cx="408.9" cy="625.9" r="2"/>
	<circle class="st2" cx="703.9" cy="719.9" r="2"/>
	<circle class="st2" cx="182.9" cy="694.9" r="2"/>
	<circle class="st2" cx="962.9" cy="623.9" r="2"/>
	<circle class="st2" cx="320.9" cy="644.9" r="2"/>
	<circle class="st2" cx="648.9" cy="604.9" r="2"/>
	<rect x="296.9" y="696.9" class="st2" width="2" height="1"/>
	<rect x="499.9" y="657.9" class="st2" width="2" height="1"/>
	<rect x="881.9" y="701.9" class="st2" width="2" height="1"/>
	<rect x="762.9" y="548.9" class="st2" width="2" height="1"/>
	<rect x="310.2" y="772" class="st1" width="3.5" height="139"/>
	<path class="st1" d="M346.2,747.8c0.2,48.6-34,88.2-34,88.2s-34.6-39.2-34.8-87.9s34-88.2,34-88.2S346,699.1,346.2,747.8z"/>
	<rect x="265.7" y="730.8" class="st1" width="4.6" height="180.2"/>
	<path class="st1" d="M312.4,711.8c0.3,63-44,114.3-44,114.3s-44.8-50.9-45.1-113.9s44-114.3,44-114.3S312.1,648.8,312.4,711.8z"/>
	<rect x="797.2" y="772" class="st1" width="3.5" height="139"/>
	<path class="st1" d="M833.2,789.8c0.2,48.6-34,88.2-34,88.2s-34.6-39.2-34.8-87.9s34-88.2,34-88.2S833,741.1,833.2,789.8z"/>
	<rect x="226.2" y="772" class="st1" width="3.5" height="139"/>
	<path class="st1" d="M262.2,747.8c0.2,48.6-34,88.2-34,88.2s-34.6-39.2-34.8-87.9s34-88.2,34-88.2S262,699.1,262.2,747.8z"/>
	<rect x="536.2" y="772" class="st1" width="3.5" height="139"/>
	<path class="st1" d="M572.2,747.8c0.2,48.6-34,88.2-34,88.2s-34.6-39.2-34.8-87.9s34-88.2,34-88.2S572,699.1,572.2,747.8z"/>
	<rect x="491.7" y="730.8" class="st1" width="4.6" height="180.2"/>
	<path class="st1" d="M538.4,711.8c0.3,63-44,114.3-44,114.3s-44.8-50.9-45.1-113.9s44-114.3,44-114.3S538.1,648.8,538.4,711.8z"/>
	<rect x="452.2" y="772" class="st1" width="3.5" height="139"/>
	<path class="st1" d="M488.2,747.8c0.2,48.6-34,88.2-34,88.2s-34.6-39.2-34.8-87.9s34-88.2,34-88.2S488,699.1,488.2,747.8z"/>
</g>
<rect x="154.5" y="50" transform="matrix(0.5 -0.866 0.866 0.5 4.2964 269.4995)" class="st2" width="162" height="162"/>
<circle class="st2" cx="793.8" cy="462.6" r="57.9"/>
<path class="st1" d="M537.8,563.6c10.3,37.9,45.4,61.4,45.4,61.4s18.5-38,8.2-75.9S546,487.6,546,487.6S527.5,525.6,537.8,563.6z"/>
<g>
	<path class="st6" d="M642.6,887.1c0,0-15.1,0.4-19.3,7c-4.1,6.6-18.4,39.4-18.4,39.4s-27.4,26.5,2.9,27.9
		c30.3,1.4,45.2-5.4,45.1-9.7s-0.4-15.1,6-17.4c6.4-2.3,12.6-13.3,12.5-17.6C671.4,912.3,664.2,884.4,642.6,887.1z"/>
	<path class="st6" d="M759.3,886.2c0,0-9.7,43.4,1.2,45.3c10.8,1.9,17.4,6,19.8,12.4c2.3,6.4,24.1,13.3,41.3,10.7
		c17.2-2.6,25.5-14.6,18.9-20.9c-6.6-6.3-40-42.2-42.3-48.6C795.8,878.8,759.3,886.2,759.3,886.2z"/>
	
		<ellipse transform="matrix(0.9997 -2.605269e-002 2.605269e-002 0.9997 -21.273 18.7498)" class="st6" cx="708.9" cy="825.8" rx="119" ry="119"/>
	<path class="st6" d="M667.3,645.9c28.9,26.7,33.4,68.7,33.4,68.7s-42.2-1.2-71.1-27.9c-28.9-26.7-33.4-68.7-33.4-68.7
		S638.5,619.3,667.3,645.9z"/>
	<path class="st1" d="M712.8,639.4c-18,34.9-7.9,76-7.9,76s39.3-15.6,57.3-50.5c18-34.9,7.9-76,7.9-76S730.8,604.5,712.8,639.4z"/>
	<path class="st6" d="M729.4,643.6c2.3,39.2-23.6,72.6-23.6,72.6s-29.6-30.2-31.9-69.4c-2.3-39.2,23.6-72.6,23.6-72.6
		S727.1,604.4,729.4,643.6z"/>
	
		<ellipse transform="matrix(0.9997 -2.605269e-002 2.605269e-002 0.9997 -20.9337 18.6072)" class="st2" cx="703.6" cy="812.7" rx="61.2" ry="61.2"/>
	
		<ellipse transform="matrix(0.9997 -2.605269e-002 2.605269e-002 0.9997 -20.0299 18.5719)" class="st1" cx="702.7" cy="778" rx="19.8" ry="19.8"/>
</g>
<g>
	
		<ellipse transform="matrix(0.9407 -0.3392 0.3392 0.9407 -30.7543 347.2145)" class="st6" cx="977.8" cy="261.6" rx="119" ry="119"/>
	<path class="st1" d="M853.4,131c26.3,29.2,68.3,34.2,68.3,34.2s-0.7-42.3-27-71.4s-68.3-34.2-68.3-34.2S827.1,101.8,853.4,131z"/>
	<path class="st6" d="M863.1,116.9c37.5,11.7,59.6,47.7,59.6,47.7s-38.7,17-76.2,5.3c-37.5-11.7-59.6-47.7-59.6-47.7
		S825.6,105.2,863.1,116.9z"/>
	<path class="st1" d="M901.4,91.6c-1.3,39.3,25.4,72,25.4,72s28.8-30.9,30.1-70.2c1.3-39.3-25.4-72-25.4-72S902.7,52.3,901.4,91.6z"
		/>
	<path class="st6" d="M918.2,88.2c18.9,34.4,9.8,75.7,9.8,75.7s-39.7-14.6-58.6-49s-9.8-75.7-9.8-75.7S899.3,53.8,918.2,88.2z"/>
	
		<ellipse transform="matrix(0.9407 -0.3392 0.3392 0.9407 -28.1303 343.1192)" class="st2" cx="967.4" cy="252" rx="61.2" ry="61.2"/>
	
		<ellipse transform="matrix(0.9407 -0.3392 0.3392 0.9407 -27.4199 332.5227)" class="st1" cx="937.5" cy="244.7" rx="19.8" ry="19.8"/>
	
		<ellipse transform="matrix(0.9407 -0.3392 0.3392 0.9407 -29.5506 388.4296)" class="st6" cx="1096.3" cy="278.7" rx="33.9" ry="26.4"/>
</g>
<g>
	<g>
		<circle class="st6" cx="206" cy="501.9" r="119"/>
		<path class="st1" d="M93.1,361.2c23.7,31.3,65.1,39.9,65.1,39.9s2.9-42.2-20.8-73.5s-65.1-39.9-65.1-39.9S69.3,329.9,93.1,361.2z"
			/>
		<path class="st6" d="M104,348c36.4,14.8,55.4,52.6,55.4,52.6s-40,13.7-76.4-1.2c-36.4-14.8-55.4-52.6-55.4-52.6
			S67.6,333.2,104,348z"/>
		<path class="st1" d="M144.2,326c-4.6,39,19.2,73.9,19.2,73.9s31.3-28.4,35.9-67.4c4.6-39-19.2-73.9-19.2-73.9S148.9,287,144.2,326
			z"/>
		<path class="st6" d="M161.3,324.1c15.9,35.9,3.4,76.3,3.4,76.3s-38.3-17.9-54.2-53.8s-3.4-76.3-3.4-76.3S145.4,288.1,161.3,324.1z
			"/>
		<circle class="st2" cx="226.6" cy="473.7" r="61.2"/>
		<circle class="st1" cx="250.5" cy="466.8" r="19.8"/>
	</g>
	<path class="st1" d="M44.2,657.7l54.2-43.4"/>
	<path class="st1" d="M47.7,691.1c16.4-13.2,33.3-25.7,50.9-37.4"/>
	<path class="st1" d="M83.9,687.6c19.1-9.1,36.6-21.4,51.7-36.3"/>
</g>
<path class="st2" d="M344,908.2l45.6-63.8l-45.8,70.8l-0.1,7.3c-3.2-0.1-6.4-0.2-9.5-0.4l4.9-94l0-0.7l0.1-0.1l0.5-8.9l-45.9-71
	l46,64.3l0.1,1.9l3.7-71l-39.3-73.3l39.8,60.9l3.9-147.3l0-0.5v0.5l-0.6,116.2l39.1-46l-39.3,56.1l-1,63.6l36.5-61l-36.7,70.4
	l-0.6,35.4l53-85l-53.2,97.3L344,908.2z"/>
</svg>
