<?xml version="1.0" encoding="utf-8"?>
<!-- Generator: Adobe Illustrator 19.2.1, SVG Export Plug-In . SVG Version: 6.00 Build 0)  -->
<svg version="1.1" id="bfbb5b39-9b4a-43f6-b630-7b09a59f4f63"
	 xmlns="http://www.w3.org/2000/svg" xmlns:xlink="http://www.w3.org/1999/xlink" x="0px" y="0px" viewBox="0 0 1100 1176.9"
	 style="enable-background:new 0 0 1100 1176.9;" xml:space="preserve">
<style type="text/css">
	.st0{opacity:0.15;enable-background:new    ;}
	.st1{fill:#3F3D56;}
	.st2{fill:#F2F2F2;}
	.st3{fill:#2F2E41;}
	.st4{fill:none;stroke:#3F3D56;stroke-width:2;stroke-miterlimit:10;}
	.st5{opacity:0.1;enable-background:new    ;}
	.st6{fill:#BD2E2E;}
	.st7{fill:#FFFFFF;}
	.st8{fill:#FF6584;}
	.st9{fill:none;stroke:#BD2E2E;stroke-width:2;stroke-miterlimit:10;}
	.st10{fill:#FFB9B9;}
	.st11{fill:none;stroke:#FFB9B9;stroke-miterlimit:10;}
	.st12{opacity:0.1;fill:#BD2E2E;enable-background:new    ;}
	.st13{opacity:0.1;}
	.st14{fill:none;stroke:#535461;stroke-width:2;stroke-miterlimit:10;}
	.st15{opacity:0.25;enable-background:new    ;}
	.st16{fill:none;stroke:#565987;stroke-miterlimit:10;}
	.st17{fill:none;stroke:#BD2E2E;stroke-width:4;stroke-miterlimit:10;}
	.st18{fill:#FFD037;}
	.st19{fill:#A8A8A8;}
	.st20{opacity:0.2;enable-background:new    ;}
</style>
<circle class="st2" cx="572.1" cy="512.9" r="510.5"/>
<g id="f9f9bcf5-f65d-4586-b32b-ca2676d797c4">
	<path class="st1" d="M1099.6,968.8c0,10.5-237.9,67.3-531.3,67.3S37,979.3,37,968.8c0-10.5,237.9,6.9,531.3,6.9
		S1099.6,958.3,1099.6,968.8z"/>
	<path class="st5" d="M1099.6,968.8c0,10.5-237.9,67.3-531.3,67.3S37,979.3,37,968.8c0-10.5,237.9,6.9,531.3,6.9
		S1099.6,958.3,1099.6,968.8z"/>
	<ellipse class="st1" cx="568.3" cy="968.8" rx="531.3" ry="19"/>
</g>
<line class="st4" x1="1075.9" y1="963.6" x2="1075.9" y2="792.8"/>
<circle class="st1" cx="1075.9" cy="792.8" r="24.2"/>
<path class="st1" d="M1075.9,898.1c0,0-3.5-74.2-74.2-65.6"/>
<line class="st4" x1="100" y1="976.3" x2="100" y2="414.4"/>
<circle class="st1" cx="100" cy="414.1" r="24.2"/>
<circle class="st1" cx="25.8" cy="826.3" r="24.2"/>
<path class="st1" d="M100,537.5c0,0-3.5-74.2-74.2-65.6"/>
<path class="st1" d="M100,747.8c0,0-3.5-74.2-74.2-65.6"/>
<path class="st4" d="M100,969.7c0,0,15.5-136.5-74.2-143.4"/>
<circle class="st1" cx="174.2" cy="826.3" r="24.2"/>
<path class="st4" d="M100,969.7c0,0-15.5-136.5,74.2-143.4"/>
<circle class="st1" cx="175.6" cy="599.7" r="24.2"/>
<path class="st4" d="M101.5,743.2c0,0-15.5-136.5,74.2-143.4"/>
<line class="st4" x1="890.1" y1="960.2" x2="890.1" y2="618.6"/>
<circle class="st1" cx="890.1" cy="618.6" r="24.2"/>
<path class="st1" d="M890.1,716.9c0,0,3.5-74.2,74.2-65.6"/>
<path class="st4" d="M890.1,953.5c0,0-15.5-136.5,74.2-143.4"/>
<circle class="st1" cx="964.3" cy="810.1" r="24.2"/>
<circle class="st8" cx="861.3" cy="264.3" r="94.1"/>
<circle class="st3" cx="705.9" cy="802.7" r="116.2"/>
<rect x="723.6" y="893.9" class="st3" width="35.3" height="63.3"/>
<rect x="653" y="893.9" class="st3" width="35.3" height="63.3"/>
<ellipse transform="matrix(0.866 -0.5 0.5 0.866 -393.0079 460.7405)" class="st3" cx="663.2" cy="963.7" rx="29.4" ry="11"/>
<ellipse transform="matrix(0.866 -0.5 0.5 0.866 -383.745 495.3102)" class="st3" cx="732.4" cy="963.7" rx="29.4" ry="11"/>
<circle class="st7" cx="703" cy="773.2" r="39.7"/>
<circle class="st1" cx="689.4" cy="756.3" r="13.2"/>
<path class="st6" d="M818.6,694.6c9.4-42-20.6-84.5-67-94.8c-46.4-10.4-91.6,15.3-101,57.3c-9.4,42,21.4,57.5,67.7,67.9
	C764.8,735.3,809.3,736.6,818.6,694.6z"/>
<ellipse transform="matrix(0.3935 -0.9193 0.9193 0.3935 -334.786 1017.957)" class="st3" cx="604.1" cy="762.7" rx="18.2" ry="58.1"/>
<ellipse transform="matrix(0.3935 -0.9193 0.9193 0.3935 -274.4134 1265.3984)" class="st3" cx="821.8" cy="840.7" rx="18.2" ry="58.1"/>
<path class="st7" d="M729.2,853.4c0,14.6-11.9,26.5-26.5,26.5s-26.5-11.9-26.5-26.5s11.9-17.7,26.5-17.7S729.2,838.8,729.2,853.4z"
	/>
<line class="st9" x1="567.4" y1="768" x2="567.4" y2="597.2"/>
<circle class="st6" cx="567.4" cy="597.2" r="24.2"/>
<path class="st6" d="M567.4,702.4c0,0-3.5-74.2-74.2-65.6"/>
<path class="st3" d="M340.3,651l9.4,22.1h8.3l-11.8-55.9c0-35.9-17.3-66.2-53.2-66.2h0c-25.1,0-45.4,20.3-45.4,45.4v54.8
	c0,12.1,9.8,21.9,21.9,21.9h64.3L340.3,651z"/>
<path class="st3" d="M379.5,872.9c0,0,122.1-14.7,136.8,11.8s4.4,48.5-14.7,61.8c-19.1,13.2-125,73.6-125,73.6l-8.8,14.7l-19.1-2.9
	l-19.1-17.7l8.8-16.2c0,0,73.6-44.1,75-55.9c0,0-67.7,30.9-75,25c-7.4-5.9-89.7-33.8-76.5-50s47.1-39.7,47.1-39.7L379.5,872.9z"/>
<path class="st5" d="M379.5,872.9c0,0,122.1-14.7,136.8,11.8s4.4,48.5-14.7,61.8c-19.1,13.2-125,73.6-125,73.6l-8.8,14.7l-19.1-2.9
	l-19.1-17.7l8.8-16.2c0,0,73.6-44.1,75-55.9c0,0-67.7,30.9-75,25c-7.4-5.9-89.7-33.8-76.5-50s47.1-39.7,47.1-39.7L379.5,872.9z"/>
<path class="st3" d="M363.3,1021.5c0,0,22.1-4.4,17.7,10.3c-4.4,14.7-7.4,44.1,0,51.5c7.4,7.4,30.9,39.7,7.4,42.7
	c-23.5,2.9-48.5-26.5-48.5-26.5s-16.2-47.1-27.9-51.5c-11.8-4.4-23.5-22.1-17.7-26.5c5.9-4.4,41.2-32.4,44.1-30.9s1.5,17.7,1.5,17.7
	S351.5,1027.4,363.3,1021.5z"/>
<path class="st10" d="M365.5,707.4l54.4,38.2c0,0,41.2-42.7,41.2-67.7c0-25,22.1-72.1,32.4-53c10.3,19.1-11.8,64.7-11.8,64.7
	l-41.2,97.1c0,0-23.5,4.4-36.8-5.9s-50-30.9-50-30.9L365.5,707.4z"/>
<circle class="st10" cx="311.8" cy="602.3" r="41.2"/>
<path class="st10" d="M333.2,630.9c0,0-14.7,38.2-8.8,47.1s13.2,8.8,19.1,11.8c2.9,1.5,33.8,13.2,33.8,22.1
	c-0.1,5.7-1.7,11.2-4.4,16.2l-4.4,25l-36.8,23.5l-48.5-5.9l-36.8-20.6c0,0-5.9-54.4,10.3-63.3c16.2-8.8,35.3-29.4,33.8-36.8
	c-1.5-7.4-2.9-25-2.9-25L333.2,630.9z"/>
<path class="st6" d="M394.9,722.1c0,0-22.1,22.1-22.1,25c0,2.9,14.7,16.2,4.4,33.8C367,798.6,367,842.8,367,842.8l-35.3,7.4
	l-66.2-5.9l-10.3-101.5c0,0,26.5,4.4,32.4,8.8s22.1-5.9,33.8-5.9c11.8,0,45.6-5.9,45.6-5.9L364,728l11.8-20.6L394.9,722.1z"/>
<path class="st3" d="M311.8,878.8c0,0,148.6-66.2,160.3-23.5c11.8,42.7,13.2,145.6,13.2,145.6s7.4,70.6,16.2,78
	c8.8,7.4,0,29.4,0,29.4l-22.1,7.4l-20.6-8.8l-8.8-23.5c0,0-2.9-53-14.7-79.4c-11.8-26.5-11.8-88.3-10.3-91.2
	c0,0-57.4,70.6-113.3,66.2c-55.9-4.4-64-16.9-64-16.9S275,878.8,311.8,878.8z"/>
<path class="st3" d="M492.8,1086.2c0,0,5.9-20.6,19.1-4.4c13.2,16.2,73.6,41.2,75,44.1c1.5,2.9,28,19.1-2.9,41.2
	c-30.9,22.1-72.1,0-72.1,0s-35.3-11.8-44.1-10.3s-26.5-7.4-27.9-14.7c-1.5-7.4,2-72,9.8-65.4s16.7,24.2,16.7,24.2
	S495.7,1108.3,492.8,1086.2z"/>
<path class="st3" d="M361.8,839.1c0,0,8.1-0.7,6.6,18.4c0,0-50.8,15.4-59.6,28.7c-8.8,13.2-47.1,53-53,80.9c0,0-42.7-10.3-19.1-83.9
	l27.7-60C264.5,823.2,280.9,856.7,361.8,839.1z"/>
<path class="st10" d="M327.2,874.8l-50-21.8c0,0-23.5-48.5-23.5-72.1c-0.3-13.5-1.3-27.1-3.1-40.5c-2.3-17.1,4.1-34.3,17-45.8
	c5.2-4.5,11-7.8,17-7.8c0,0,17.7,32.4,14.7,61.8c-2.9,29.4,4.4,73.6,4.4,73.6l66.5,35.6"/>
<path class="st5" d="M327.2,874.8l-50-21.8c0,0-23.5-48.5-23.5-72.1c0-12.3,51.5-48.5,48.5-19.1c-2.9,29.4,1.5,60.3,1.5,60.3
	l66.5,35.6"/>
<path class="st6" d="M303.7,758.9l-4.7,19.9l-26.2,12.5h-22.1l-10.3-47.1c0,0,18.2-3.8,27.5,1s31.1,6,31.1,6L303.7,758.9z"/>
<path class="st3" d="M328.1,553c-8-2-26.9-2-29.7-2c-28.1,0-50.8,22.7-50.8,50.8v0l-19.1,71.3h37.2l6.9-26.5l9.8,26.5h18.7l1.6-15.9
	l6.3,15.9H330c-15.6-35.4-23.9-67.6-3.4-87.5c13.9,1.9,25.6-1.8,27.5-9.3C356.3,567.6,344.7,557.2,328.1,553z"/>
</svg>
