<?xml version="1.0" encoding="utf-8"?>
<!-- Generator: Adobe Illustrator 19.2.1, SVG Export Plug-In . SVG Version: 6.00 Build 0)  -->
<svg version="1.1" xmlns="http://www.w3.org/2000/svg" xmlns:xlink="http://www.w3.org/1999/xlink" x="0px" y="0px"
	 viewBox="0 0 1106 794.9" style="enable-background:new 0 0 1106 794.9;" xml:space="preserve">
<style type="text/css">
	.st0{fill:#F2F2F2;}
	.st1{fill:#BD2E2E;}
	.st2{fill:#3F3D56;}
	.st3{opacity:0.1;enable-background:new    ;}
	.st4{fill:#EFB4C2;}
	.st5{fill:#FFFFFF;}
	.st6{fill:#2F2E41;}
</style>
<g id="a811ccc3-bd41-4105-81cf-f3cac7d18e76">
	<title>notify</title>
</g>
<g id="Layer_4">
</g>
<g id="Layer_2">
</g>
<g id="obi">
	<g>
		<circle class="st0" cx="455" cy="443.9" r="342"/>
		<path class="st1" d="M914.7,192.1L879,234.4c-1.9,18.2-4.7,38.6-8.5,59.9l58.6-60.6l0.3,1.1c-3.3-16.3-8.4-31.1-15-43.7
			L914.7,192.1z"/>
		<path class="st1" d="M879.4,231.2l34.6-41c-7.5-14-17.1-25.2-28.5-32.6c-0.6-0.4-1.2-0.7-1.8-1.1
			C883.6,161.5,883.5,190.7,879.4,231.2z"/>
		<path class="st1" d="M923.6,362.3l0.1,1.2c2-7.5,3.7-15,5.1-22.6l-85,54.9l-0.1-0.6c-1.6,4.4-3.3,8.7-5,12.9L923.6,362.3z"/>
		<path class="st1" d="M933.8,295.6l0.2,1.2c1-20.4-0.5-40.9-4.3-60.9l-59.7,61.8c-3.7,20-8.1,39-13.1,57.1L933.8,295.6z"/>
		<path class="st1" d="M783,192.2c-8.8,11.6-16.5,24-22.8,37.1l98.5,112.4c4.1-15.8,7.3-31.1,10-45.3l-86.1-103.1L783,192.2z"/>
		<path class="st1" d="M753.3,244.8l0.5-1.1l101.1,112.2c1.1-3.8,2.1-7.7,3.1-11.5l-98.8-112.8l0.5-1.1
			C757.5,235,755.3,239.8,753.3,244.8z"/>
		<path class="st1" d="M929,338.3l0.1,1.2c2.5-13.7,4.1-27.5,4.8-41.4l-78.1,60c-3.4,12-7.1,23.6-11.1,34.7L929,338.3z"/>
		<path class="st1" d="M816.3,454.9c-13.2,23-28.2,42.5-44.8,58.2c18.4-7.4,92.3-40,130.7-98.9L816.3,454.9z"/>
		<path class="st1" d="M737.9,301.9c-1.5,13.3-2,26.6-1.7,40l0.6-1.2l79.3,111.2c7.3-13,13.8-26.3,19.5-40.1L737.9,301.9z"/>
		<path class="st1" d="M877.9,231.1c4.4-43.8,4.2-74.2,4.2-74.7l0.8-0.3c-17.9-10.3-37.6-10-56.8-0.8L877.9,231.1z"/>
		<path class="st1" d="M837.5,411.4c-0.5,1.3-1.1,2.6-1.6,3.9c-5.2,12.4-11.1,24.4-17.6,36.1l85-40.3l0,1.2
			c6.7-10.4,12-21.6,15.8-33.4c1.5-4.6,2.9-9.3,4.1-13.9L837.5,411.4z"/>
		<path class="st1" d="M869.2,293.6c3.8-21.1,6.5-41.2,8.4-59.2l-53-77.5l0.6-1.1c-14.4,7.1-28.6,19.3-41.4,35.6L869.2,293.6z"/>
		<path class="st1" d="M814.9,453.9l-78.7-110.4c1.9,80,29.2,165.5,31,170.9C786.1,497.5,801.8,476.7,814.9,453.9z"/>
		<path class="st1" d="M836.5,409.5L836.5,409.5c6.9-16.7,12.7-33.8,17.7-51.1L752.8,245.9c-2.7,6.7-5.3,13.7-7.6,21
			c-3.3,10.4-5.6,21.1-6.9,32L836.5,409.5z"/>
		<path class="st1" d="M994.9,520.7l-54.5,9.8c-13.1,12.8-28.2,26.7-44.8,40.7l83.8-9.3l-0.5,1c7.8-14.7,13.4-29.3,16.3-43.2
			L994.9,520.7z"/>
		<path class="st1" d="M942.8,528.3l52.8-9.5c3.1-15.6,2.9-30.3-1.2-43.3c-0.2-0.7-0.4-1.3-0.7-2
			C990.5,477.4,971.7,499.8,942.8,528.3z"/>
		<path class="st1" d="M893.2,657.5l-0.7,1c6.3-4.5,12.5-9.2,18.4-14.1l-100.5-11.9l0.3-0.5c-4,2.3-8,4.6-12,6.8L893.2,657.5z"/>
		<path class="st1" d="M943.5,612.6l-0.6,1c13.8-15.1,25.7-31.8,35.5-49.7l-85.4,9.5c-15.6,13-31.1,24.9-46.5,35.6L943.5,612.6z"/>
		<path class="st1" d="M893.4,436.9c-14.2,3.3-28,8-41.2,14l4.1,149.4c13.2-9.6,25.4-19.2,36.6-28.5l-0.6-134.3L893.4,436.9z"/>
		<path class="st1" d="M912.6,642.5l-0.7,1c10.7-8.9,20.7-18.6,30.1-28.8l-98.4-3.6c-10.3,7.1-20.5,13.6-30.7,19.6L912.6,642.5z"/>
		<path class="st1" d="M751.5,660.4c-24.9,9.3-48.8,14.7-71.6,16.2c18.9,6,96.7,28.1,163.7,7.2L751.5,660.4z"/>
		<path class="st1" d="M788.7,492.5c-9.6,9.3-18.6,19.2-26.8,29.7l1.2-0.5l-9.9,136.3c13.9-5.3,27.4-11.5,40.5-18.4L788.7,492.5z"/>
		<path class="st1" d="M941.7,527.3c31.3-30.9,50.6-54.5,50.9-54.8l0.8,0.2c-7.1-19.4-22.6-31.7-43.2-36.8L941.7,527.3z"/>
		<path class="st1" d="M795.5,640.4c-1.2,0.7-2.5,1.3-3.7,2c-11.9,6.2-24.1,11.7-36.6,16.6l91.2,23.2l-0.7,1
			c11.8-3.8,23-9,33.5-15.6c4.1-2.6,8.1-5.3,12.1-8.1L795.5,640.4z"/>
		<path class="st1" d="M895.1,569.8c16.4-13.8,31.3-27.6,44.3-40.3L948,436l1.1-0.5c-15.7-3.7-34.3-3.4-54.6,1L895.1,569.8z"/>
		<path class="st1" d="M751.1,658.8l9.8-135.3c-49.6,62.9-83,146.1-85.1,151.4C701.1,673.9,726.5,667.9,751.1,658.8z"/>
		<path class="st1" d="M712.1,338.6l-20.9,51.3c3.8,17.9,7.5,38.1,10.4,59.6l37-75.8l0.6,0.9c-8.2-14.5-17.6-27-27.8-36.9
			L712.1,338.6z"/>
		<path class="st1" d="M690.5,386.7l20.2-49.7c-11.5-11-24.1-18.7-37.2-22.2c-0.7-0.2-1.4-0.3-2-0.5
			C673.1,319.2,682,347,690.5,386.7z"/>
		<path class="st1" d="M773.2,497.8l0.4,1.1c-0.4-7.8-1.1-15.5-2.1-23.1l-63.9,78.5l-0.2-0.5c-0.2,4.7-0.4,9.3-0.7,13.8L773.2,497.8
			z"/>
		<path class="st1" d="M762.2,431.2l0.5,1.1c-5.4-19.7-13.1-38.7-22.9-56.6l-37.7,77.2c2.6,20.2,4.4,39.6,5.2,58.4L762.2,431.2z"/>
		<path class="st1" d="M586.9,379.5c-4.8,13.7-8.3,27.9-10.2,42.3L705,498.3c-1-16.2-2.6-31.8-4.5-46.2l-113.8-71.4L586.9,379.5z"/>
		<path class="st1" d="M574.8,438.6l0.1-1.2l130.8,75.4c-0.2-4-0.3-7.9-0.6-11.9l-128.9-76.7l0.1-1.2
			C575.8,428.1,575.2,433.3,574.8,438.6z"/>
		<path class="st1" d="M770.9,473.3l0.5,1.1c-1.8-13.8-4.6-27.4-8.3-40.8l-55.7,81.1c0.5,12.5,0.5,24.6,0.1,36.4L770.9,473.3z"/>
		<path class="st1" d="M699.7,619c-5.5,26-13.7,49.1-24.6,69.2c15.2-12.7,75.4-66.6,93.7-134.4L699.7,619z"/>
		<path class="st1" d="M577.8,497.7c2.7,13.1,6.3,26,10.7,38.6l0.2-1.3l109.8,81.3c2.9-14.6,5-29.3,6.1-44.1L577.8,497.7z"/>
		<path class="st1" d="M689.1,387.1c-9.3-43-18.9-71.9-19.1-72.3l0.6-0.5c-20.2-4.3-38.8,2.1-54.3,16.8L689.1,387.1z"/>
		<path class="st1" d="M706.4,571.1c-0.1,1.4-0.2,2.8-0.3,4.2c-1.1,13.4-3,26.6-5.6,39.8l68.4-64.6l0.4,1.1
			c3.1-12,4.7-24.3,4.7-36.6c0-4.9-0.1-9.7-0.4-14.5L706.4,571.1z"/>
		<path class="st1" d="M700.1,449.2c-2.9-21.3-6.6-41.2-10.3-58.9l-74.4-57.3l0.2-1.2c-11.5,11.3-21.2,27.2-28.3,46.6L700.1,449.2z"
			/>
		<path class="st1" d="M698.1,618.5l-109-80.7c26.5,75.5,78.9,148.3,82.3,153C684.2,668.8,692.7,644.2,698.1,618.5z"/>
		<path class="st1" d="M704.8,569.5L704.8,569.5c1.4-18,1.7-36,1-54l-131.2-75.6c-0.5,7.2-0.8,14.7-0.8,22.3
			c0.1,10.9,1.2,21.8,3.3,32.5L704.8,569.5z"/>
		<ellipse class="st2" cx="553" cy="762.9" rx="553" ry="32"/>
		<path class="st3" d="M745,722.1c0,62.2-86.7,43-192.8,43s-191.5,19.2-191.5-43s86.7-75.7,192.8-75.7S745,660,745,722.1z"/>
		<path class="st2" d="M745,706.8c0,62.2-86.7,43-192.8,43s-191.5,19.2-191.5-43s86.7-75.7,192.8-75.7S745,644.6,745,706.8z"/>
		<path d="M803.1,115.9c-4.8,2.4-9.5,5.5-12.4,10.4c-5.9,10-3.4,22.1-1.7,36.2c4.1,11-0.4,28.1-2,34c8.2,0,36.3-3.9,36.4-14
			c-0.1-3.3-13.9-8.6-12.9-11.8c1-2.5,2.2-4.9,3.5-7.2c4.3-8.3,6.1-17.9,7.8-27.2c1.2-6.4,3.1-15.8-0.3-21.8
			C818.1,108.5,807.7,113.6,803.1,115.9z"/>
		<circle class="st4" cx="821.8" cy="153.6" r="32.7"/>
		<path class="st4" d="M809,181.4c0,0,5.8,32.9,2.6,43.2s24-3,24-3s-4.9-32.8,4.5-49L809,181.4z"/>
		<path d="M813.1,112c5.5-3.5,9.7-4.6,16.1-5.9c20.5-1.5,33.7,9,36.9,22.8c3.9,30-2.7,38.6-10.2,55.6c-11.9,9.4-43.6,11.8-54.6,13.4
			c-0.8-2.2,21.9-37.9,8.7-68.1C807.3,125.2,808.3,115.1,813.1,112z"/>
		<path class="st4" d="M773.4,118.8c0,0,39-28.9,47.9-17.1s-25.6,19.6-25.6,19.6L759.6,148L773.4,118.8z"/>
		<circle class="st1" cx="428.5" cy="500.6" r="86"/>
		<path class="st1" d="M384.8,372.9L384.8,372.9c-32.9,11.1-68.9-4.7-83-36.5L208.5,127c-20.3-45.5,0.2-98.9,45.7-119.2
			c2.6-1.2,5.3-2.2,8-3.1l0,0c47.3-15.9,98.4,9.6,114.3,56.9c1,3,1.8,6,2.5,9l50,223.6C436.7,327.9,417.5,361.9,384.8,372.9z"/>
		<circle class="st3" cx="428.5" cy="500.6" r="86"/>
		<path class="st3" d="M384.8,372.9L384.8,372.9c-32.9,11.1-68.9-4.7-83-36.5L208.5,127c-20.3-45.5,0.2-98.9,45.7-119.2
			c2.6-1.2,5.3-2.2,8-3.1l0,0c47.3-15.9,98.4,9.6,114.3,56.9c1,3,1.8,6,2.5,9l50,223.6C436.7,327.9,417.5,361.9,384.8,372.9z"/>
		<circle class="st1" cx="425.3" cy="491.1" r="69"/>
		<path class="st1" d="M376.6,348.2L376.6,348.2c-30.2,10.1-63.2-4.4-76.2-33.5l-85.5-192.1c-18.6-41.8,0.2-90.8,42-109.4
			c2.4-1.1,4.9-2,7.3-2.9l0,0c43.4-14.6,90.3,8.8,104.9,52.2c0.9,2.7,1.7,5.5,2.3,8.3L417.3,276C424.2,307,406.6,338.1,376.6,348.2z
			"/>
		<polygon class="st1" points="837.6,125.8 878.4,94.5 889.5,86.1 889.6,88.9 		"/>
		<polygon class="st1" points="848.9,126.4 876.6,83 884.1,71.3 885.1,73.9 		"/>
		<circle cx="860.2" cy="107.5" r="11.3"/>
		<path d="M847.7,104.5c0-5.8,4.4-10.6,10.1-11.2c-6.2-0.7-11.7,3.8-12.4,10s3.8,11.7,10,12.4c0.8,0.1,1.6,0.1,2.4,0
			C852.1,115.1,847.7,110.3,847.7,104.5z"/>
		<polygon points="829.2,129 813.8,120.9 792.5,124.2 788.1,143.7 799,143.2 802.1,136.1 802.1,143.1 807.2,142.9 810.1,131.6 
			811.9,143.7 829.9,143.3 		"/>
		<path d="M867,118.6"/>
		<rect x="834.3" y="114.5" width="24.9" height="13.9"/>
		<path class="st5" d="M847.4,199.3c0,0-55.5,30.5-58.3,43.4s47.8-18,47.8-18L847.4,199.3z"/>
		<path class="st6" d="M771.4,128.3c0,0-0.5,100.9,12.8,123.2s8.1,41.6,8.1,41.6l-39.5,14.6c0,0-20.9-19.4-20.5-23.3
			c0.5-4,2-55.6,2-56.8C734.4,226.4,771.4,128.3,771.4,128.3z"/>
		<path class="st6" d="M852.2,199.3c0,0-75.2,40-84.3,67.7c-14.6,43.9,15.6,105.4,13.3,120.9c-1.4,9.1,5.9,77-3.8,160.4
			c-6.7,57.3-9.4,133-9.1,197.8c22.8,24.4,121.6,6.3,121.6,6.3s-24-119.7-6-216.4c14.5-78,2.2-139.1-31.6-165.5
			c-30.7-23.9-5.4-116.9-1.6-155.6C851.5,205.2,852.2,199.3,852.2,199.3z"/>
		<path class="st6" d="M751.9,128.2l25.5-13.6c0,0-18.1,125.3-8.4,203.9c4.8,39,6.3,46.3,6.3,46.3L742,338.5
			c-15.1-11.9-24.5-29.6-25.9-48.7l-6.7-90.3C709.2,169.7,725.6,142.2,751.9,128.2z"/>
		<path class="st3" d="M850,220.3c0,0-73.9,44.5-81.8,54.9c10.7-9.1,83.3-53.1,83.3-53.1L850,220.3z"/>
		<polygon class="st3" points="851.5,222.1 835.6,245.9 841.7,274.8 840.1,247.8 		"/>
		<path class="st3" d="M781.7,247.8c0,0-31.1,21.6-12.9,77.1C762.5,295.3,763.8,270.6,781.7,247.8z"/>
		<path class="st3" d="M771.1,348c-18.6-75.9-16.6-114.8,0.6-184.9C760.2,212.4,752.1,287.2,771.1,348"/>
		<polyline class="st3" points="854.6,378.9 873.3,439.9 884.8,525.4 898.3,441.9 870.8,367.9 854.6,378.9 		"/>
		<path class="st6" d="M913.9,348l47.2,133.6c10.2,28.9-1.2,56.1-28.3,76c0,0-7.2,6.3-11,6.3c-3.8,0-48.5-141-48.5-141"/>
		<path class="st6" d="M844.9,275.7l48.3,41.2l-38.6,57.2l30.9,80.8l44.9-143c0,0-65-72.8-80.4-91.6c-12.8-15.6-14.5,52.7-14.5,52.7
			L844.9,275.7z"/>
		<path class="st6" d="M932.8,557.7c0,0-47.3,32.2-46.6,17.5c3.6-72.6-12.9-152.2-12.9-152.2"/>
		<path class="st0" d="M768.8,324.9l68-8.1c0,0-1,41.4,17.7,57.4c-50.6,14.7-73.5,13.7-73.5,13.7S765,331.5,768.8,324.9z"/>
		<path class="st1" d="M772.6,354.8c0,0,56.4-4.3,73.6-11.3C841.3,349.9,779.8,359.4,772.6,354.8z"/>
		<path class="st1" d="M775.3,364.8c0,0,55.7-10.1,72-18.8C843.2,352.8,783,368.6,775.3,364.8z"/>
		<path class="st3" d="M829.6,316.8c0,0,10.1,56.3,13.8,59.2c3.7-6.3-9.5-59.2-9.5-59.2H829.6"/>
		<path class="st0" d="M831.9,318.3c0,0,4.5-11.2,12.9-3.9c8.4,7.3-0.1,24.7,15.6,54.4c-1.9,16.9-15.6,7.2-15.6,7.2L831.9,318.3z"/>
	</g>
</g>
</svg>
