<?xml version="1.0" encoding="utf-8"?>
<!-- Generator: Adobe Illustrator 19.0.0, SVG Export Plug-In . SVG Version: 6.00 Build 0)  -->
<svg version="1.1" id="Layer_1" xmlns="http://www.w3.org/2000/svg" xmlns:xlink="http://www.w3.org/1999/xlink" x="0px" y="0px"
	 viewBox="-198 110 394 394" style="enable-background:new -198 110 394 394;" xml:space="preserve">
<g transform="translate(0.000000,394.000000) scale(0.100000,-0.100000)">
	<path d="M-176,2830c-1219-118-2030-1304-1698-2479c26-90,26-95,10-120c-57-86-71-133-71-236c0-91,3-106,31-166
		c30-62,96-149,114-149c4,0,13,22,20,49c11,48,74,161,89,161c4,0,17-17,28-38c80-141,313-395,475-518c231-174,485-291,770-354
		c129-29,133-19,5,13c-730,182-1274,768-1401,1509c-81,471,0,893,244,1267c165,253,408,415,699,466c390,69,796-106,1020-438
		c49-73,117-222,141-312c31-113,38-327,15-450c-16-86-72-248-101-290c-17-24-18-35-1-35c27-1,128-49,168-81c54-42,114-135,127-197
		c28-127,24-144-29-113c-87,51-237,63-327,26c-33-15-34-16-28-56c39-242,231-450,473-513c78-20,240-21,318-1c174,44,335,175,414,335
		c54,110,75,209,68,320c-16,250-158,454-388,559l-64,29l61,59c79,78,147,106,259,107c44,1,94-2,110-7l30-7v137c1,124,3,145,27,205
		c33,88,82,167,141,231c57,61,50,65,121-73c274-529,283-1144,25-1677c-27-58-48-107-46-110c3-2,35,56,71,129
		c200,404,256,834,165,1281c-68,337-248,678-494,936c-302,317-693,521-1121,586C168,2834-59,2841-176,2830z"/>
</g>
</svg>
