<?xml version="1.0" encoding="utf-8"?>
<!-- Generator: Adobe Illustrator 19.2.1, SVG Export Plug-In . SVG Version: 6.00 Build 0)  -->
<svg version="1.1" xmlns="http://www.w3.org/2000/svg" xmlns:xlink="http://www.w3.org/1999/xlink" x="0px" y="0px"
	 viewBox="0 0 1124 776" style="enable-background:new 0 0 1124 776;" xml:space="preserve">
<style type="text/css">
	.st0{fill:#BD2E2E;}
	.st1{fill:#3F3D56;}
	.st2{fill:none;stroke:#2F2E41;stroke-miterlimit:10;}
	.st3{opacity:0.3;fill:#BD2E2E;enable-background:new    ;}
	.st4{fill:#8985A8;}
	.st5{fill:#2F2E41;}
	.st6{fill:#EFB4C2;}
	.st7{opacity:0.1;enable-background:new    ;}
</style>
<g id="bd4103a6-87b0-4a08-8ab5-5811762a7009">
	<polygon class="st0" points="851.9,360 913.5,338.3 912.7,341 	"/>
	<title>light_the_fire</title>
	<ellipse class="st1" cx="562" cy="739" rx="562" ry="37"/>
	<ellipse class="st0" cx="534" cy="216" rx="58" ry="53"/>
	<path class="st1" d="M636.5,701.5c0,0-123.5,49.5-211,1l0.8-14l7.5-130l7.1-123l8.5-147h164l7.9,147l6.6,123l7,130L636.5,701.5z"/>
	<path class="st2" d="M425.5,288.5"/>
	<path class="st0" d="M636.5,701.5c0,0-113.5,50.5-211,1l0.8-14H635L636.5,701.5z"/>
	<polygon class="st0" points="628,558.5 433.9,558.5 441,435.5 621.4,435.5 	"/>
	<rect x="439.5" y="272.5" class="st1" width="184" height="20"/>
	<rect x="439.5" y="205.5" class="st1" width="184" height="20"/>
	<rect x="455.5" y="225.5" class="st1" width="11" height="52"/>
	<rect x="484.5" y="225.5" class="st1" width="11" height="52"/>
	<rect x="513.5" y="225.5" class="st1" width="11" height="52"/>
	<rect x="542.5" y="225.5" class="st1" width="11" height="52"/>
	<rect x="571.5" y="225.5" class="st1" width="11" height="52"/>
	<rect x="484.5" y="146" class="st1" width="11" height="68.5"/>
	<rect x="513.5" y="146" class="st1" width="11" height="68.5"/>
	<rect x="542.5" y="146" class="st1" width="11" height="68.5"/>
	<rect x="571.5" y="146" class="st1" width="11" height="68.5"/>
	<rect x="600.5" y="225.5" class="st1" width="11" height="52"/>
	<rect x="456" y="154" class="st1" width="11" height="61"/>
	<rect x="601" y="154" class="st1" width="11" height="61"/>
	<polygon class="st1" points="624,165.5 440,165.5 440,105.5 532,31 624,105.5 	"/>
	<circle class="st3" cx="534" cy="215" r="154.7"/>
	<circle class="st3" cx="534" cy="215" r="215"/>
	<path class="st4" d="M51.4,692.7c6.1,22.5,26.9,36.4,26.9,36.4s11-22.5,4.9-44.9s-26.9-36.4-26.9-36.4S45.3,670.3,51.4,692.7z"/>
	<path class="st1" d="M60.3,687.9C77,704.1,79,729.1,79,729.1s-25-1.4-41.6-17.6s-18.7-41.2-18.7-41.2S43.7,671.7,60.3,687.9z"/>
	<path class="st4" d="M316.8,660.4c-9,33.1-39.6,53.6-39.6,53.6s-16.2-33.2-7.2-66.3s39.6-53.6,39.6-53.6S325.7,627.3,316.8,660.4z"
		/>
	<path class="st4" d="M235.3,660.4c9,33.1,39.6,53.6,39.6,53.6s16.2-33.2,7.2-66.3s-39.6-53.6-39.6-53.6S226.4,627.3,235.3,660.4z"
		/>
	<path class="st1" d="M248.5,653.3C273,677.2,276,714,276,714s-36.8-2-61.4-25.9s-27.6-60.7-27.6-60.7S223.9,629.4,248.5,653.3z"/>
	<path class="st1" d="M303.6,653.3C279,677.2,276,714,276,714s36.8-2,61.4-25.9s27.6-60.7,27.6-60.7S328.2,629.4,303.6,653.3z"/>
	<path class="st5" d="M909,366c-7.9-13.3-23.5-13.9-23.5-13.9s-15.2-1.9-25,18.3c-3.9,9.4-5,20-2,41.6c0,0,11.4-3.9,18.7-4
		c21-0.7,24.6-4.9,35.7-2.4C912.1,395.6,916.5,378.8,909,366z"/>
	<circle class="st6" cx="887" cy="383.5" r="20.4"/>
	<path class="st6" d="M878.7,396.8c0,0,9.3,21.6-3.1,25.9l12.3,40.7l21-1.2l5.6-13.6l-1.2-20.4l-1.4-10c0,0-13.4-0.5-12.2-23.3
		L878.7,396.8z"/>
	<circle class="st5" cx="887.4" cy="352.1" r="11.3"/>
	<path class="st5" d="M874.9,349.1c0-5.8,4.4-10.6,10.1-11.2c-6.2-0.7-11.7,3.8-12.4,10c-0.7,6.2,3.8,11.7,10,12.4
		c0.8,0.1,1.6,0.1,2.4,0C879.3,359.7,874.9,354.9,874.9,349.1z"/>
	<polygon class="st5" points="905.5,364.7 890.1,356.6 868.8,359.9 864.4,379.4 875.3,378.9 878.4,371.8 878.4,378.8 883.5,378.6 
		886.4,367.3 888.2,379.4 906.2,379 	"/>
	
		<rect x="764.3" y="550.4" transform="matrix(0.9242 -0.3818 0.3818 0.9242 -150.3 348.4742)" class="st1" width="77.3" height="5.2"/>
	<path class="st0" d="M763.6,540.2c10.3,5.5,14.2,18.3,8.7,28.5c-5.5,10.3-18.3,14.2-28.5,8.7l0,0c-10.3-5.5-28.3-39-28.3-39
		S753.3,534.7,763.6,540.2z"/>
	<path class="st7" d="M763.8,549c7,3.7,9.6,12.4,5.9,19.4c-3.7,7-12.4,9.6-19.4,5.9c-7-3.7-19.3-26.5-19.3-26.5
		S756.8,545.2,763.8,549z"/>
</g>
<g id="Layer_3">
	<path class="st0" d="M870.9,452.9c0,0,30.5-14.7,42.6-1.8c-4.9,9.4-3.5,17.3-2.5,21.9c0.5,2.4,0.4,4.1,0.4,4.1l-38.8,6.2l-5.8-11.3
		L870.9,452.9z"/>
</g>
<g id="kimono">
	<path class="st5" d="M862.5,713.7c-0.8-0.1-1.6-0.2-2.4-0.2c-5.9-0.4-43.5-6-44.9-6.2c-5.1-0.6-10.2-1.4-15.3-2.1
		c-0.1-0.3-0.1-0.3-0.1-0.6c0.6-0.4,1.1-1,1.8-1.3c9.5-5,19.1-10.1,28.6-15c5.9-3.1,8.2-4.1,14.2-7.1c5.5-3.7,8.3-11,8.5-11.7
		c2.3-7.8,2.3-7.8,4.3-15.3c1.8-6.5,2.7-13,4.1-19.6c0.9-4.1,1.1-8.4,1.2-12.6c0.3-13,0.3-25.9,0.4-38.9c0-4,0-8-0.1-12
		c0-0.8-0.6-1.9-1.2-2.3c-10.9-6.8-19.9-15.8-28.3-25.3c-1.8-2-3.6-4-5.2-6.1c-0.3-0.4-0.4-1.4-0.1-1.9c5.1-9.1,10.4-18,15.4-27.1
		c4.3-7.8,8.5-15.6,12.2-23.7c1.9-4.3,3.1-8.9,4.4-13.5c1.2-5.9-2.7-14.1-3.2-25.4c-1.1-6.8-2.9-9.8,0-16.1
		c7.8-7.6,12.9-6.5,14.3-7.4c9.9-3.3,10.9-9.3,11.1-9.5c0,9.7,1,25.8,3.7,35.2c-1.3,0.3-2.6,0.5-3.8,0.8c-3.3,1-6.5,2-9.7,3.2
		c-2.1,0.8-2.1,1.3-1.2,3.7c12.6-7.9,26.2-6.7,40.1-4c-0.2-0.6-0.4-1.1-0.5-1.5c-7.8-2.7-15.7-2.3-24.1-2.2c6-11.9,7.1-28.3,16-37.3
		c1.9,0.8,3.8,7.8,15.2,5.6c7.9-0.9,8.3,0,12,1.9c4.5,2.8,33.8,105.8,71.3,118.3c1.1,4.9-37.7,25.2-39,35
		c-0.8,5.7-10.2,20.9-12.7,23.5c-7.2,7.7-14.6,15.2-21.9,22.7c-1.2,1.2-1.5,2.3-1.3,3.9c2.6,18.5,2.1,20.5,7.3,38.4
		c0.4,1.3,6.5,18.5,7.7,20.8c3.2,4.8,12.2,8.6,12.2,8.1c9.7,4.5,10.8,5.3,17.5,7.4c6.8,2.5,10.1,4.6,17.4,6
		c4.5,1.7,8.3,2.7,12.7,4.7c0.4,0.2,0.8,0.5,1.2,0.8c0.7,0.7,1.2,1.4,1.8,2.2c-0.8,0.6-1.5,1.5-2.4,1.7c-3.5,0.9-7,1.7-10.6,2.3
		c-5,0.8-10,1.3-15,1.8C945.2,720.4,880.2,716.2,862.5,713.7z M873.4,478.6c1.1-0.4,2.1-0.7,3.1-1c10.9-3.6,22.2-4.3,33.5-5
		c1-0.1,1.2,0.4,1.3,1.3c0.2,1.8-0.6,3.8,1.1,5.3c0.1,0.1-0.2,0.7-0.3,1.1c-0.1,0.6-0.5,1.3-0.3,1.8c1.9,5.1,4.1,10.2,5.8,15.4
		c1.3,3.9,2.1,8,2.9,12.1c0.4,2.1,0.3,4.3,0.5,6.5c0.2,0,0.4,0,0.6,0c0-4.3,0.6-8.7-0.1-12.9c-2-11.9-4.5-23.7-6.9-35.6
		c-0.8-4.2-1.6-8.3-2.4-12.5c-0.1,0-0.3,0-0.4,0c-0.3,1.1-0.7,2.2-1,3.4c-5.1,0-10.3-0.2-15.4,0c-7,0.3-14,1.4-20.6,4
		c-2.5,1-2.7,1.2-2.3,3.8c0.2,1.4,0.7,2.8-1.4,3.5c0.1,0.2,0.2,0.4,0.4,0.5c4.3-1,8.6-2.1,13-3.1c0.1,0.3,0.1,0.5,0.2,0.8
		c-1.9,0.5-3.9,1-5.8,1.5c-2,0.5-4.1,1.1-6.1,1.7c-0.4,0.1-0.8,0.5-0.9,0.8c-0.1,0.2,0.4,0.6,0.6,0.9c0.3,0.5,0.8,0.9,0.9,1.4
		C873.2,475.8,873.3,477.1,873.4,478.6z M970.8,696.4c6.8,2.5,10.1,4.6,17.4,6c5.6,2,8.3,2.7,12.7,4.7"/>
</g>
</svg>
