<?xml version="1.0" encoding="utf-8"?>
<!-- Generator: Adobe Illustrator 19.2.1, SVG Export Plug-In . SVG Version: 6.00 Build 0)  -->
<svg version="1.1" id="Layer_1" xmlns="http://www.w3.org/2000/svg" xmlns:xlink="http://www.w3.org/1999/xlink" x="0px" y="0px"
	 viewBox="0 0 900 900" style="enable-background:new 0 0 900 900;" xml:space="preserve">
<style type="text/css">
	.st0{fill:#F8EAEA;}
	.st1{fill:#F9BEBF;}
	.st2{fill:#403E56;}
	.st3{fill:#808184;}
	.st4{fill:#F3F3F3;}
	.st5{fill:none;stroke:#403E56;stroke-width:2;stroke-miterlimit:10;}
	.st6{fill:#BD302E;}
	.st7{fill:#FFFFFF;}
	.st8{opacity:0.1;fill:#010101;enable-background:new    ;}
	.st9{fill:#302E41;}
	.st10{fill:#ED7070;}
	.st11{fill:#010101;}
	.st12{fill:#F16584;}
</style>
<path class="st0" d="M524.6,310.4c-55.8-2.1-109.1-21.4-159.9-42.7s-101.1-44.6-155.6-55.9c-35-7.3-75.2-8.3-103.4,12
	c-27.2,19.5-36,53-40.7,84c-3.6,23.4-5.6,48.1,4,70c6.8,15.2,18.8,28,27.1,42.5c28.9,50.7,8.4,113.3-22.8,162.8
	c-14.6,23.3-31.7,45.4-43,70.1s-16.6,53-6.7,78.3c9.8,25,33.2,43.8,58.6,57c51.5,26.9,112.2,34.5,171.4,38.9
	c131,9.7,262.7,5.4,394.2,1.3c48.6-1.5,97.4-3.1,145.3-11.2c26.5-4.5,54-11.6,73.2-28.8c24.4-21.8,30.6-58.8,14.2-86.1
	c-27.6-45.9-103.5-57.3-122.8-106.5c-10.6-27.1,0.2-57.3,15.7-82.4c33-54,88.3-101.2,91.2-162.9c2-42.3-24.6-84.7-65.7-104.8
	c-43.1-21-102.8-18.3-134.7,16.4C631.4,298.4,573.9,312.2,524.6,310.4z"/>
<g>
	<path class="st1" d="M835,505.9c41-113.8-17.9-239.2-131.5-280.4c-113.8-41-239.9,18.4-280.6,132.2c-20.2,56.6-15.7,116,7.8,166.4
		c18.3,39.3,26.5,82.5,22.9,125.8l-5.5,67.4l135,48.8l36.8-52.5c25.4-36.3,60.3-64.7,100.5-83.2C771.8,606.9,814.2,563.4,835,505.9z
		"/>
	<path class="st2" d="M522,825.5l-65.8-23.7c-18.7-6.7-29.6-26.3-24.3-44.2l18.8-69.4L600,741.1l-31,66.1
		C561.5,824.2,540.7,832.2,522,825.5z"/>
	<path class="st3" d="M575.9,765.5c-42.3-13.3-83.4-30.4-125.7-43.7c-3.8-1.2-5.4,4.4-1.8,5.8c41.2,16.5,83.9,28.9,125.1,45.3
		C578.3,774.7,580.8,767,575.9,765.5z"/>
	<path class="st3" d="M569.5,783.6c-42.3-13.3-83.4-30.4-125.7-43.7c-3.8-1.2-5.4,4.4-1.8,5.8c41.2,16.5,83.9,28.9,125.1,45.3
		C571.7,792.8,574.2,785.1,569.5,783.6z"/>
	<g>
		<path class="st4" d="M680,568.5c-4.8-7.3-7.7-15.4-8.9-23.9c10.8-6.6,18.6-17.8,24.1-28.8c3.3-6.7,6.2-13.7,8.9-20.8
			c2.5-6.8,3.8-12.9-0.5-19.3c-3.8-5.6-11.9-4.7-17.2-2.4c-6.1,2.7-10.8,8.8-14.6,13.9c-7.8,10.4-12.2,22.9-14.3,35.7
			c-0.7,4.5-1,9-0.9,13.5c-3.8,1.3-7.7,1.8-11.8,1.7c-12.6-0.5-18.8-10-20.5-21.6c-0.2-1.8-0.5-3.8-0.6-5.9c1.7-2.1,3.5-4.2,5.1-6.2
			c8-10,14.4-21.2,19.6-32.9c4.4-9.7,9-21.3,1.5-30.7c-2.4-3-6.3-2.8-9.2-0.8c-21,14.3-29.4,40.2-29.7,64.9
			c-4.5,5-9.5,9.6-14.6,13.9c-5.6,4.7-15.7,11.6-23.4,7.5c-7.1-3.8-9.8-15.4-11.4-22.7c-1.2-5.3-1.7-10.6-1.7-16
			c1.8-2.2,3.7-4.4,5.4-6.7c6.9-9,12.5-18.9,17.2-29.2c3.9-8.5,8.6-20.9,0.6-28.6c-2.4-2.2-6.6-3.6-9.2-0.8
			c-15.3,15.8-24.4,36-26.3,57.9c-0.1,0.7-0.1,1.5-0.1,2.2c-11.3,12.8-25.1,23.4-40.2,31.2c-6.8,3.6-1.8,14.1,5.1,10.7
			c13.3-6.3,25.2-14.6,36-24.6c0.6,4.2,1.5,8.3,2.7,12.3c3.1,11.1,8.1,22,19.3,26.7c10.4,4.4,22.2-1.4,30.8-7
			c4.2-2.8,8-5.9,11.6-9.3c2.2,10.1,7.4,19.4,17.1,24.6c8.9,4.7,19,5.1,28.6,2.7c1.7,9.3,5.1,18.3,9.8,26.4
			C673,585.7,686,577.4,680,568.5z M640.2,457c-1.4,5.1-4.7,10.7-6,13.6c-2.4,5.3-5.4,10.4-8.5,15.2
			C628.1,474.9,632.8,464.4,640.2,457z M677,505.4c2.2-5,5.4-9.6,8.9-13.7c1.6-2,3.3-3.6,5.2-5.1c0.1-0.1,0.8-0.6,1.4-0.8
			c-0.1,0.3-0.1,0.9-0.3,1.6c-3.8,12.7-9.8,25.8-18,36.3c-1,1.3-2.1,2.5-3.2,3.7C671.9,519.7,673.9,512.2,677,505.4z"/>
		<path class="st4" d="M702.6,542.5c-46,58.9-93.1,117.1-141.7,174c-5.8,6.8,4.6,16,10.4,9.2c48.5-57.1,95.5-115.3,140.3-175.2
			C716.4,544.3,707.5,536.2,702.6,542.5z"/>
		<path class="st4" d="M505,466.2c-7.1,74.5-15.6,148.8-25.8,222.8c-1.3,8.9,12.5,11.1,13.7,2.2c10.3-74.1,18.4-148.5,24.1-223.2
			C517.6,460.5,505.7,458.5,505,466.2z"/>
	</g>
</g>
<ellipse class="st2" cx="400.8" cy="829.6" rx="220.2" ry="18.4"/>
<g>
	<circle class="st5" cx="95.6" cy="245.8" r="36.9"/>
</g>
<rect x="757.1" y="290.8" class="st6" width="38.4" height="38.4"/>
<rect x="764.7" y="283.1" class="st5" width="38.4" height="38.4"/>
<g>
	<path class="st7" d="M352.6,807.7c0,0-13.8,10-11.6,17.4c2.2,7.4,17.9,3.9,17.9,3.9l18.9,2.8l36.5-9l5-24.7l-20.1-13.6
		c0,0-38,10.6-38.3,11.3C360.7,796.5,352.6,807.7,352.6,807.7"/>
	<path class="st6" d="M422.7,808.1c2.1,12,0.5,18.4-11.4,20.9c-16,3.3-31.9,6.5-48.5,2.5c-5.4-1.3-11.4,0.3-17.2,0
		c-3.5-0.2-7-1.3-5.6-7.3c3.1,0.8,5.9,2.1,8.9,2.3c3.5,0.2,7-0.6,10.5-0.7c3-0.1,7.1-1.2,8.6,0.3c5.2,5.2,11.2,4.4,16.7,2.5
		c7.6-2.7,14.8-6.6,22.1-10c-0.3-1.2-0.6-2.2-0.9-3.3c-10.4,1.2-24.1,4.2-34.8,5.3c6.5-6,1.7-7.5-2.5-6.8
		c-5.8,0.9-11.5,2.2-17.9,3.5c-2.2-5.2-1.3-10.1,5.9-13.7c-1.3,3.2-2.3,5.8-3.3,8.3c10-1.4,19.7-2.8,29.9-4.2
		c-0.9,2-1.6,3.8-2.7,6.1C395.2,812.9,408.8,808.9,422.7,808.1z"/>
	<path class="st1" d="M365.7,235.8c0,0,5.8,40.3-8.1,42.7c-13.8,2.3-25.4,1.2-25.4,2.3s34.6,36.9,34.6,36.9l32.3-2.3l28.8-31.1
		c0,0-26.5-4.6-26.5-20.8c0-16.1-1.2-27.7-1.2-27.7H365.7z"/>
	<path class="st8" d="M365.7,235.8c0,0,5.8,40.3-8.1,42.7c-13.8,2.3-25.4,1.2-25.4,2.3s34.6,36.9,34.6,36.9l32.3-2.3l28.8-31.1
		c0,0-26.5-4.6-26.5-20.8c0-16.1-1.2-27.7-1.2-27.7H365.7z"/>
	<circle class="st1" cx="383.5" cy="216.8" r="35.7"/>
	<polygon class="st1" points="313.1,356.6 306.4,403.4 366.4,387 403.3,434.3 437,410.9 454.2,368.6 427.9,313.3 386.8,313.3 	"/>
	<g id="Layer_2">
		<path class="st9" d="M286.4,382.8c3.3-10.3,6.6-20.6,10-30.9c0.8-2.5,2.4-4.8,3.8-7.1c4.6-8.1,10.5-15.7,13.7-24.3
			c8.3-22.8,24.4-38.5,39.9-54.3c2.5,10.5,5.4,20.6,7.4,31c0.6,2.9-0.9,7-2.8,9.3c-9.1,11.8-14.9,25-17.8,39.8
			c0.7,0.3,1.4,0.7,2.1,1c0.9-2.8,2-5.5,2.9-8.3c12.6-36.7,38.6-58.4,70.8-73.6c7.8-3.7,13.5-0.1,20.1,5.2
			c22.2,17.9,27.9,44.6,34.7,70.7c7.4,28.4,7.1,57.3,2,86c-2.3,12.7-1.5,24.6,0.7,37c1.5,8.3,1.8,16.8,2,25.2
			c0.1,5.1-2.1,8.6-7.8,9.8c-3.7,0.7-6.9,4.4-10.3,6.8c-15,11-16.5,27.8-16.6,45c-0.2,56.7-0.5,113.3-0.5,170
			c0,22.1,0.9,44.2,1.3,66.3c-1.7,23.6,0.6,23.1-15.2,29.2c-31.7,9.2-62.8,0.9-92.1-15.3c-2.1-1.2-3.2-6-3.1-9.1
			c1.3-45.3,3.2-90.6,4-135.9c0.7-40.5,0.1-81,0.1-121.9c-1.6,0.9-4,2.2-6.9,3.7c-6.1-10.3-10.1-21-10.4-33.2
			c-0.1-7.6,0.1-15.3-0.2-22.9c-0.1-3.1,2.1-8.6-4.7-7.6c-0.5,0.1-2-2.7-1.8-4c0.9-19.5-10.4-34.7-16.1-51.9c-3.1-9-6-18-8.9-27
			C286.4,388.5,286.4,385.7,286.4,382.8z M311.5,399.7c8.1-1.7,14.8-3.9,21.4-4.3c6.3-0.2,9-3.8,12.3-8.6
			c6.8-9.6,8.5-23.7,22.2-27.9c2,1.8,4.4,4.6,7.1,6.6c9,6.2,17.8,13.7,27.6,17.8c8.5,3.6,13.8,8.6,16.7,17.4c0.8,2.7,2.1,5.1,3,7.6
			c0.7-0.2,1.3-0.6,2-0.8c-0.9-15.1,0.9-30.6-11.3-43c-7.5-7.6-12.9-17.6-19.4-26.7c4.5-4.3,8.2-7.7,11.9-11.3
			c-0.5-0.8-1-1.7-1.5-2.5c-2.8,1.5-5.6,2.9-8.3,4.4c-7.1,4.3-10.7,16.7-21.4,12.2c-0.5-0.2-1.6,0.2-2.2,1.2
			c-2.4,4-5.9,6.9-7.7,10.3c-3.7,1-6.1,4.8-10.6,6.1c-13.7-8.9-19.1-10.5-27.3,5.8c-4.7,9.5-9,19.1-13.4,28.7
			C312.1,394.4,312.1,396.7,311.5,399.7z"/>
	</g>
	<g id="hair">
		<path class="st10" d="M343.6,190.3c-7.3,12.8-8.9,27.9-9.9,42.5c-0.5,6.3-0.8,12.7,1.2,18.8c2,6.3,6.3,12.8,4.2,19
			c-2.2,6-9.5,8.4-13.5,13.5c-3.5,4.3-4.3,10-4,15.4s1.6,10.7,2,16.3c0.8,12-2.9,23.7-10.4,33.1c17.4-0.7,36-8.4,43.2-24.1
			c2.2-4.7,3.2-9.9,5.2-14.6c2.2-5.4,5.6-10.4,7.7-15.8c3.2-8.3,3.3-17.4,3.5-26.2c0.1-5.3,0.1-10.7-1.7-15.7
			c-4-11-16.6-18.1-17.9-29.6c-0.2-1.3,0-2.5,0.6-3.6c0.6-0.8,1.3-1.5,2.1-2.1c7.8-6.9,6.6-21.6,15.9-26.3c4.2-2.1,9.2-1.4,13.7,0
			c5,1.5,10,3.8,13.3,7.8c6.6,8.2,3.9,20.1,2,30.4c-2.9,15-4,30.2-3.1,45.4c0,2.4,0.5,4.8,1,7.1c1.2,3.8,3.8,7,5.8,10.5
			c3.9,7.1,5.2,15.6,3.6,23.5c-1.4,7-5,14.4-1.8,20.9c1.4,2.4,3.3,4.6,5.6,6.2c10.3,8,23.2,12.9,30.8,23.5c1.3-8.6-1.2-17.3-3-25.7
			c-1.8-8.4-3-17.8,0.8-25.6c1.6-3.5,4.2-6.5,5.5-10c3.1-8.2-0.6-17.3-2.9-25.8c-1.6-6.7-2.8-13.5-3.5-20.3l-2.3-18.4
			c-2-15.2-3.9-30.9-10.7-44.7c-12.7-26.1-41.3-35.9-66.9-21.3C353,177.9,347.5,183.5,343.6,190.3z"/>
		<path class="st4" d="M341.3,421.1l84.6-2.3l-1.8-11.2l-2,0.8c0,0-4.4-20.3-15.9-23.7c-13.6-5.8-25.7-15-25.7-15h-26.4
			c0,0-8.9,21.6-16.5,24.8c0.5,1.2,0.8,2.7,1.2,4.3C340.5,407.2,341.3,421.1,341.3,421.1z"/>
		<g>
			<path class="st6" d="M273.7,252.7c2.3-1,4.6-1,6.9-0.1c2.4,0.9,4,2.7,5.1,5.1c1,2.3,1,4.6,0.1,7c-1,2.4-2.7,4-5,5.1
				c-2.4,1-4.7,1-7,0.1c-2.4-1-4-2.7-5.1-5c-1-2.4-1-4.7-0.1-7C269.6,255.5,271.4,253.7,273.7,252.7z M245.7,163.1l3.2,7.6
				c0.1,0.3,2,6.1,5.5,17.3c5.3,16.6,10.5,32.6,15.7,48.1l-2.4,5.2l-1.7-0.1c-4.5-9.3-11.5-23.1-21.3-40.9l-8.2-15.4
				c-1.5-2.9-2.9-6-4.2-9.2c3.1-3.5,6-6.9,8.6-10.5L245.7,163.1z"/>
		</g>
		
			<ellipse transform="matrix(0.998 -6.291475e-002 6.291475e-002 0.998 -14.075 24.5966)" class="st7" cx="383.5" cy="235.8" rx="3.5" ry="7.4"/>
		<path class="st6" d="M416.2,394l-77.6,3.7c0,0,0.6,1.3,0.3,2.5c2.9-0.6,79-3.8,79-3.8S418,394.7,416.2,394z"/>
	</g>
	<g id="quạt">
		<path class="st11" d="M338.9,380.2c2.7-1.5,5.6-3,2.8-6.5c1.7-1.2,3.5-2.3,6.3-4.3C345.6,379.2,343.2,382,338.9,380.2z"/>
		<path class="st6" d="M337.9,373.9L337.9,373.9c-0.8-1.2-0.8-2.4-0.1-3l77.7-62.6l10.5,14.8l-85.2,51.9
			C339.8,375.5,338.7,374.9,337.9,373.9z"/>
		<path class="st1" d="M371,340.8c1.4-1.6,3.2-2.8,5.2-3.2c6.1-1.6,19.3-3,25.4,13.3c4.8,13-5.2,15-9.6,15.2c-1.2,0.1-2.2,0-3.2-0.3
			l-8.2-2.1c-0.3-0.1-0.6-0.1-0.9-0.2l-5.8-0.9c-2.2-0.3-4.3-1.4-5.9-3l0,0c-4-4-4.2-10.5-0.5-14.8L371,340.8z"/>
	</g>
</g>
<g>
	<circle class="st12" cx="244.6" cy="641" r="12.5"/>
	<line class="st5" x1="294.8" y1="827.2" x2="294.8" y2="685.6"/>
	<circle class="st2" cx="294.8" cy="685.6" r="20.1"/>
	<path class="st2" d="M294.8,772.9c0,0-2.9-61.6-61.4-54.4"/>
</g>
</svg>
