<?xml version="1.0" encoding="utf-8"?>
<!-- Generator: Adobe Illustrator 19.2.1, SVG Export Plug-In . SVG Version: 6.00 Build 0)  -->
<svg version="1.1" id="Layer_1" xmlns="http://www.w3.org/2000/svg" xmlns:xlink="http://www.w3.org/1999/xlink" x="0px" y="0px"
	 viewBox="0 0 1078.5 977.4" style="enable-background:new 0 0 1078.5 977.4;" xml:space="preserve">
<style type="text/css">
	.st0{opacity:0.1;fill:#BD2E2E;enable-background:new    ;}
	.st1{fill:#BD2E2E;}
	.st2{opacity:0.4;fill:#FFFFFF;enable-background:new    ;}
	.st3{fill:none;stroke:#535461;stroke-miterlimit:10;}
	.st4{fill:none;stroke:#535461;stroke-width:2;stroke-miterlimit:10;}
	.st5{fill:#FC6681;}
	.st6{fill:#FFD037;}
	.st7{opacity:0.1;enable-background:new    ;}
	.st8{fill:url(#SVGID_1_);}
	.st9{fill:#E2E2EC;}
	.st10{fill:#F1F2FB;}
	.st11{fill:#E8EAF8;}
	.st12{opacity:0.1;fill:none;stroke:#000000;stroke-width:4;stroke-miterlimit:10;enable-background:new    ;}
	.st13{fill:#FDC2CC;}
	.st14{fill:#F4CECE;}
	.st15{fill:#D39999;}
	.st16{fill:#AA9393;}
	.st17{fill:#5E4046;}
</style>
<title>Bibliophile</title>
<path class="st0" d="M930.3,644.5c-34.1,55.8-28.1,131.5-13.5,191.2c4.9,20,10.5,41.1,6.2,63.5c-5.3,27.4-24.4,49-43.6,61.4
	c-35.1,22.5-75.1,22.1-104-1.2c-25-20.1-41.5-55.3-67-74.3c-42.8-31.8-101.8-12.2-153.1,18c-36.3,21.3-76.2,48.3-109.6,33.3
	c-23.5-10.6-38-40.7-44.7-73.5c-3.2-15.8-5.2-33.1-12.7-45.2c-4.5-7.2-10.7-11.9-17.1-15.8c-58.5-35.7-138-5.3-194.4-45.7
	c-38.1-27.3-59.6-83.9-66.4-144.6s-0.8-125.6,6.8-189.5c5.4-45.4,12.7-94.1,36.3-131.1c25-39.2,64.2-56.8,98.3-53.3
	s63.5,25.3,88.8,52c31.7,33.3,60.2,75.9,101.4,86.5c28,7.2,58.7-1.4,88.6-6.4c49.9-8.3,99-6.2,147.8-3.4
	c46.7,2.7,93.7,6.1,137.1,22.6c30.8,11.7,54.3,36.2,83,52.1c18.7,10.4,39.8,11.6,57.2,25.4c21.4,17,39.9,48.6,31.1,88.6
	C978.3,593.2,948.3,614.9,930.3,644.5z"/>
<path class="st1" d="M293.6,285c0,0-147.1-32.9,40.1-225.4c0,0,80.7,76.5,51.1,171.6c-11.9,38.2-50.2,61.8-89,54.3L293.6,285z"/>
<path class="st2" d="M293.6,285c-3.2-0.7-144-36.2,40.1-225.4c0,0,80.7,76.5,51.1,171.6c-11.9,38.2-50.2,61.8-89,54.3L293.6,285z"/>
<path class="st3" d="M295.6,286.1c0,0,77.7-117.1,38.1-226.5"/>
<path class="st4" d="M898.9,400.7c0,0-25.4-102.1,13.1-174.8c16.1-30.5,22.5-65.3,17.2-99.4c-2.6-16.2-6.7-32.1-12.1-47.5"/>
<path class="st1" d="M941,40.1c-0.5,12.4-24.4,47.2-24.4,47.2s-20.8-36.8-20.3-49.2c0.8-12.3,11.4-21.7,23.8-21
	C932,17.9,941.3,28,941,40.1z"/>
<path class="st1" d="M975,103.1c-7.2,10.1-46.2,26.4-46.2,26.4s2.5-42.2,9.7-52.3c6.9-10.2,20.9-12.9,31.1-6
	c10.2,6.9,12.9,20.9,6,31.1C975.4,102.6,975.3,102.8,975,103.1L975,103.1z"/>
<path class="st1" d="M968.4,220c-11.3,5.1-53.2-0.5-53.2-0.5s23.5-35.2,34.7-40.3c11.4-4.9,24.5,0.4,29.4,11.8
	C984.1,202,979.3,214.8,968.4,220z"/>
<path class="st1" d="M943.5,357.3c-10.3,6.9-52.5,8.4-52.5,8.4s17.2-38.6,27.4-45.6c10.4-6.7,24.2-3.8,31,6.6
	C955.9,336.9,953.3,350.4,943.5,357.3z"/>
<path class="st1" d="M881.8,129.9c8.5,9,49.4,19.7,49.4,19.7s-8.4-41.4-16.8-50.4c-8.7-8.8-22.8-9-31.7-0.3
	C874,107.2,873.6,121,881.8,129.9z"/>
<path class="st1" d="M853.9,232.3c10.8,6,53,4,53,4s-20.3-37.1-31.1-43.1c-10.9-5.8-24.5-1.6-30.3,9.3
	C839.9,213.2,843.6,226.2,853.9,232.3z"/>
<path class="st1" d="M840.5,385.7c9.6,7.8,51.6,12.9,51.6,12.9s-13.8-40-23.4-47.7c-9.8-7.6-23.8-5.8-31.4,4
	C829.8,364.3,831.3,377.9,840.5,385.7z"/>
<path class="st5" d="M941,33.1c-0.5,12.4-24.4,47.2-24.4,47.2s-20.8-36.8-20.3-49.2c0.8-12.3,11.4-21.7,23.8-21
	C932,10.9,941.3,21,941,33.1z"/>
<path class="st5" d="M975,103.1c-7.2,10.1-46.2,26.4-46.2,26.4s2.5-42.2,9.7-52.3c6.9-10.2,20.9-12.9,31.1-6
	c10.2,6.9,12.9,20.9,6,31.1C975.4,102.6,975.3,102.8,975,103.1L975,103.1z"/>
<path class="st5" d="M968.4,220c-11.3,5.1-53.2-0.5-53.2-0.5s23.5-35.2,34.7-40.3c11.4-4.9,24.5,0.4,29.4,11.8
	C984.1,202,979.3,214.8,968.4,220z"/>
<path class="st5" d="M943.5,357.3c-10.3,6.9-52.5,8.4-52.5,8.4s17.2-38.6,27.4-45.6c10.4-6.7,24.2-3.8,31,6.6
	C955.9,336.9,953.3,350.4,943.5,357.3z"/>
<path class="st5" d="M881.8,129.9c8.5,9,49.4,19.7,49.4,19.7s-8.4-41.4-16.8-50.4c-8.7-8.8-22.8-9-31.7-0.3
	C874,107.2,873.6,121,881.8,129.9z"/>
<path class="st5" d="M853.9,232.3c10.8,6,53,4,53,4s-20.3-37.1-31.1-43.1c-10.9-5.8-24.5-1.6-30.3,9.3
	C839.9,213.2,843.6,226.2,853.9,232.3z"/>
<path class="st5" d="M840.5,385.7c9.6,7.8,51.6,12.9,51.6,12.9s-13.8-40-23.4-47.7c-9.8-7.6-23.8-5.8-31.4,4
	C829.8,364.3,831.3,377.9,840.5,385.7z"/>
<path class="st4" d="M806.1,334.7c0,0,106.4-89.1,130-134.1s53.8-83.7,53.8-83.7"/>
<path class="st1" d="M975.9,267.5l-46-10.4C929.9,257.1,940.8,305.6,975.9,267.5z"/>
<path class="st1" d="M905.6,167.9l26.5,39.7C932,207.5,880.3,211.3,905.6,167.9z"/>
<path class="st1" d="M994,180.2l-42.1-7.4C951.9,172.8,978.4,213,994,180.2z"/>
<path class="st1" d="M931.8,144.7l20.8,27.1C952.6,171.9,915.8,175.3,931.8,144.7z"/>
<path class="st1" d="M973.8,146.3c0,0,35.8,1.7,40,5.1s-5.3,23.5-19,20.2S973.8,146.3,973.8,146.3z"/>
<path class="st1" d="M959.4,107.3c0,0,14.6,26.7,14.1,31.7c-0.5,5.1-22.3,10.8-26.7-8.4S959.4,107.3,959.4,107.3z"/>
<ellipse transform="matrix(0.3019 -0.9533 0.9533 0.3019 573.8761 1041.2289)" class="st6" cx="997.9" cy="128.8" rx="10" ry="10"/>
<ellipse transform="matrix(0.3019 -0.9533 0.9533 0.3019 572.7498 1019.0981)" class="st6" cx="982.2" cy="118.5" rx="10" ry="10"/>
<path class="st1" d="M328.2,355.6c0,0,43-32-11-144c0,0-72-89,0-173c0,0-157,4-154,150s78.5,167,78.5,167H328.2z"/>
<path class="st4" d="M288,355.6c0,0-10.8-77-39.8-124c-5.7-9.5-9.8-19.9-12.2-30.7c-9.7-42.6,4.1-87.2,35.4-117.7l45.8-44.6"/>
<path class="st1" d="M417.7,98.6c0,0,9.9,12.9-4.6,32.4s-26.3,36-21.5,48.1c0,0,21.8-36.2,39.5-36.7S437.2,120.4,417.7,98.6z"/>
<path class="st7" d="M417.7,98.6c0.9,1.2,1.5,2.6,2,4.1c17.3,20.3,26.5,39.3,9.9,39.8c-15.5,0.4-34.1,28.1-38.5,35.1
	c0.1,0.5,0.3,1.1,0.5,1.6c0,0,21.8-36.2,39.5-36.7S437.2,120.4,417.7,98.6z"/>
<path class="st6" d="M436.1,115c0,4.6-0.5,8.2-1.1,8.2s-1.1-3.7-1.1-8.2s0.6-2.4,1.3-2.4S436.1,110.5,436.1,115z"/>
<path class="st6" d="M442.4,120.5c-4,2.2-7.5,3.5-7.8,2.9s2.7-2.8,6.7-4.9s2.4-0.6,2.7,0S446.4,118.3,442.4,120.5z"/>
<path class="st1" d="M365.6,98.6c0,0-9.9,12.9,4.6,32.4s26.3,36,21.5,48.1c0,0-21.8-36.2-39.5-36.7S346,120.4,365.6,98.6z"/>
<path class="st7" d="M365.6,98.6c-0.9,1.2-1.5,2.6-2,4.1c-17.3,20.3-26.5,39.3-9.9,39.8c15.5,0.4,34.1,28.1,38.5,35.1
	c-0.1,0.5-0.3,1.1-0.5,1.6c0,0-21.8-36.2-39.5-36.7S346,120.4,365.6,98.6z"/>
<path class="st6" d="M347.2,115c0,4.6,0.5,8.2,1.1,8.2s1.1-3.7,1.1-8.2s-0.6-2.4-1.3-2.4S347.2,110.5,347.2,115z"/>
<path class="st6" d="M340.9,120.5c4,2.2,7.5,3.5,7.8,2.9s-2.7-2.8-6.7-4.9s-2.4-0.6-2.7,0S336.9,118.3,340.9,120.5z"/>
<linearGradient id="SVGID_1_" gradientUnits="userSpaceOnUse" x1="599.35" y1="89.2616" x2="599.35" y2="617.08" gradientTransform="matrix(1 0 0 -1 -60.75 762.18)">
	<stop  offset="0" style="stop-color:#808080;stop-opacity:0.25"/>
	<stop  offset="0.54" style="stop-color:#808080;stop-opacity:0.12"/>
	<stop  offset="1" style="stop-color:#808080;stop-opacity:0.1"/>
</linearGradient>
<path class="st8" d="M1077.8,653.5L990.3,268h-32.5c-1.3-14.7-2.2-29-2.5-42.4c0,0-118,25.8-212.1-48.9s-204.8,6.4-204.8,6.4
	l-0.4-0.3v-0.1v0.2c-7.7-5.4-113.7-78.1-204.3-6.1c-94.1,74.7-212.1,48.9-212.1,48.9c-0.3,13.6-1.2,28-2.5,42.9H88.8L-0.7,654.9
	c0,0,363.7,13.6,491.2,1.1c4.6,9.7,24.3,16.9,47.9,16.9c26.5,0,48.1-9.2,48.8-20.6C686.4,659.8,899.8,671.9,1077.8,653.5z"/>
<path class="st9" d="M98.1,281.4L10.6,659.7c0,0,482.2,18.1,521-7.2c0,0,299.3,30.3,535,5.9L980.9,281L98.1,281.4z"/>
<path class="st7" d="M127.9,302.5L46.3,655.2c0,0,449.5,16.8,485.7-6.7c0,0,279.1,28.2,498.8,5.5l-80-351.9L127.9,302.5z"/>
<path class="st10" d="M946.5,229.4c0,0-115.6,25.3-207.7-47.9s-200.5,6.4-200.5,6.4s-108.4-79.5-200.5-6.3s-207.7,47.9-207.7,47.9
	c-3.6,147.2-72.2,385.6-72.2,385.6s126.4,34.3,293.5-35.2s186.9,24.2,186.9,24.2s19.9-93.9,186.9-24.4s293.5,35.2,293.5,35.2
	S950.1,376.6,946.5,229.4z"/>
<path class="st7" d="M315.3,658.9c0,0,152.6-34.3,223,16.3c0,0,67.7-61.4,224.8-13.5"/>
<ellipse class="st11" cx="538.3" cy="698.6" rx="47.9" ry="20.8"/>
<path class="st7" d="M537.9,187.4c0,0,34.3,174.3,0.9,419.9"/>
<path class="st12" d="M163.2,302.1c0,0,71.9,16.7,134.1,0s176.4-71.3,214,0"/>
<path class="st12" d="M163.2,332.8c0,0,71.9,16.7,134.1,0s196.9-15.8,214,0"/>
<path class="st12" d="M163.2,386.9c0,0,71.9,16.7,134.1,0s176.4-71.3,214,0"/>
<path class="st12" d="M163.2,417.6c0,0,71.9,16.7,134.1,0s196.9-15.8,214,0"/>
<path class="st12" d="M913.4,302.1c0,0-71.9,16.7-134.1,0s-176.4-71.3-214,0"/>
<path class="st12" d="M913.4,332.8c0,0-71.9,16.7-134.1,0s-196.9-15.8-214,0"/>
<path class="st12" d="M913.4,386.9c0,0-71.9,16.7-134.1,0s-176.4-71.3-214,0"/>
<path class="st12" d="M913.4,417.6c0,0-71.9,16.7-134.1,0s-196.9-15.8-214,0"/>
<path class="st1" d="M992.4,906.3c3-2.3,5.8-5,6.7-8.3c0.9-3.6-1.1-7.3-4.7-8.4c-4.3-1.3-8.9,1.1-12.4,3.5s-7.5,5.3-12.1,4.8
	c4.7-3.4,7-9,5.7-14c-0.2-1.1-0.8-2.1-1.6-2.8c-2.4-2.1-6.7-1.2-9.6,0.5c-9.1,5.2-11.7,15.3-11.7,24.4c-0.9-3.3-0.1-6.7-0.2-10.1
	s-1.2-7.1-4.6-8.9c-2.2-1-4.6-1.4-7.1-1.3c-4.1-0.1-8.7,0.2-11.5,2.7c-3.5,3-2.6,8.1,0.5,11.5s7.6,5.4,11.8,7.8
	c3.2,1.8,6.5,3.8,8.5,6.6c0.3,0.4,0.5,0.8,0.6,1.2h25.7C982.1,912.9,987.5,909.9,992.4,906.3z"/>
<path class="st13" d="M806,602.9c2.5,11.8,2.3,24-0.5,35.8c-0.5,2.2-1.2,4.4-2,6.5l2.3,92.7l0.3,10.5c2.1,0.4,4.2,0.8,6.4,0.9
	c2,0.2,4,0.2,6,0c2-0.3,3.8-0.8,4.7-2s1.1-3-0.2-5.7c-1.5-3-2-6.3-1.6-9.5c0.1-0.9,0.2-1.9,0.4-2.9c2-10.4,9.5-25.5,18.1-54.4
	c12.7-42.3-3.4-83.8-3.4-83.8v-38.9l-41.5-4.2c0,0,2,10.5,4.8,24.1C801.8,581.7,803.9,592.8,806,602.9z"/>
<path class="st7" d="M806,602.9c2.5,11.8,2.3,24-0.5,35.8c-0.5,2.2-1.2,4.4-2,6.5l2.3,92.7l0.3,10.5c2.1,0.4,4.2,0.8,6.4,0.9
	c2,0.2,4,0.2,6,0c2-0.3,3.8-0.8,4.7-2s1.1-3-0.2-5.7c-1.5-3-2-6.3-1.6-9.5c0.1-0.9,0.2-1.9,0.4-2.9c2-10.4,9.5-25.5,18.1-54.4
	c12.7-42.3-3.4-83.8-3.4-83.8v-38.9l-41.5-4.2c0,0,2,10.5,4.8,24.1C801.8,581.7,803.9,592.8,806,602.9z"/>
<path class="st13" d="M748.5,552.2c2.7,5.8,5,11.7,6.9,17.8c3.7,12.4,6.2,25.1,7.5,38l2.5,32.2c0,0,19.5,72.8,25.4,86.3
	c4.2,9.6,3.3,29.5,2.4,40.2c-0.4,4.3-0.7,7.2-0.7,7.2l8.6-10.6l11.3-13.9l5.2-6.3l1.1-1.4c-1.4-2.8-2.5-5.8-3.3-8.8l0,0
	c-2.6-9.3-4.3-18.8-5.2-28.3c-2.5-26.2-3.4-61.8-3.4-61.8l-1.3-4l-8-23.9l-1.8-42l-0.7-15.5L748.5,552.2z"/>
<path class="st7" d="M795,548c0,0,2,10.5,4.8,24.1c12.6-2.7,24.9-6.6,36.7-11.7v-8.2L795,548z"/>
<path class="st7" d="M748.5,552.2c2.7,5.8,5,11.7,6.9,17.8c11.8,5.3,26.4,5.2,40.3,2.8l-0.7-15.5L748.5,552.2z"/>
<path class="st7" d="M790.8,542.9c5.9,17.8,35.5-13.5,36.4-27.1c0.5-8.7,10.1-42.6,16.9-65.9c-1.9-6.6-4.8-12.9-8.4-18.6
	c-1.1-1.8-2.2-3.8-3.3-5.9c-3.2,7.9-16.1,40.2-15.3,49.9c0.8,11-5.1,27.1-5.1,27.1S784.9,525.1,790.8,542.9z"/>
<g>
	<path class="st13" d="M728.1,377l33.8,53.3l39.8,5.1c0,0,24.5-48.2,23.7-50.8s-13.5-7.6-25.4-16.9s2.5-48.2,2.5-48.2l-38.9,3.4
		c0.2,0.5,0.3,1,0.4,1.6c1.5,6.6,1,13.9-0.2,20.3c-1.1,5.5-2.6,10.9-4.5,16.2C757.8,366,728.1,377,728.1,377z"/>
	<circle class="st13" cx="780.2" cy="310.6" r="36"/>
	<g id="áo">
		<path class="st14" d="M843.1,387l6.7,111.3l-24,48.1c0,0-22.3-55.5-22.8-58.8s6.3-44.6,6.3-44.6l-17.9-73.5L843.1,387z"/>
		<path class="st14" d="M754.2,349.6c1.5,0.3,41,4.6,44.5,3.1s0,18.3,0,18.3l11.9,29.3l11.6,55.6l-4.4,52.4l-6.6,6.5l-27.8,5.8
			l-48.3-9.8l-3.8-94L754.2,349.6z"/>
		<g id="kimono">
			<path class="st15" d="M788.5,506.1c0,0,27.1,319-9.7,384.8c-31,4.2-126-15.4-126-15.4s56.5-377.2,70.6-375
				C735.8,502.6,788.5,506.1,788.5,506.1z"/>
			<path class="st7" d="M779.4,508c-11.2,1.6-4.4,344.1,6,382.6c29.1,0.1,113.3-16.5,113.3-16.5s-56.5-377.2-70.6-375
				C815.7,501.1,779.4,508,779.4,508z"/>
			<path class="st15" d="M778.8,508c0,0,12.2,370.2,11.1,383.8C819,891.9,898,874.2,898,874.2s-56.5-377.2-70.6-375
				C815.1,501.1,778.8,508,778.8,508z"/>
			<path class="st7" d="M721.8,503.4l15.6,7l68.4,0.8l22.8-11.5c0,0-3.2-8.6-6.7-15.2c-10.4,3.3-16.1,6.2-16.1,6.2l-56.4-1.1
				l-20.3-2.3C729,487.2,728.4,499.5,721.8,503.4z"/>
			<path class="st15" d="M721.3,503.4l20.2,6H804l24.6-9.7c0,0-2.9-8.2-6.7-15.2c-10.6,3.4-17.9,4.5-17.9,4.5l-56.4-1.1l-20.3-6.2
				C727.3,481.6,723.4,492.4,721.3,503.4z"/>
			<path class="st15" d="M756.7,509.1l-6.2-30.6c0,0,43.4-0.5,50.1,2.1c2.5,8.5,2.7,28.1,2.7,28.1S761.8,506.4,756.7,509.1z"/>
			<g>
				<polyline class="st7" points="801,487.1 777.9,506.4 802,509.5 803.4,489.3 				"/>
				<polyline class="st15" points="801,488.9 777.9,508.2 801,509.4 802.4,489.1 				"/>
			</g>
			<g>
				<polyline class="st7" points="754.1,486.2 777.1,505.5 754.1,508.6 752.6,488.4 				"/>
				<polyline class="st15" points="752.6,488.2 754.1,508.4 777.1,507.3 754.1,488 				"/>
			</g>
			<path class="st13" d="M714.2,383.7c0,0-11,2.5,0,59.2l6.8,61.8c0,0,15.2,88.8,14.4,99c-0.8,10.2,33,36.4,35.5,22
				c2.5-14.4-16.9-38.1-16.9-38.1s-8.5-18.6-8.5-53.3l-1.7-27.9L732,405.7L714.2,383.7z"/>
		</g>
		<g id="Layer_5">
			<polygon class="st16" points="707.7,429.2 743.5,487.1 746.3,487.4 747.6,487.8 731.4,404.8 			"/>
		</g>
		<path class="st14" d="M754.5,349.6l-3.7,12.2c0,0-37.1,18.2-40.6,19.9c-3.5,1.7-21.4,221.3-19,224.6c14.2-3.7,67.6-24.3,72-23
			c0-7.7-32.9-181.2-32.9-181.2l3.8,10.7l31-22L754.5,349.6z"/>
	</g>
	<g id="Layer_3">
		<path class="st17" d="M732.2,282.1c0,0,50.9-53.5,88.4-16.6c18.2,43.6,1.8,73.5,1.8,73.5l-15.8,30.5c0,0,12.4,88.6,29,111.1
			s16.6,22.5,16.6,22.5c-37.8,2.2-77.6-9.3-77.6-9.3l16.8-124.3C791.4,369.5,734.5,309.4,732.2,282.1z"/>
		<polygon class="st1" points="791.4,369.5 806.6,369.5 802.4,365.7 		"/>
	</g>
</g>
</svg>
