<?xml version="1.0" encoding="utf-8"?>
<!-- Generator: Adobe Illustrator 19.2.1, SVG Export Plug-In . SVG Version: 6.00 Build 0)  -->
<svg version="1.1" id="Layer_1" xmlns="http://www.w3.org/2000/svg" xmlns:xlink="http://www.w3.org/1999/xlink" x="0px" y="0px"
	 viewBox="0 0 900 900" style="enable-background:new 0 0 900 900;" xml:space="preserve">
<style type="text/css">
	.st0{opacity:0.1;fill:#BD302E;enable-background:new    ;}
	.st1{fill:#403E56;}
	.st2{fill:#F9B7B9;}
	.st3{opacity:0.1;fill:#010101;enable-background:new    ;}
	.st4{fill:#FFFFFF;}
	.st5{fill:#F3787A;}
	.st6{fill:#BD302E;}
	.st7{fill:url(#SVGID_1_);}
	.st8{opacity:0.5;fill:#010101;enable-background:new    ;}
	.st9{opacity:0.5;fill:#FFFFFF;enable-background:new    ;}
	.st10{fill:#454154;}
	.st11{opacity:0.5;}
	.st12{fill:#010101;}
	.st13{fill:#5E1818;}
	.st14{fill:#9A2A29;}
	.st15{fill:#F9BEBF;}
	.st16{opacity:0.5;fill:#5E1818;enable-background:new    ;}
</style>
<g id="_x36_0679b35-6ea9-4c6b-a942-6ba01155579b">
	<title>heartbroken</title>
	<ellipse class="st0" cx="719.6" cy="866.1" rx="165.8" ry="24.9"/>
	<path class="st1" d="M679.2,651.6c-1.7,1.7-12.8,66.5-10.7,72.1c2.2,5.9,5.8,11.7,11.6,14c4.1,1.6,8.7,1.2,13.1,2
		c6.4,1.2,12.4,5.2,18.9,5.1c6.3-0.1,11.9-4.1,16.8-8.3c4.9-4.2,9.5-8.9,15.6-10.8c4.8-1.5,10-1.3,14.9-2.1
		c4.9-0.8-9.4-69.6-14.9-78.8c-3.9-1.1-15.3-5-19.3-4.7c-8.1,0.2-7.9-0.7-15.8,0.6C703.7,641.6,682.9,647.9,679.2,651.6z"/>
	<rect x="689.6" y="678" class="st1" width="49.8" height="40.5"/>
	<rect x="689.6" y="663.7" class="st1" width="46.4" height="54.8"/>
	<path class="st2" d="M699.8,687.2c0,0,9.3,16.9-5.7,17.9c-15,1-2.5,30.6-2.5,30.6s18.4,12.2,18.8,12.2s15.2,0.2,15.6-0.2
		c0.4-0.3,11.8-14.5,11.8-14.5l1.6-16.4l-4.1-13c0,0-15.8,6.7-11.4-18.1L699.8,687.2z"/>
	<path class="st3" d="M747.3,814.3l-2.4,3.3c-5.5-0.3-15.3-1.4-15.3-1.4s-4.8,2.9-7.3,1.9s-34.5-0.6-38.4-3c-3-2-11.1-1.3-15.4-2.1
		l2.8-5l40.5-4.8L747.3,814.3z"/>
	<circle class="st3" cx="712.1" cy="670.3" r="25.1"/>
	<circle class="st2" cx="712.1" cy="669.8" r="25.1"/>
	<path class="st3" d="M667.3,771.4c-1.5,1.1,1.4-1.9,1.4-1.9l-5.9,0.9c0,0,1.1-14.3,0.9-23.5c7.8,6.1,13.7,23.5,13.7,23.5
		C679.9,777.3,669.2,769.1,667.3,771.4z"/>
	<path class="st3" d="M740.1,792.7c-0.1,2.8,5.4,9.3,8.3,12.6c-1.1,2.8-2.6,5.4-4.2,8l-0.1,0.1l-2.1,2.8c-1.3,1.8-2.7,3.8-4,5.5
		c-1.8,2.6-3.3,4.6-3.3,4.6s-11,29-13.9,21.5c-1.1-2.6-1.5-5.4-1.4-8.2c0.2-5.8,2.4-12.6,6.9-21c0.5-0.9,0.9-1.7,1.4-2.6
		c1.3-2.6,2.4-4.9,3.4-6.9c1.7-3.6,3.3-7.2,4.6-11C735.8,798.1,740.2,789.1,740.1,792.7z"/>
	<path class="st3" d="M714.6,790.2c0,0,23.8-4.5,24.1-3C739.1,788.6,714.6,790.2,714.6,790.2z"/>
	<path class="st3" d="M722.2,793.9c0,0,14.4-2.9,14.5-1.6C736.7,793.6,722.2,793.9,722.2,793.9z"/>
	<path class="st3" d="M674.7,806c0,0,28.1,5,32.6,5.9c4.5,1,19.8,0,19.8,0s-19.7-0.2-21.9-1.9C703,808.5,674.7,806,674.7,806z"/>
	<path class="st3" d="M715,822.1c0,0,9.8-1.1,8.9,0C723.1,823.2,715,822.1,715,822.1z"/>
	<path class="st3" d="M710.6,837.4c0,0,8.4-7.5,8.4-6.4C718.9,832,710.6,837.4,710.6,837.4z"/>
	<path class="st3" d="M765.4,725.4l-17.1,7.8c0-0.6,1.1-1.1,1.1-1.6c-1.5-14.8,16.1-10.6,16.1-10.6
		C765.7,722.5,765.7,724,765.4,725.4z"/>
	<path class="st1" d="M688.6,648.7c-0.8,1.7-1.3,3.5-1.5,5.4c-0.2,1.9,0.7,3.7,2.4,4.7c0.8,0.4,1.6,0.7,2.5,0.7
		c4.3,0.4,40.6,1,43.6,1.5s6.3,7.1,8.2,4.9c1.7-1.9,2.1-4.6,2-7.2c-0.3-6.9-3.3-13.4-8.5-18.1c-5.1-4.6-11.5-7.6-18.2-8.7
		c-5.4-1.1-11.1,0-15.5,3.1c-4.5,2.8-8.4,6.3-11.5,10.6c-0.9,1.3-1.9,2.6-3,3.7c-1.1,1.1-2.7,1.7-4.3,1.6"/>
	<circle class="st4" cx="677.3" cy="860.1" r="0.6"/>
	<circle class="st4" cx="673.7" cy="876.2" r="0.6"/>
	<circle class="st4" cx="752.4" cy="857.9" r="0.6"/>
	<path class="st3" d="M747.3,859.1c0,0,7.2,8.6,1.5,16.7"/>
	<path class="st3" d="M685.8,860.7c0,0-5.1,6.4-1.1,11.8"/>
	<path class="st3" d="M705.3,724.5c0,0,8.9,7,7.8,10.2C713.1,734.7,711.5,730.1,705.3,724.5z"/>
	<path class="st3" d="M722.8,724.5c0,0-8.9,7-7.7,10.2C715,734.7,716.5,730.1,722.8,724.5z"/>
	<path class="st5" d="M744.8,760.4"/>
	<path class="st3" d="M718.2,757.7c0,0,3.8,6.2,6.3,6.2C724.5,763.9,718.6,759.2,718.2,757.7z"/>
	<path class="st6" d="M653.4,362.5c0-0.7-0.1-1.2-0.1-1.9c0-0.8-0.1-1.7-0.1-2.5c-0.1-0.8-0.1-1.7-0.2-2.5c-0.2-2.4-0.4-4.9-0.6-7.3
		c-0.1-1.1-0.2-2.3-0.4-3.3c-0.1-0.8-0.2-1.6-0.3-2.4c0-0.2-0.1-0.5-0.1-0.7c-0.1-0.7-0.2-1.4-0.3-2.1c0-0.2-0.1-0.3-0.1-0.6
		c-0.1-0.7-0.2-1.5-0.3-2.2c-0.2-1.1-0.4-2.3-0.6-3.4c-0.2-0.7-0.2-1.5-0.4-2.2c-0.2-1.1-0.5-2.3-0.7-3.4l-0.2-1.2
		c-0.2-0.7-0.3-1.3-0.4-2v-0.2c-0.2-0.9-0.5-1.9-0.7-2.8c-0.2-1-0.5-2-0.7-2.9c-0.2-0.7-0.4-1.4-0.6-2.1c-0.1-0.4-0.2-0.8-0.3-1.2
		c-0.5-1.6-1-3.3-1.5-4.9c-0.2-0.5-0.2-0.8-0.4-1.4c-0.2-0.6-0.3-1.1-0.6-1.6c-0.2-0.7-0.5-1.5-0.7-2.2c-0.2-0.5-0.3-0.9-0.5-1.5
		c-0.2-0.6-0.4-1.1-0.6-1.6c-0.9-2.4-1.8-4.7-2.8-7.1c-0.2-0.7-0.6-1.3-0.8-2c-0.4-1.1-0.9-2-1.4-3.1c-0.3-0.8-0.7-1.5-1.1-2.4
		l-0.1-0.2c-0.2-0.6-0.6-1.1-0.8-1.8c-0.2-0.4-0.4-0.9-0.6-1.3c-1.3-2.7-2.6-5.3-4.1-7.9c-0.4-0.8-0.8-1.5-1.4-2.4
		c-0.5-0.9-1-1.8-1.5-2.6c-0.6-0.8-1.1-1.7-1.5-2.6s-1.1-1.7-1.6-2.6c-1.1-1.7-2.2-3.4-3.3-5.1c-0.6-0.8-1.1-1.7-1.8-2.5
		c-0.5-0.7-1-1.4-1.5-2.1c-0.7-0.9-1.2-1.7-1.9-2.6c-0.6-0.7-1.1-1.5-1.6-2.1c-0.3-0.5-0.7-0.8-1-1.3c-0.1-0.1-0.2-0.2-0.2-0.2
		c-0.3-0.4-0.6-0.7-0.9-1.1s-0.6-0.7-0.9-1.1c-0.4-0.6-0.9-1.1-1.4-1.6c-1.9-2.2-3.7-4.5-5.8-6.6l-1-1.1c-0.9-1-1.8-1.9-2.7-2.8
		c-0.4-0.3-0.7-0.8-1.1-1.1c-0.6-0.6-1.1-1.1-1.7-1.7c-1.4-1.4-2.8-2.8-4.3-4.1l-0.5-0.5l-0.2-0.2c-0.4-0.4-0.9-0.8-1.3-1.2
		c-1.1-1-2.2-2-3.3-2.9c-0.7-0.6-1.3-1.1-2-1.7l-1.3-1.1l-1.3-1.1c-1.1-0.9-2.2-1.8-3.3-2.7l-0.7-0.5l-1.1-0.9
		c-0.7-0.6-1.5-1.1-2.2-1.6c-0.5-0.4-1.1-0.7-1.5-1.1h-0.1c-2.8-2-5.7-4-8.6-5.9c-0.2-0.2-0.3-0.2-0.6-0.3l-1.5-1
		c-1.2-0.7-2.5-1.5-3.7-2.3c-0.7-0.4-1.5-0.8-2.1-1.2l-1.3-0.7c-3.8-2.1-7.6-4.1-11.5-6c-0.6-0.2-1.1-0.5-1.6-0.7
		c-4.6-2.1-9.2-4.1-13.8-5.8c-0.5-0.2-1.1-0.4-1.5-0.6c-1.7-0.7-3.3-1.2-5-1.7l-3-1l-2.3-0.7h-0.1c-1.1-0.3-2.2-0.7-3.3-0.9
		l-2.8-0.7l-1.3-0.3l-0.6-0.2l-3.1-0.5c-0.3-0.1-0.7-0.2-1.1-0.2c-0.4-0.1-1-0.2-1.5-0.3c-0.7-0.2-1.5-0.3-2.2-0.5
		c-0.6-0.1-1.1-0.2-1.7-0.3c-1-0.2-2-0.4-3-0.6c-0.9-0.2-1.7-0.3-2.6-0.4c-0.9-0.1-1.8-0.3-2.7-0.4l-1.6-0.2
		c-0.7-0.1-1.5-0.2-2.2-0.3l-1.1-0.2c-0.7-0.1-1.5-0.2-2.3-0.2c-0.2,0-0.4-0.1-0.6-0.1c-0.9-0.1-1.7-0.2-2.6-0.2l-1.5-0.2
		c-0.7-0.1-1.4-0.2-2-0.2l-2-0.2c-0.7-0.1-1.3-0.1-2-0.2c-0.7-0.1-1.5-0.1-2.3-0.1l-1.8-0.1c-0.6,0-1.4,0-2.1,0H465
		c-3.6,0-7.2,0.1-10.8,0.2c-1.8,0.1-3.5,0.2-5.2,0.3c-2.6,0.2-5.2,0.5-7.8,0.7l-2.6,0.3c-1.7,0.2-3.5,0.5-5.2,0.7l-2.4,0.4
		c-1.5,0.2-3.1,0.6-4.6,0.8c-1.5,0.3-3.1,0.7-4.6,1c-1.5,0.3-3,0.7-4.6,1.1l-2.3,0.6c-1.5,0.4-3,0.8-4.6,1.2l-2.3,0.7
		c-0.7,0.2-1.5,0.5-2.3,0.7l-2.2,0.7l-2.3,0.7c-1.5,0.5-2.9,1.1-4.4,1.5H397l-2.1,0.8c-0.7,0.2-1.5,0.5-2.2,0.8l-2,0.8
		c-0.8,0.3-1.6,0.7-2.4,1c-0.7,0.3-1.5,0.7-2.2,1l-2.2,1c-0.7,0.3-1.5,0.7-2.1,1c-0.7,0.3-1.5,0.7-2.1,1.1l-1.3,0.7l-1.3,0.7
		c-2,1-3.9,2-5.9,3.1c-0.7,0.3-1.4,0.8-2,1.1c-1.2,0.7-2.4,1.4-3.6,2.1c-0.4,0.2-0.8,0.5-1.1,0.7c-1.9,1.1-3.8,2.4-5.7,3.6l-1.7,1.1
		l-1.8,1.2c-0.6,0.4-1.2,0.9-1.9,1.3L352,214c-0.3,0.2-0.6,0.5-1,0.7c-0.6,0.4-1.2,0.9-1.8,1.3c-1.7,1.2-3.3,2.5-5,3.9
		c-0.6,0.5-1.1,0.9-1.7,1.4l-1.8,1.5c-0.6,0.5-1.3,1.1-2,1.6c-0.5,0.4-1.1,0.9-1.5,1.4c-0.6,0.6-1.3,1.1-2,1.8
		c-0.5,0.4-0.9,0.8-1.5,1.4c-0.6,0.6-1.1,1.1-1.7,1.6c-1.1,1.1-2.1,2-3.2,3.1c-0.6,0.6-1.2,1.2-1.8,1.8l-0.4-0.3
		c-1.7-1.5-3.5-2.9-5.3-4.3l-1.1-0.8c-1.1-0.9-2.3-1.8-3.4-2.6l-1.9-1.3c-6.6-4.7-13.5-9-20.6-12.9l-0.2-0.2l-1.8-0.9l-1.2-0.7
		c-0.9-0.5-1.9-1-2.8-1.4c-0.6-0.3-1.4-0.7-2-1c-0.9-0.5-1.8-0.8-2.7-1.3l-2.5-1.1c-1-0.4-2-0.8-2.9-1.2l-2.4-1.1l-0.8-0.3
		c-0.8-0.3-1.6-0.7-2.4-1s-1.7-0.7-2.5-1L270,202c-0.8-0.3-1.7-0.7-2.5-0.9c-3-1.1-5.9-2-8.9-2.9c-1.7-0.5-3.5-1-5.2-1.5
		c-0.9-0.2-1.8-0.5-2.7-0.7l-1.6-0.4l-1.7-0.4l-2-0.4c-2.1-0.5-4.2-0.9-6.4-1.3c-1-0.2-1.9-0.3-2.8-0.5c-1-0.2-1.9-0.3-2.8-0.5
		c-2-0.3-4-0.6-6-0.8c-1.7-0.2-3.4-0.4-5.1-0.6c-0.4-0.1-0.7-0.1-1.1-0.1c-1.5-0.2-3-0.2-4.5-0.3l-1.5-0.1c-1.6-0.1-3.3-0.2-4.9-0.2
		c-1-0.1-2-0.1-2.9-0.1h-6.2c-0.9,0-1.8,0.1-2.8,0.1l-1.3,0.1c-1,0-1.8,0.1-2.8,0.2c-1,0.1-2,0.1-3,0.2H191l-2.8,0.2l-0.8,0.1
		l-2.4,0.2l-0.8,0.1l-2.8,0.3h-0.2c-1,0.1-2,0.2-2.9,0.4l-0.7,0.1c-0.8,0.1-1.6,0.2-2.4,0.3l-0.5,0.1c-1,0.2-2,0.3-3,0.5l-0.7,0.1
		c-0.9,0.2-1.9,0.3-2.8,0.5h0.3c-1,0.2-2,0.4-2.8,0.6c-2.5,0.5-5,1.1-7.5,1.7l-2,0.5l-0.7,0.2c-0.7,0.2-1.5,0.4-2.3,0.7
		c-0.2,0.1-0.5,0.2-0.7,0.2c-0.9,0.2-1.8,0.6-2.7,0.8l-0.7,0.2c-0.8,0.3-1.6,0.6-2.4,0.8c-0.3,0.1-0.7,0.2-1.1,0.3
		c-0.7,0.2-1.3,0.4-2,0.7l-0.2,0.1c-1,0.3-1.9,0.7-2.8,1l-2.8,1.1l-1.6,0.7l-0.1,0.1c-0.7,0.2-1.5,0.5-2.2,0.8l-2.6,1.1
		c-0.8,0.3-1.5,0.7-2.3,1l-1.7,0.7c-2.5,1.1-5,2.3-7.6,3.6l-1.5,0.8l-2,1.1c-1.6,0.9-3.3,1.8-5,2.7l-1.3,0.7
		c-0.7,0.4-1.5,0.9-2.2,1.3c-0.3,0.2-0.7,0.4-1,0.6c-0.7,0.4-1.4,0.8-2,1.2l-0.9,0.6c-0.4,0.2-0.7,0.5-1.1,0.7l-1.5,1l-2.1,1.5
		l-2.1,1.5l-1.4,1c-1.4,1-2.8,2-4.1,3l-1.3,1c-0.6,0.4-1.1,0.8-1.7,1.3c-0.2,0.2-0.6,0.4-0.8,0.7c-1.5,1.1-2.9,2.4-4.4,3.6
		c-0.3,0.2-0.6,0.5-0.9,0.7l-1.6,1.5l-1.2,1.1c-0.7,0.6-1.4,1.2-2,1.8l-1.4,1.2l-0.8,0.8l-1.4,1.3l-0.7,0.7
		c-0.6,0.6-1.1,1.1-1.6,1.6c-0.1,0.1-0.2,0.2-0.3,0.3c-0.6,0.6-1.2,1.2-1.8,1.8c-1.5,1.6-3.1,3.3-4.6,4.9c-0.7,0.8-1.4,1.5-2.1,2.4
		c-1.1,1.2-2.2,2.5-3.3,3.8c-0.4,0.6-0.9,1.1-1.3,1.6c-0.4,0.6-0.9,1.1-1.3,1.6c-1.7,2.2-3.4,4.3-5,6.6l-1.1,1.5
		c-0.4,0.5-0.8,1.1-1.2,1.6c-2.3,3.3-4.4,6.5-6.4,9.8c-0.4,0.7-0.8,1.3-1.2,2s-0.8,1.3-1.2,2s-0.8,1.3-1.1,2
		c-2.4,4.3-4.7,8.8-6.7,13.3c-1.1,2.4-2.2,4.8-3.3,7.3c-0.2,0.5-0.4,1-0.6,1.5c-0.3,0.7-0.6,1.3-0.8,2c-0.2,0.3-0.2,0.6-0.3,0.9
		c-0.2,0.6-0.4,1.1-0.7,1.6c-0.4,1.1-0.8,2.2-1.2,3.3c-0.3,1-0.7,2-1,2.9c-0.1,0.2-0.2,0.4-0.2,0.6c-0.3,0.7-0.6,1.5-0.8,2.4v0.1
		c-0.2,0.5-0.3,0.9-0.4,1.4c-0.3,0.8-0.5,1.6-0.8,2.5c-0.3,0.9-0.6,1.9-0.8,2.7s-0.5,1.8-0.7,2.7c-0.1,0.3-0.2,0.8-0.3,1.1
		c-0.3,1.1-0.6,2.1-0.8,3.2c-0.2,0.5-0.2,1-0.3,1.5c-0.1,0.5-0.2,1-0.3,1.5c-0.2,1.1-0.5,2.1-0.7,3.2c-0.2,0.7-0.2,1.3-0.4,2
		c-0.3,1.5-0.6,2.9-0.8,4.3s-0.5,2.8-0.7,4.1c-0.2,1.1-0.3,2.2-0.5,3.3c-0.1,0.2-0.1,0.2-0.1,0.4c-0.2,1.1-0.2,2.2-0.4,3.3
		c-0.2,1.1-0.2,2.4-0.3,3.5s-0.2,2.3-0.3,3.3v0.2c-0.1,1.1-0.2,2.4-0.2,3.5s-0.2,2.3-0.2,3.4v0.2c0,1.1-0.1,2.2-0.1,3.3v3.5
		c0,1.8,0,3.5,0.1,5.3c0,0.7,0.1,1.4,0.1,2c0.1,3.3,0.3,6.4,0.7,9.7c0.1,0.6,0.1,1.2,0.2,1.9c0.1,0.7,0.2,1.2,0.2,1.9
		c0.2,1.1,0.2,2.4,0.4,3.5c0.1,0.1,0.1,0.2,0.1,0.3c0.1,0.6,0.2,1.2,0.2,1.8c0.2,1.2,0.3,2.5,0.6,3.7c0.1,0.5,0.2,1.1,0.2,1.5
		c0.2,0.9,0.3,1.7,0.5,2.6c0.1,0.5,0.2,1,0.2,1.5l0.4,1.9c0.1,0.6,0.2,1.1,0.3,1.6l0.1,0.3c0.2,1.2,0.6,2.4,0.8,3.6l0.4,1.9
		c0.3,1.2,0.7,2.4,1,3.7l0.5,1.9c0.3,1.2,0.7,2.4,1.1,3.7c0.7,2.2,1.3,4.3,2,6.5c0.2,0.4,0.3,0.9,0.4,1.3c0,0.1,0.1,0.2,0.1,0.2
		c0.3,0.9,0.7,1.9,1,2.8c0.2,0.6,0.4,1.2,0.7,1.9c0.1,0.2,0.2,0.4,0.2,0.6c0.1,0.2,0.2,0.4,0.2,0.6l0.1,0.2l0.1,0.2
		c0,0.1,0.1,0.1,0.1,0.2l0.1,0.2c0.1,0.2,0.2,0.6,0.3,0.8c0.2,0.7,0.6,1.5,0.9,2.2c0.1,0.3,0.2,0.6,0.3,0.9c0.2,0.4,0.3,0.9,0.6,1.3
		c0.2,0.6,0.5,1.1,0.7,1.8c0.1,0.2,0.2,0.4,0.2,0.6l0.3,0.6l0.7,1.6c0.1,0.2,0.2,0.4,0.3,0.6c0.2,0.4,0.3,0.7,0.5,1.1
		c0,0.1,0.1,0.2,0.1,0.2l0.7,1.4l0.2,0.3l0.1,0.2c0,0.1,0.1,0.2,0.1,0.2c0.1,0.2,0.2,0.4,0.3,0.7c0.2,0.2,0.2,0.6,0.4,0.8
		c0.2,0.4,0.4,0.8,0.6,1.2l0.8,1.6c0.3,0.7,0.7,1.4,1.1,2c0.2,0.5,0.6,1,0.8,1.5l0.1,0.1c0.3,0.5,0.6,1.1,0.9,1.6
		c0.1,0.1,0.1,0.2,0.2,0.3l0.2,0.5l0.3,0.6l0.2,0.5c0.2,0.2,0.3,0.5,0.4,0.7l1,1.7l0.3,0.6c0.3,0.6,0.7,1.1,1.1,1.7
		c0.5,0.7,0.9,1.5,1.4,2.3c0.1,0.2,0.2,0.2,0.2,0.4l0.2,0.2c0.5,0.7,1,1.5,1.5,2.3l0.1,0.2c0.5,0.7,0.9,1.4,1.4,2.1l0.8,1.1
		c0.4,0.6,0.7,1.1,1.1,1.6l0.3,0.5l0.2,0.3l0.5,0.7l0.4,0.6l0.2,0.3l0.5,0.6l0.2,0.4l0.2,0.3c0.4,0.6,0.9,1.2,1.4,1.8
		c0.1,0.1,0.1,0.2,0.2,0.2c0.2,0.3,0.4,0.5,0.7,0.9c0.2,0.4,0.7,0.8,0.9,1.1c0.2,0.3,0.5,0.6,0.7,0.9c0.4,0.6,0.8,1.1,1.3,1.6
		l0.2,0.3c0.5,0.7,1.1,1.3,1.5,1.9l0.2,0.3c0.4,0.4,0.7,0.9,1.1,1.3c0.6,0.7,1.1,1.3,1.7,2l1,1.1c0.2,0.2,0.4,0.4,0.6,0.7
		c0.3,0.4,0.7,0.7,1.1,1.1l0.7,0.7c0.4,0.5,0.8,0.9,1.2,1.3l1.2,1.2c0.9,1,1.9,2,2.8,2.8l0.1,0.1c0.3,0.3,0.6,0.7,0.9,0.9l0.6,0.6
		l0.8,0.7c0.6,0.6,1.1,1.1,1.7,1.6l0.2,0.2l0.1,0.1l1,0.9l0.4,0.4l0.3,0.3c0.5,0.5,0.9,0.9,1.4,1.3c0.7,0.7,1.4,1.2,2.1,1.9l0.2,0.2
		l0.4,0.3c0.7,0.6,1.4,1.2,2,1.8l39.7,33.5l14,11.8l4.6,3.9l1.4,1.2l2.8,2.3l7.6,6.4l11.8,9.9l0.5,0.4l3,2.5l19,16l6.8,5.8l5,4.2
		l1.8,1.5l10.1,8.5l9,7.7l7.2,6.1l0.2,0.2l2.3,1.9l17.4,14.6l10.2,8.6l2,1.6l4.3,3.6l11.9,10l23.6,19.9l6,5l6.2,5.3l1.6,1.4l9.9,8.3
		l7.6,6.3l11.2,9.4l22.6,19l5.4,4.6l1.9,1.5l2,1.7l0.2,0.2l0.9-1l20.2-24.1l22.4-26.7l58.1-69l8.5-10l66.1-78.4l48.1-57.1l20.5-24.3
		l-0.4-0.3c1.2-1.7,2.4-3.4,3.6-5.1c0.6-0.8,1.1-1.7,1.7-2.5c0.2-0.4,0.5-0.8,0.7-1.1c0.3-0.6,0.7-1.1,1.1-1.6
		c0.5-0.7,1-1.5,1.4-2.3c0.3-0.6,0.7-1.1,1-1.6c0.6-1,1.2-2,1.8-3l0.2-0.4c0.2-0.5,0.6-1,0.8-1.5c0.2-0.2,0.3-0.6,0.5-0.8
		c0.8-1.5,1.6-2.9,2.4-4.4c0.3-0.7,0.7-1.4,1.1-2c0.8-1.5,1.5-3.2,2.3-4.8c0.3-0.7,0.7-1.4,1-2.1c0.4-0.9,0.8-1.8,1.2-2.7
		c0.2-0.7,0.5-1.2,0.8-1.9c0.3-0.6,0.6-1.4,0.9-2.1c0.7-1.5,1.2-3.1,1.8-4.6c0.2-0.6,0.5-1.2,0.6-1.7c0.2-0.5,0.4-1,0.6-1.5
		c0.2-0.8,0.5-1.5,0.8-2.4c0.3-0.9,0.6-1.9,0.9-2.7c0.3-0.8,0.6-1.6,0.8-2.4c0.2-0.5,0.3-1,0.4-1.4c0.3-1.2,0.7-2.4,1.1-3.6
		c0.2-0.5,0.2-1,0.4-1.5c0.2-0.7,0.4-1.4,0.6-2c0.3-1.1,0.6-2.4,0.9-3.6c0.2-0.7,0.3-1.4,0.5-2.1c0.1-0.5,0.2-1,0.3-1.5
		c0.5-2.1,0.9-4.3,1.3-6.5c0.1-0.5,0.2-1,0.2-1.5c0.1-0.6,0.2-1.3,0.3-2c0.1-0.5,0.2-0.9,0.2-1.4c0.2-1.1,0.3-2,0.4-3.1
		s0.3-2.2,0.4-3.3v-0.3c0.1-0.4,0.1-0.8,0.2-1.3s0.1-1.1,0.2-1.5c0-0.2,0.1-0.6,0.1-0.8c0-0.3,0.1-0.8,0.2-1.6
		c0.2-2.9,0.4-5.8,0.6-8.7c0.1-0.6,0-1.1,0.1-1.7c0.1-0.7,0.1-1.4,0.1-2v-1.6C653.5,368,653.5,365.2,653.4,362.5z"/>
	
		<linearGradient id="SVGID_1_" gradientUnits="userSpaceOnUse" x1="398.6055" y1="804.0876" x2="398.6055" y2="211.677" gradientTransform="matrix(1 0 0 1 -64.27 -33.49)">
		<stop  offset="0" style="stop-color:#010101;stop-opacity:0.1"/>
		<stop  offset="0.47" style="stop-color:#010101;stop-opacity:0.3"/>
		<stop  offset="1" style="stop-color:#010101;stop-opacity:0.5"/>
	</linearGradient>
	<path class="st7" d="M653.4,362.5c0-0.7-0.1-1.2-0.1-1.9c0-0.8-0.1-1.7-0.1-2.5c-0.1-0.8-0.1-1.7-0.2-2.5c-0.2-2.4-0.4-4.9-0.6-7.3
		c-0.1-1.1-0.2-2.3-0.4-3.3c-0.1-0.8-0.2-1.6-0.3-2.4c0-0.2-0.1-0.5-0.1-0.7c-0.1-0.7-0.2-1.4-0.3-2.1c0-0.2-0.1-0.3-0.1-0.6
		c-0.1-0.7-0.2-1.5-0.3-2.2c-0.2-1.1-0.4-2.3-0.6-3.4c-0.2-0.7-0.2-1.5-0.4-2.2c-0.2-1.1-0.5-2.3-0.7-3.4l-0.2-1.2
		c-0.2-0.7-0.3-1.3-0.4-2v-0.2c-0.2-0.9-0.5-1.9-0.7-2.8c-0.2-1-0.5-2-0.7-2.9c-0.2-0.7-0.4-1.4-0.6-2.1c-0.1-0.4-0.2-0.8-0.3-1.2
		c-0.5-1.6-1-3.3-1.5-4.9c-0.2-0.5-0.2-0.8-0.4-1.4c-0.2-0.6-0.3-1.1-0.6-1.6c-0.2-0.7-0.5-1.5-0.7-2.2c-0.2-0.5-0.3-0.9-0.5-1.5
		c-0.2-0.6-0.4-1.1-0.6-1.6c-0.9-2.4-1.8-4.7-2.8-7.1c-0.2-0.7-0.6-1.3-0.8-2c-0.4-1.1-0.9-2-1.4-3.1c-0.3-0.8-0.7-1.5-1.1-2.4
		l-0.1-0.2c-0.2-0.6-0.6-1.1-0.8-1.8c-0.2-0.4-0.4-0.9-0.6-1.3c-1.3-2.7-2.6-5.3-4.1-7.9c-0.4-0.8-0.8-1.5-1.4-2.4
		c-0.5-0.9-1-1.8-1.5-2.6c-0.6-0.8-1.1-1.7-1.5-2.6s-1.1-1.7-1.6-2.6c-1.1-1.7-2.2-3.4-3.3-5.1c-0.6-0.8-1.1-1.7-1.8-2.5
		c-0.5-0.7-1-1.4-1.5-2.1c-0.7-0.9-1.2-1.7-1.9-2.6c-0.6-0.7-1.1-1.5-1.6-2.1c-0.3-0.5-0.7-0.8-1-1.3c-0.1-0.1-0.2-0.2-0.2-0.2
		c-0.3-0.4-0.6-0.7-0.9-1.1s-0.6-0.7-0.9-1.1c-0.4-0.6-0.9-1.1-1.4-1.6c-1.9-2.2-3.7-4.5-5.8-6.6l-1-1.1c-0.9-1-1.8-1.9-2.7-2.8
		c-0.4-0.3-0.7-0.8-1.1-1.1c-0.6-0.6-1.1-1.1-1.7-1.7c-1.4-1.4-2.8-2.8-4.3-4.1l-0.5-0.5l-0.2-0.2c-0.4-0.4-0.9-0.8-1.3-1.2
		c-1.1-1-2.2-2-3.3-2.9c-0.7-0.6-1.3-1.1-2-1.7l-1.3-1.1l-1.2-1.1c-1.1-0.9-2.2-1.8-3.3-2.7l-0.6-0.5l-1.1-0.9
		c-0.7-0.6-1.5-1.1-2.2-1.6c-0.5-0.4-1.1-0.7-1.5-1.1h-0.1c-2.8-2-5.7-4-8.6-5.9c-0.2-0.2-0.3-0.2-0.6-0.3l-1.5-1
		c-1.2-0.7-2.5-1.5-3.7-2.3c-0.7-0.4-1.5-0.8-2.1-1.2l-1.3-0.7c-3.8-2.1-7.6-4.1-11.5-6c-0.6-0.2-1.1-0.5-1.6-0.7
		c-4.6-2.1-9.2-4.1-13.8-5.8c-0.5-0.2-1.1-0.4-1.5-0.6c-1.7-0.7-3.3-1.2-5-1.7l-0.8-0.2c-0.7-0.2-1.5-0.5-2.3-0.7l-2.3-0.7h-0.1
		c-1.1-0.3-2.2-0.7-3.3-0.9l-2.8-0.7l-1.3-0.3l-0.6-0.2l-3.1-0.5c-0.3-0.1-0.7-0.2-1.1-0.2c-0.4-0.1-1-0.2-1.5-0.3
		c-0.7-0.2-1.5-0.3-2.2-0.5c-0.6-0.1-1.1-0.2-1.7-0.3c-1-0.2-2-0.4-3-0.6c-0.9-0.2-1.7-0.3-2.6-0.4c-0.9-0.1-1.8-0.3-2.7-0.4
		l-1.6-0.2c-0.7-0.1-1.5-0.2-2.2-0.3l-1.1-0.2c-0.7-0.1-1.5-0.2-2.3-0.2c-0.2,0-0.4-0.1-0.6-0.1c-0.9-0.1-1.7-0.2-2.6-0.2l-1.5-0.2
		c-0.7-0.1-1.4-0.2-2-0.2l-2-0.2c-0.7-0.1-1.3-0.1-2-0.2c-0.7-0.1-1.5-0.1-2.3-0.1l-1.8-0.1c-0.6,0-1.4,0-2.1,0H465
		c-3.6,0-7.2,0.1-10.8,0.2c-1.8,0.1-3.5,0.2-5.2,0.3c-2.6,0.2-5.2,0.4-7.8,0.7l-2.6,0.3c-1.7,0.2-3.5,0.5-5.2,0.7l-2.4,0.4
		c-1.5,0.2-3.1,0.6-4.6,0.8c-1.5,0.3-3.1,0.7-4.6,1c-1.5,0.3-3,0.7-4.6,1.1l-2.3,0.6c-1.5,0.4-3,0.8-4.6,1.2l-2.3,0.7
		c-0.7,0.2-1.5,0.5-2.3,0.7l-2.2,0.7l-2.3,0.7c-1.5,0.5-2.9,1.1-4.4,1.5H397l-2.1,0.8c-0.7,0.2-1.5,0.5-2.2,0.8l-2,0.8
		c-0.8,0.3-1.6,0.7-2.4,1c-0.7,0.3-1.5,0.7-2.2,1l-2.2,1c-0.7,0.3-1.5,0.7-2.1,1c-0.7,0.3-1.5,0.7-2.1,1.1l-1.3,0.7l-1.3,0.7
		c-2,1-3.9,2-5.9,3.1c-0.7,0.3-1.4,0.8-2,1.1c-1.2,0.7-2.4,1.4-3.6,2.1c-0.4,0.2-0.8,0.5-1.1,0.7c-1.9,1.1-3.8,2.4-5.7,3.6l-1.7,1.1
		l-1.8,1.2c-0.6,0.4-1.2,0.9-1.9,1.3L352,214c-0.3,0.2-0.6,0.5-1,0.7c-0.6,0.4-1.2,0.9-1.8,1.3c-1.7,1.2-3.3,2.5-5,3.9
		c-0.6,0.5-1.1,0.9-1.7,1.4l-1.8,1.5c-0.6,0.5-1.3,1.1-2,1.6c-0.5,0.4-1.1,0.9-1.5,1.4c-0.6,0.6-1.3,1.1-2,1.8
		c-0.5,0.4-0.9,0.8-1.5,1.4c-0.6,0.6-1.1,1.1-1.7,1.6c-1.1,1.1-2.1,2-3.2,3.1c-0.6,0.6-1.2,1.2-1.8,1.8l-0.4-0.3
		c-1.7-1.5-3.5-2.9-5.3-4.3l-1.1-0.8c-1.1-0.9-2.3-1.8-3.4-2.6l-1.9-1.3c-6.6-4.7-13.5-9-20.6-12.9l-0.2-0.2l-1.8-0.9l-1.2-0.7
		c-0.9-0.5-1.9-1-2.8-1.4c-0.6-0.3-1.4-0.7-2-1c-0.9-0.5-1.8-0.8-2.7-1.3l-2.5-1.1c-1-0.4-2-0.8-2.9-1.2l-2.4-1.1l-0.8-0.3
		c-0.8-0.3-1.6-0.7-2.4-1s-1.7-0.7-2.5-1L270,202c-0.8-0.3-1.7-0.7-2.5-0.9c-3-1.1-5.9-2-8.9-2.9c-1.7-0.5-3.5-1-5.2-1.5
		c-0.9-0.2-1.8-0.5-2.7-0.7l-1.6-0.4l-1.7-0.4l-2-0.4c-2.1-0.5-4.2-0.9-6.4-1.3c-1-0.2-1.9-0.3-2.8-0.5c-1-0.2-1.9-0.3-2.8-0.5
		c-2-0.3-4-0.6-6-0.8c-1.7-0.2-3.4-0.4-5.1-0.6c-0.4-0.1-0.7-0.1-1.1-0.1c-1.5-0.2-3-0.2-4.5-0.3l-1.5-0.1c-1.6-0.1-3.3-0.2-4.9-0.2
		c-1-0.1-2-0.1-2.9-0.1h-6.2c-0.9,0-1.8,0.1-2.8,0.1l-1.3,0.1c-1,0-1.8,0.1-2.8,0.2c-1,0.1-2,0.1-3,0.2H191l-2.8,0.2l-0.8,0.1
		l-2.4,0.2l-0.8,0.1l-2.8,0.3h-0.2c-1,0.1-2,0.2-2.9,0.4l-0.7,0.1c-0.8,0.1-1.6,0.2-2.4,0.3l-0.5,0.1c-1,0.2-2,0.3-3,0.5l-0.7,0.1
		c-0.9,0.2-1.9,0.3-2.8,0.5h0.3c-1,0.2-2,0.4-2.8,0.6c-2.5,0.5-5,1.1-7.5,1.7l-2,0.5l-0.7,0.2c-0.7,0.2-1.5,0.4-2.3,0.7
		c-0.2,0.1-0.5,0.2-0.7,0.2c-0.9,0.2-1.8,0.6-2.7,0.8l-0.7,0.2c-0.8,0.3-1.6,0.6-2.4,0.8c-0.3,0.1-0.7,0.2-1.1,0.3
		c-0.7,0.2-1.3,0.4-2,0.7l-0.2,0.1c-1,0.3-1.9,0.7-2.8,1l-2.8,1.1l-1.6,0.7l-0.1,0.1c-0.7,0.2-1.5,0.5-2.2,0.8l-2.6,1.1
		c-0.8,0.3-1.5,0.7-2.3,1l-1.7,0.7c-2.5,1.1-5,2.3-7.6,3.6l-1.5,0.8l-2,1.1c-1.6,0.9-3.3,1.8-5,2.7l-1.3,0.7
		c-0.7,0.4-1.5,0.9-2.2,1.3c-0.3,0.2-0.7,0.4-1,0.6c-0.7,0.4-1.4,0.8-2,1.2l-0.9,0.6c-0.4,0.2-0.7,0.5-1.1,0.7l-1.5,1l-2.1,1.5
		l-2.1,1.5l-1.4,1c-1.4,1-2.8,2-4.1,3l-1.3,1c-0.6,0.4-1.1,0.8-1.7,1.3c-0.2,0.2-0.6,0.4-0.8,0.7c-1.5,1.1-2.9,2.4-4.4,3.6
		c-0.3,0.2-0.6,0.5-0.9,0.7l-1.6,1.5l-1.2,1.1c-0.7,0.6-1.4,1.2-2,1.8l-1.4,1.2l-0.8,0.8l-1.4,1.3l-0.7,0.7
		c-0.6,0.6-1.1,1.1-1.6,1.6c-0.1,0.1-0.2,0.2-0.3,0.3c-0.6,0.6-1.2,1.2-1.8,1.8c-1.5,1.6-3.1,3.3-4.6,4.9c-0.7,0.8-1.4,1.5-2.1,2.4
		c-1.1,1.2-2.2,2.5-3.3,3.8c-0.4,0.6-0.9,1.1-1.3,1.6c-0.4,0.6-0.9,1.1-1.3,1.6c-1.7,2.2-3.4,4.3-5,6.6l-1.1,1.5
		c-0.4,0.5-0.8,1.1-1.2,1.6c-2.3,3.3-4.4,6.5-6.4,9.8c-0.4,0.7-0.8,1.3-1.2,2s-0.8,1.3-1.2,2s-0.8,1.3-1.1,2
		c-2.4,4.3-4.7,8.8-6.7,13.2c-1.1,2.4-2.2,4.8-3.3,7.3c-0.2,0.5-0.4,1-0.6,1.5c-0.3,0.7-0.6,1.3-0.8,2c-0.2,0.3-0.2,0.6-0.3,0.9
		c-0.2,0.6-0.4,1.1-0.7,1.6c-0.4,1.1-0.8,2.2-1.2,3.3c-0.3,1-0.7,2-1,2.9c-0.1,0.2-0.2,0.4-0.2,0.6c-0.3,0.7-0.6,1.5-0.8,2.4v0.1
		c-0.2,0.5-0.3,0.9-0.4,1.4c-0.3,0.8-0.5,1.6-0.8,2.5s-0.6,1.9-0.8,2.7s-0.5,1.8-0.7,2.7c-0.1,0.3-0.2,0.8-0.3,1.1
		c-0.3,1.1-0.6,2.1-0.8,3.2c-0.2,0.5-0.2,1-0.3,1.5c-0.1,0.5-0.2,1-0.3,1.5c-0.2,1.1-0.5,2.1-0.7,3.2c-0.2,0.7-0.2,1.3-0.4,2
		c-0.3,1.5-0.6,2.9-0.8,4.3s-0.5,2.8-0.7,4.1c-0.2,1.1-0.3,2.2-0.5,3.3c-0.1,0.2-0.1,0.2-0.1,0.4c-0.2,1.1-0.2,2.2-0.4,3.3
		c-0.2,1.1-0.2,2.4-0.3,3.5s-0.2,2.3-0.2,3.3v0.2c-0.1,1.1-0.2,2.4-0.2,3.5c-0.1,1.1-0.2,2.3-0.2,3.4v0.2c0,1.1-0.1,2.2-0.1,3.3v3.5
		c0,1.8,0,3.5,0.1,5.3c0,0.6,0.1,1.4,0.1,2c0.1,3.3,0.3,6.4,0.7,9.7c0.1,0.7,0.1,1.2,0.2,1.9c0.1,0.6,0.2,1.2,0.2,1.9
		c0.2,1.1,0.2,2.4,0.4,3.5c0.1,0.1,0.1,0.2,0.1,0.3c0.1,0.6,0.2,1.2,0.2,1.8c0.2,1.2,0.3,2.5,0.6,3.7c0.1,0.5,0.2,1.1,0.2,1.5
		c0.2,0.9,0.3,1.7,0.5,2.6c0.1,0.5,0.2,1,0.2,1.5l0.4,1.9c0.1,0.6,0.2,1.1,0.3,1.6L19,420c0.2,1.2,0.6,2.4,0.8,3.6l0.4,1.9
		c0.3,1.2,0.7,2.4,1,3.7l0.5,1.9c0.3,1.2,0.7,2.4,1.1,3.7c0.6,1.9,1.1,3.7,1.7,5.4c0.1,0.3,0.2,0.7,0.3,1.1c0.2,0.4,0.3,0.9,0.4,1.3
		c0,0.1,0.1,0.2,0.1,0.2c0.3,0.9,0.7,1.9,1,2.8c0.2,0.6,0.4,1.2,0.7,1.9c0.1,0.2,0.2,0.4,0.2,0.6c0.1,0.2,0.2,0.4,0.2,0.7l0.1,0.2
		l0.1,0.2c0,0.1,0.1,0.1,0.1,0.2l0.1,0.2c0.1,0.2,0.2,0.6,0.3,0.8c0.2,0.7,0.6,1.5,0.9,2.2c0.1,0.3,0.3,0.6,0.3,0.9
		c0.1,0.2,0.2,0.3,0.2,0.6l0.3,0.7c0.2,0.6,0.5,1.1,0.7,1.8c0.1,0.2,0.2,0.4,0.2,0.6l0.3,0.7l0.7,1.6c0.1,0.2,0.2,0.4,0.3,0.7
		c0.2,0.4,0.3,0.7,0.6,1.1c0,0.1,0.1,0.2,0.1,0.2l0.7,1.4l0.2,0.3l0.1,0.2c0,0.1,0.1,0.2,0.1,0.2c0.1,0.2,0.2,0.4,0.3,0.6
		c0.2,0.2,0.2,0.6,0.4,0.8c0.2,0.4,0.4,0.8,0.6,1.2l0.8,1.6c0.3,0.6,0.7,1.4,1.1,2c0.2,0.5,0.6,1,0.8,1.5l0.1,0.1
		c0.3,0.5,0.6,1.1,0.9,1.6c0.1,0.1,0.1,0.2,0.2,0.3l0.2,0.4l0.1,0.1l0.3,0.6l0.2,0.5c0.2,0.2,0.3,0.5,0.4,0.7l1,1.7l0.3,0.6
		c0.3,0.6,0.7,1.1,1.1,1.7c0.5,0.7,0.9,1.5,1.4,2.3c0.1,0.2,0.2,0.2,0.2,0.4l0.2,0.2c0.5,0.7,1,1.5,1.5,2.3l0.1,0.2
		c0.5,0.7,0.9,1.4,1.4,2.1l0.8,1.1c0.4,0.6,0.7,1.1,1.1,1.6l0.3,0.5l0.2,0.3l0.5,0.7l0.4,0.6L51,492l0.5,0.7l0.3,0.4l0.2,0.3
		c0.5,0.6,0.9,1.2,1.4,1.8c0.1,0.1,0.1,0.2,0.2,0.2c0.2,0.3,0.4,0.6,0.7,0.9c0.2,0.4,0.7,0.8,0.9,1.1c0.2,0.3,0.5,0.6,0.7,0.9
		c0.4,0.6,0.8,1.1,1.3,1.6l0.2,0.3c0.5,0.7,1.1,1.3,1.5,1.9l0.2,0.3c0.3,0.4,0.7,0.9,1.1,1.3c0.6,0.6,1.1,1.3,1.7,2l1,1.1
		c0.2,0.2,0.4,0.4,0.6,0.6c0.3,0.4,0.7,0.7,1.1,1.1l0.7,0.7c0.4,0.4,0.8,0.9,1.2,1.3l1.2,1.2c1,1,1.9,2,2.8,2.8l0.1,0.1l0.9,0.9
		l0.6,0.6l0.8,0.7c0.6,0.6,1.1,1.1,1.7,1.6l0.2,0.2l0.1,0.1l1,0.9l0.4,0.4l0.3,0.3c0.5,0.5,0.9,0.9,1.4,1.3c0.7,0.7,1.4,1.2,2.1,1.9
		l0.2,0.2l0.4,0.3c0.7,0.6,1.4,1.2,2,1.8l39.7,33.5l14,11.8l4.6,3.9l1.4,1.2l2.8,2.3l7.6,6.4l11.8,9.9l0.5,0.4l3,2.5l19,16l6.8,5.8
		l5,4.2l1.8,1.5l10.1,8.5l9,7.7l7.2,6.1l0.2,0.2l2.3,1.9l17.4,14.6l10.2,8.6l2,1.6l4.3,3.6l11.9,10l23.6,19.9l6,5l6.2,5.3l1.6,1.4
		l9.9,8.3l7.6,6.3l11.2,9.4l22.6,19l5.4,4.6l1.9,1.5l2,1.7l0.2,0.2l0.9-1l20.2-24.1l22.4-26.7l58.1-69l8.5-10l66.1-78.4l48.1-57.1
		l20.5-24.3l-0.4-0.3c1.2-1.7,2.4-3.4,3.6-5.1c0.6-0.8,1.1-1.7,1.7-2.5c0.2-0.4,0.5-0.8,0.7-1.1c0.3-0.6,0.7-1.1,1.1-1.6
		c0.5-0.7,1-1.5,1.4-2.3c0.3-0.6,0.7-1.1,1-1.6c0.6-1,1.2-2,1.8-3l0.2-0.4c0.2-0.5,0.6-1,0.8-1.5c0.2-0.2,0.3-0.6,0.5-0.8
		c0.8-1.5,1.6-2.9,2.4-4.4c0.3-0.7,0.7-1.4,1.1-2c0.8-1.5,1.5-3.2,2.3-4.8c0.3-0.7,0.7-1.4,1-2.1c0.4-0.9,0.8-1.8,1.2-2.7
		c0.2-0.7,0.5-1.2,0.8-1.9c0.3-0.6,0.6-1.4,0.9-2.1c0.7-1.5,1.2-3.1,1.8-4.6c0.2-0.6,0.5-1.2,0.7-1.7c0.2-0.5,0.4-1,0.6-1.5
		c0.2-0.8,0.5-1.5,0.8-2.4s0.6-1.9,0.9-2.7c0.3-0.8,0.6-1.6,0.8-2.4c0.2-0.5,0.3-1,0.4-1.4c0.3-1.2,0.6-2.4,1.1-3.6
		c0.2-0.5,0.2-1,0.4-1.5c0.2-0.7,0.4-1.4,0.6-2c0.3-1.1,0.6-2.4,0.9-3.6c0.2-0.7,0.3-1.4,0.5-2.1c0.1-0.5,0.2-1,0.3-1.5
		c0.5-2.1,0.9-4.3,1.3-6.5c0.1-0.5,0.2-1,0.2-1.5c0.1-0.6,0.2-1.3,0.3-2c0.1-0.5,0.2-0.9,0.2-1.4c0.2-1.1,0.3-2,0.4-3.1
		s0.3-2.2,0.4-3.3v-0.3c0.1-0.4,0.1-0.8,0.2-1.3c0.1-0.5,0.1-1.1,0.2-1.5c0-0.2,0.1-0.6,0.1-0.8c0-0.3,0.1-0.8,0.2-1.6
		c0.2-2.9,0.4-5.8,0.6-8.7c0.1-0.6,0-1.1,0.1-1.7s0.1-1.4,0.1-2v-1.6C653.5,368,653.5,365.2,653.4,362.5z"/>
	<path class="st0" d="M628.6,462.2c-0.6,1-1.1,2-1.8,3c-0.3,0.6-0.7,1.1-1,1.6c-0.5,0.7-0.9,1.5-1.4,2.3c-0.3,0.6-0.7,1.1-1.1,1.6
		c-0.2,0.4-0.5,0.8-0.7,1.1c-0.6,0.9-1.1,1.7-1.7,2.5c-1.1,1.7-2.4,3.4-3.6,5.1l0.4,0.3l-20.4,24.3l-48.1,57.1
		c-9.1,2.1-18.3,4-27.6,5.5c-29.9,4.9-61.7,9.7-94.3,13.9l-5.9,0.7l-0.6,0.1l-1.1,0.2l-5.6,0.7c-2.4,0.3-4.7,0.6-7.1,0.9
		c-1.7,0.2-3.5,0.4-5.2,0.7l-2.2,0.2c-37.1,4.4-74.8,8-111.4,10.2l-2,0.1c-2.9,0.2-5.8,0.3-8.7,0.5c-4.3,0.2-8.6,0.4-12.9,0.7
		c-17.2,0.7-34.1,1.1-50.5,1.1c-3.9,0-7.8,0-11.7-0.1l-3.8-0.1h-1.6c-2.7-0.1-5.3-0.2-7.9-0.2c-4.4-0.2-8.8-0.3-13.1-0.5
		c-2.2-0.1-4.4-0.2-6.6-0.3l-4.6-0.2l-0.5-0.4l-11.8-9.9l-7.6-6.4l-2.8-2.3l-1.4-1.2l0,0l-4.6-3.9l-14.1-11.7l-39.7-33.5
		c-0.7-0.6-1.4-1.2-2.1-1.8l-0.4-0.3l-0.2-0.2c-0.7-0.6-1.4-1.2-2.1-1.9c-0.5-0.4-1-0.8-1.4-1.3L76,520l-0.4-0.4l-1-0.9l-0.1-0.1
		l-0.2-0.1c-0.6-0.6-1.1-1.1-1.7-1.6l-0.2-0.2l-1.1-1.1c-0.3-0.3-0.6-0.6-0.9-0.9l-0.1-0.1c-1-1-1.9-2-2.8-2.8l-1.2-1.2
		c-0.4-0.4-0.8-0.9-1.2-1.3l-0.7-0.7c-0.3-0.4-0.7-0.7-1.1-1.1c-0.2-0.2-0.4-0.4-0.6-0.7l-1-1.1c-0.6-0.7-1.1-1.3-1.7-2
		c-0.4-0.4-0.7-0.9-1.1-1.3l-0.2-0.3l-0.2-0.2c-0.5-0.6-0.9-1.1-1.4-1.6l-0.2-0.3c-0.4-0.6-0.9-1.1-1.3-1.6
		c-0.2-0.3-0.5-0.6-0.7-0.9c-0.2-0.3-0.6-0.7-0.9-1.1s-0.5-0.6-0.7-0.9c-0.1-0.1-0.1-0.2-0.2-0.2l-1.1-1.4l-0.3-0.5l-0.2-0.3
		l-0.2-0.4l-0.5-0.7l-0.2-0.3l-0.4-0.6l-0.5-0.7l-0.2-0.3l-0.3-0.5c-0.4-0.6-0.7-1.1-1.1-1.6l-0.8-1.1c-0.5-0.7-1-1.4-1.4-2.1l0.2,0
		c-0.5-0.7-1-1.5-1.5-2.3l-0.2-0.2c-0.1-0.2-0.2-0.2-0.2-0.4c-0.5-0.7-1-1.5-1.4-2.3c-0.3-0.6-0.7-1.1-1.1-1.7l-0.3-0.6l-1-1.7
		c-0.2-0.2-0.2-0.5-0.4-0.7l-0.2-0.5l-0.3-0.6l-0.1-0.1l-0.2-0.4c-0.1-0.1-0.1-0.2-0.2-0.3c-0.3-0.6-0.7-1.1-0.9-1.6l-0.1-0.1
		c-0.2-0.5-0.6-1-0.8-1.5c-0.3-0.6-0.7-1.4-1.1-2l-0.8-1.6c-0.2-0.4-0.4-0.8-0.6-1.2c-0.2-0.2-0.2-0.6-0.4-0.8s-0.2-0.5-0.3-0.7
		c0-0.1-0.1-0.2-0.1-0.2l-0.1-0.2l-0.2-0.3l-0.7-1.4c-0.1-0.1-0.1-0.2-0.1-0.2c-0.2-0.4-0.3-0.7-0.6-1.1c-0.1-0.2-0.2-0.4-0.3-0.6
		l-0.7-1.6l-0.3-0.6c-0.1-0.2-0.2-0.3-0.2-0.6l113.8,1.1h1.1h4.1l8.1,0.1l6.1,0.1h1.6l5.7,0.1l36.5,0.4l47.9,0.5l0,0l44,0.4h2
		l5.4,0.1l7.5,0.1h5.1h1h0.7l5.2,0.1L628.6,462.2z"/>
	<path class="st0" d="M615.7,254.3H62.8c0.7-0.8,1.4-1.5,2.1-2.4c1.5-1.6,3-3.3,4.6-4.9c0.6-0.6,1.1-1.2,1.8-1.8
		c0.1-0.1,0.2-0.2,0.3-0.3c0.6-0.6,1.1-1.1,1.6-1.6l0.7-0.7l1.4-1.3l0.8-0.8l1.4-1.2c0.7-0.6,1.3-1.2,2-1.8l1.2-1.1l1.5-1.3
		c0.3-0.2,0.6-0.5,0.9-0.7c1.5-1.2,2.9-2.4,4.4-3.6c0.2-0.2,0.6-0.4,0.8-0.7c0.6-0.5,1.1-0.9,1.7-1.3l1.3-1c1.4-1.1,2.8-2,4.1-3
		l1.4-1l2.1-1.5l2.1-1.5l1.5-1c0.4-0.2,0.7-0.5,1.1-0.7l0.9-0.6c0.7-0.4,1.4-0.8,2-1.2c0.3-0.2,0.7-0.4,1-0.6
		c0.7-0.4,1.5-0.9,2.2-1.3l1.3-0.7c1.6-0.9,3.3-1.8,5-2.7l2-1.1l0,0l1.5-0.8c2.4-1.2,5-2.4,7.6-3.6l1.7-0.7c0.7-0.3,1.5-0.7,2.3-1
		l2.6-1.1c0.7-0.3,1.5-0.6,2.2-0.8l0.1-0.1l1.6-0.7l2.8-1.1c0.9-0.3,1.9-0.7,2.8-1l0.2-0.1c0.7-0.2,1.3-0.4,2-0.7
		c0.3-0.1,0.7-0.2,1.1-0.3c0.8-0.2,1.6-0.5,2.4-0.8l0.7-0.2c0.9-0.2,1.8-0.6,2.7-0.8l0,0c47.6,10.7,96.4,15,142.4,15.4
		c7.2,3.9,14.1,8.2,20.6,12.9l1.9,1.5c1.1,0.8,2.3,1.7,3.4,2.6l1.1,0.8c1.8,1.4,3.6,2.8,5.3,4.3l0.4,0.3c0.6-0.7,1.2-1.2,1.8-1.8
		c1.1-1.1,2.1-2.1,3.2-3.1c0.6-0.6,1.1-1.1,1.7-1.6c0.6-0.6,1-0.9,1.5-1.4c0.6-0.6,1.3-1.1,2-1.8c0.5-0.5,1.1-0.9,1.5-1.4
		c0.7-0.6,1.3-1.1,2-1.6l1.8-1.5c0.6-0.5,1.1-0.9,1.7-1.4c1.6-1.3,3.3-2.6,5-3.9c0.6-0.4,1.1-0.9,1.8-1.3c0.3-0.2,0.7-0.5,1-0.7
		l1.5-1.1c0.6-0.4,1.2-0.9,1.9-1.3c41.7-2.4,83.2-7.3,124.2-14.6c12.9-2.4,25.6-6,37.8-11.1l2.3,0.7c0.7,0.2,1.5,0.5,2.3,0.7
		l0.8,0.2c1.7,0.6,3.3,1.1,5,1.7c0.5,0.2,1.1,0.4,1.5,0.6c4.6,1.7,9.3,3.7,13.8,5.8c0.6,0.2,1.1,0.5,1.6,0.7
		c3.9,1.9,7.7,3.8,11.5,5.9l1.3,0.7c0.7,0.4,1.5,0.8,2.1,1.2c1.2,0.7,2.5,1.5,3.7,2.3c0.7,0.4,1.4,0.9,2.1,1.3
		c2.9,1.9,5.8,3.8,8.6,5.9l1.6,1.2c0.7,0.6,1.5,1.1,2.2,1.6l1.9,1.4c1.1,0.9,2.3,1.8,3.3,2.7l1.2,1l1.3,1.1c0.7,0.6,1.3,1.1,2,1.7
		c1.1,1,2.3,2,3.3,2.9c0.4,0.4,0.9,0.8,1.3,1.2l0.2,0.2l0.5,0.5c1.5,1.4,2.8,2.8,4.3,4.1c0.6,0.6,1.1,1.1,1.7,1.7
		c0.4,0.4,0.7,0.8,1.1,1.1c0.9,0.9,1.8,1.9,2.7,2.8l1,1.1c2,2.2,3.9,4.4,5.8,6.6c0.5,0.6,0.9,1.1,1.4,1.6c0.3,0.3,0.6,0.7,0.9,1.1
		c0.3,0.4,0.6,0.7,0.9,1.1c0.1,0.1,0.2,0.2,0.2,0.2c0.3,0.4,0.7,0.8,1,1.3C614.5,252.9,615.1,253.7,615.7,254.3z"/>
	<path class="st0" d="M167.4,410.2L167.4,410.2c0.2,0.4,0.2,0.8,0.4,1.2l0.4,1.2h5.1C171.1,412.6,168.9,411.7,167.4,410.2z
		 M167.4,410.2L167.4,410.2c0.2,0.4,0.2,0.8,0.4,1.2l0.4,1.2h5.1C171.1,412.6,168.9,411.7,167.4,410.2z M167.4,410.2L167.4,410.2
		c0.2,0.4,0.2,0.8,0.4,1.2l0.4,1.2h5.1C171.1,412.6,168.9,411.7,167.4,410.2z M167.4,410.2L167.4,410.2c0.2,0.4,0.2,0.8,0.4,1.2
		l0.4,1.2h5.1C171.1,412.6,168.9,411.7,167.4,410.2z M167.4,410.2c0.1,0.4,0.2,0.7,0.3,1.1c0.1,0.4,0.2,0.8,0.4,1.2h5.1
		C171.1,412.6,168.9,411.7,167.4,410.2z M407.5,372.3l-2.4-0.1l-1.1-0.1l-1.1-0.1h-0.4l-1.6-0.1l-7.6-0.4l-1.6-0.1l-7.3-0.4
		l-2.8-0.2L114,357.3l-1.3-0.1l-21.8-1.1l-3.5-0.2l-5.1-0.2l-2.4-0.1l-3.2-0.2l-3.2-0.2l-56.7-2.9c-0.2,1.1-0.3,2.2-0.5,3.3
		c0,0.2,0,0.2-0.1,0.4c-0.2,1.1-0.2,2.1-0.4,3.3l0,0c-0.2,1.1-0.2,2.4-0.3,3.5s-0.2,2.3-0.2,3.3c0,0.1,0,0.1,0,0.2
		c-0.1,1.1-0.2,2.4-0.2,3.5c-0.1,1.1-0.1,2.3-0.2,3.4c0,0.1,0,0.2,0,0.2c0,1.1-0.1,2.3-0.1,3.3s0,2.4,0,3.5c0,1.8,0,3.5,0.1,5.3
		c0,0.7,0,1.4,0.1,2c0.1,3.3,0.3,6.5,0.7,9.7c0.1,0.6,0.1,1.2,0.2,1.9c0.1,0.6,0.2,1.2,0.2,1.9c0.2,1.2,0.2,2.4,0.4,3.5
		c0,0.1,0,0.2,0.1,0.3c0.1,0.6,0.2,1.2,0.2,1.8c0.2,1.2,0.3,2.5,0.6,3.7c0.1,0.5,0.2,1.1,0.2,1.5c0.2,0.9,0.3,1.7,0.5,2.6
		c0.1,0.5,0.2,1,0.2,1.5l0.3,1.9c0.1,0.5,0.2,1.1,0.3,1.6l0.1,0.3c0.2,1.2,0.5,2.4,0.8,3.6l0.4,1.9c0.3,1.2,0.7,2.4,1,3.7l0.5,1.9
		c0.3,1.2,0.7,2.4,1,3.7c0.6,1.9,1.1,3.7,1.7,5.4l48.3,1.5l2.2,0.1l9.4,0.2l8.3,0.2l2,0.1l46.5,1.5l8.4,0.2l11.3,0.4l0,0l1.8,0.1h1
		l1.5,0.1l7.4,0.2l127.6,4.1l0,0l8.7,0.2l0,0l9.5,0.3l1.6,0.1l0,0h0.6l0,0l7.2,0.2l71.9,2.4h1.3h0.2l9.8,0.3h0.1l2.1,0.1l50.6,1.6
		l8.9,0.3l13.4,0.4h0.6h1l2.4,0.1l3.2,0.1l7.6,0.2l129.1,4.1c0.8-1.5,1.6-2.9,2.4-4.4c0.3-0.7,0.7-1.4,1.1-2
		c0.8-1.6,1.5-3.2,2.3-4.8c0.3-0.7,0.6-1.4,1-2.1c0.4-0.9,0.8-1.8,1.2-2.7c0.2-0.7,0.6-1.3,0.8-1.9c0.2-0.6,0.6-1.4,0.9-2.1
		c0.7-1.5,1.2-3.1,1.8-4.6c0.2-0.6,0.4-1.1,0.7-1.7c0.2-0.6,0.4-1,0.6-1.5c0.3-0.8,0.6-1.6,0.8-2.4c0.2-0.8,0.6-1.8,0.9-2.7
		c0.3-0.9,0.6-1.6,0.8-2.4c0.2-0.5,0.2-1,0.4-1.4c0.3-1.2,0.7-2.4,1.1-3.6c0.2-0.5,0.2-1,0.4-1.5c0.2-0.7,0.4-1.4,0.6-2
		c0.3-1.2,0.6-2.4,0.9-3.6c0.2-0.7,0.3-1.4,0.5-2.1c0.1-0.5,0.2-1,0.3-1.5c0.5-2.2,0.9-4.4,1.3-6.5c0.1-0.5,0.2-1,0.2-1.5
		c0.1-0.6,0.2-1.3,0.3-2c0.1-0.5,0.2-0.9,0.2-1.4c0.2-1.1,0.3-2.1,0.4-3.1s0.3-2.2,0.4-3.3c0-0.1,0-0.2,0-0.3
		c0.1-0.4,0.1-0.9,0.2-1.3c0.1-0.5,0.1-1.1,0.2-1.5c0.1-0.8,0.2-1.5,0.2-2.4v-0.1L407.5,372.3z M261.1,412.6h-15.2
		c4.1,0,7.6,3,7.6,6.6s-3.4,6.6-7.6,6.6H158c-4.1-0.1-7.4-3-7.4-6.6c0.1-2.2,1.2-4.1,3.1-5.3l0,0c1.4-0.9,2.9-1.3,4.6-1.3h15.2
		c-2.2,0-4.3-0.9-5.9-2.4l0,0c-1.1-1.1-1.7-2.6-1.7-4.1c0-0.2,0-0.4,0-0.6l0,0c0.3-3.3,3.6-6,7.6-6h-10.8c-4.1,0-7.6-3-7.6-6.6
		s3.4-6.6,7.6-6.6h87.8c4.1,0,7.6,3,7.6,6.6s-3.4,6.6-7.6,6.6h10.6c4.1,0,7.6,2.9,7.6,6.6C268.6,409.7,265.2,412.6,261.1,412.6z
		 M167.4,410.2L167.4,410.2c0.2,0.4,0.2,0.8,0.4,1.2l0.4,1.2h5.1C171.1,412.6,168.9,411.7,167.4,410.2L167.4,410.2z M167.4,410.2
		L167.4,410.2c0.2,0.4,0.2,0.8,0.4,1.2l0.4,1.2h5.1C171.1,412.6,168.9,411.7,167.4,410.2L167.4,410.2z M167.4,410.2L167.4,410.2
		c0.2,0.4,0.2,0.8,0.4,1.2l0.4,1.2h5.1C171.1,412.6,168.9,411.7,167.4,410.2L167.4,410.2z M167.4,410.2L167.4,410.2
		c0.2,0.4,0.2,0.8,0.4,1.2l0.4,1.2h5.1C171.1,412.6,168.9,411.7,167.4,410.2L167.4,410.2z M167.4,410.2L167.4,410.2
		c0.2,0.4,0.2,0.8,0.4,1.2l0.4,1.2h5.1C171.1,412.6,168.9,411.7,167.4,410.2L167.4,410.2z"/>
	<path class="st0" d="M31.8,306.6c0-3.7,3.4-6.6,7.6-6.6h-6.6c-1.1,2.4-2.2,4.8-3.3,7.2c-0.2,0.5-0.4,1-0.6,1.5
		c-0.2,0.7-0.5,1.3-0.8,2c-0.2,0.3-0.2,0.6-0.3,0.9c-0.2,0.6-0.4,1.1-0.7,1.7h12.2C35.2,313.1,31.8,310.2,31.8,306.6z M652,344.9
		c-0.1-0.8-0.2-1.6-0.3-2.4c0-0.2-0.1-0.5-0.1-0.7c-0.1-0.7-0.2-1.4-0.3-2.1c0-0.2-0.1-0.3-0.1-0.6c-0.1-0.7-0.2-1.5-0.3-2.2
		c-0.2-1.1-0.4-2.3-0.6-3.4c-0.2-0.7-0.2-1.5-0.4-2.2c-0.2-1.1-0.5-2.3-0.7-3.4l-0.2-1.2c-0.2-0.6-0.2-1.3-0.4-2c0-0.1,0-0.1,0-0.2
		c-0.2-0.9-0.4-1.9-0.7-2.8c-0.2-1-0.5-2-0.7-2.9c-0.2-0.7-0.4-1.4-0.6-2.1c-0.1-0.4-0.2-0.8-0.3-1.2c-0.5-1.6-1-3.3-1.5-4.9
		c-0.2-0.5-0.2-0.9-0.4-1.4c-0.2-0.5-0.3-1.1-0.6-1.6c-0.2-0.7-0.5-1.5-0.7-2.2c-0.2-0.5-0.3-1-0.5-1.5c-0.2-0.5-0.4-1.1-0.6-1.6
		c-0.9-2.4-1.8-4.7-2.8-7.1c-0.2-0.7-0.6-1.3-0.8-2c-0.4-1.1-0.9-2-1.4-3.1c-0.3-0.7-0.7-1.5-1.1-2.4l-0.1-0.2
		c-0.2-0.6-0.6-1.1-0.8-1.7c-0.2-0.4-0.4-0.9-0.7-1.3c-1.3-2.7-2.7-5.3-4.1-7.9c-0.4-0.8-0.9-1.6-1.4-2.4s-1-1.8-1.5-2.6
		c-0.6-0.8-1.1-1.8-1.5-2.6c-0.5-0.8-1.1-1.7-1.6-2.6l0,0c-1.1-1.7-2.2-3.4-3.3-5.1c-0.6-0.8-1.1-1.7-1.8-2.5L49.6,271.1
		c-2.3,3.2-4.4,6.4-6.4,9.8c-0.4,0.6-0.8,1.3-1.2,2s-0.8,1.3-1.1,2c-0.3,0.7-0.8,1.3-1.1,2h76.8c4.1,0,7.6,3,7.6,6.6
		s-3.4,6.6-7.6,6.6h10.8c4.1,0,7.6,2.9,7.6,6.6c0,3.7-3.4,6.6-7.6,6.6h-15.2c4.1,0,7.6,3,7.6,6.6s-3.4,6.6-7.6,6.6H24.3
		c-0.5,0-1-0.1-1.5-0.2c-0.2,0.9-0.6,1.8-0.8,2.8c-0.2,1-0.5,1.8-0.7,2.7c-0.1,0.4-0.2,0.7-0.3,1.1c-0.2,1.1-0.6,2.1-0.8,3.2
		c-0.2,0.5-0.2,1-0.3,1.5c-0.1,0.5-0.2,1-0.3,1.5c-0.2,1.1-0.5,2.1-0.7,3.2c-0.2,0.7-0.2,1.3-0.4,2c-0.3,1.5-0.6,2.8-0.8,4.3h634.8
		C652.2,347.1,652.2,346.1,652,344.9z"/>
	<path class="st6" d="M549.1,561.5l48.1-57.1c-18.6-16-32.9-27.6-37.9-30.1c-20-10.2-8-0.8-25.4,7.8c-17.4,8.6-113-1.3-122.9-7.8
		c-9.8-6.5-60.9,4.1-72.1,7.8c-2.4,0.6-4.7,1-7.2,1.1c-2.3,0.2-4.9,0.3-7.8,0.4c-1.6,0.1-3.3,0.1-5.1,0.1h-1.7
		c-3.8,0-7.9-0.1-12.1-0.3c-2.7-0.1-5.4-0.2-8.2-0.4c-21.6-1.5-45.3-5-56.6-11c-0.7-0.3-1.2-0.7-1.8-1.1c-0.8-0.6-1.8-1.1-2.9-1.7
		c-6-3.2-16.2-7-28.1-11c-10.8-3.6-23.1-7.3-35.1-10.9l-7.3-2.1l-1.5-0.4l-1.1-0.3l-2.1-0.6c-4.7-1.3-9.2-2.6-13.5-3.7
		c-3-0.8-5.9-1.6-8.5-2.4c-13.8-3.7-23.4-6.2-23.4-6.2c-10.2,5.6-25.1,8.8-42.3,10.3c-14.8,1.3-31.2,1.4-47.5,0.8
		c0,0.1,0.1,0.2,0.1,0.2c0.3,0.9,0.7,1.9,1,2.8c0.2,0.7,0.4,1.2,0.7,1.9c0.1,0.2,0.2,0.4,0.2,0.6c0.1,0.2,0.2,0.4,0.2,0.7l0.1,0.2
		l0.1,0.2c0,0.1,0.1,0.1,0.1,0.2l0.1,0.2c0.1,0.2,0.2,0.6,0.3,0.8c0.2,0.7,0.6,1.5,0.9,2.2c0.1,0.3,0.3,0.6,0.3,0.9
		c0.1,0.2,0.2,0.3,0.2,0.6l0.3,0.7c0.2,0.6,0.5,1.1,0.7,1.8c0.1,0.2,0.2,0.4,0.2,0.6l0.3,0.6l0.7,1.6c0.1,0.2,0.2,0.4,0.3,0.6
		c0.2,0.4,0.3,0.7,0.5,1.1c0,0.1,0.1,0.2,0.1,0.2l0.7,1.4l0.2,0.3l0.1,0.2c0,0.1,0.1,0.2,0.1,0.2c0.1,0.2,0.2,0.4,0.3,0.6
		c0.2,0.2,0.2,0.6,0.4,0.8c0.2,0.4,0.4,0.8,0.6,1.2l0.8,1.6c0.3,0.6,0.7,1.4,1.1,2c0.2,0.5,0.6,1,0.8,1.5l0.1,0.1
		c0.3,0.5,0.6,1.1,0.9,1.6c0.2,0.2,0.2,0.5,0.4,0.7l0.1,0.1l0.3,0.6l0.2,0.5c0.2,0.2,0.3,0.5,0.4,0.7l1,1.7l0.3,0.6
		c0.3,0.6,0.7,1.1,1.1,1.7c0.5,0.7,0.9,1.5,1.4,2.3c0.1,0.2,0.2,0.2,0.2,0.4l0.2,0.2c0.5,0.7,1,1.5,1.5,2.3l0.1,0.2
		c0.5,0.7,0.9,1.4,1.4,2.1l0.8,1.1c0.4,0.6,0.7,1.1,1.1,1.6l0.3,0.5l0.2,0.3l0.9,1.2l0.2,0.3l0.5,0.7l0.3,0.4l0.2,0.3
		c0.5,0.6,0.9,1.2,1.4,1.8c0.1,0.1,0.1,0.2,0.2,0.2c0.2,0.3,0.4,0.6,0.7,0.9c0.2,0.4,0.7,0.8,0.9,1.1c0.2,0.3,0.5,0.6,0.7,0.9
		c0.4,0.6,0.8,1.1,1.3,1.6l0.2,0.3c0.5,0.7,1.1,1.3,1.5,1.9l0.2,0.3c0.3,0.4,0.7,0.9,1.1,1.3c0.6,0.7,1.2,1.4,1.7,2
		c0.5,0.6,1,1.1,1.5,1.7c0.3,0.4,0.7,0.7,1.1,1.1l0.7,0.7c0.4,0.4,0.8,0.9,1.2,1.3l1.2,1.2c1,1,1.9,2,2.8,2.8l0.1,0.1l0.9,0.9
		l0.6,0.6l0.8,0.7c0.6,0.6,1.1,1.1,1.7,1.6l0.2,0.2l0.1,0.1l1,0.9l0.4,0.4l0.3,0.3c0.5,0.5,0.9,0.9,1.4,1.3c0.7,0.7,1.4,1.2,2.1,1.9
		l0.2,0.2l0.4,0.3c0.7,0.6,1.4,1.2,2,1.8l39.7,33.5l14,11.7l4.6,3.9l1.4,1.2l2.8,2.3l7.6,6.4l11.8,9.9l0.5,0.4l3,2.5l19,16l6.9,5.8
		l5,4.2l1.8,1.5l10.1,8.5l9,7.7l7.2,6.1l0.2,0.2l2.3,1.9l17.4,14.6l10.2,8.6l2,1.6l4.3,3.6l11.9,10l23.6,19.9l6,5l6.2,5.3l1.6,1.4
		l9.9,8.3l7.6,6.3l11.2,9.4l22.6,19l5.4,4.6l1.9,1.5l2,1.7l0.2,0.2l0.9-1l20.2-24l22.4-26.7l58.1-69l8.5-10L549.1,561.5z"/>
	<path class="st8" d="M597.2,504.3c-18.6-16-32.9-27.6-37.9-30.1c-20-10.2-8-0.8-25.4,7.8c-17.4,8.6-113-1.3-122.9-7.8
		c-9.8-6.5-60.9,4.1-72.1,7.8c-2.4,0.7-4.7,1-7.2,1.1c-2.3,0.2-4.9,0.3-7.8,0.4c-1.6,0.1-3.3,0.1-5.1,0.1h-1.7
		c-3.8,0-7.9-0.1-12.1-0.3c-2.7-0.1-5.4-0.2-8.2-0.4c-21.6-1.5-45.3-5-56.6-11c-0.7-0.3-1.2-0.7-1.8-1.1c-0.8-0.6-1.8-1.1-2.9-1.7
		c-6-3.2-16.2-7-28.1-11c-10.8-3.6-23.1-7.3-35.1-10.9l-7.3-2.1l-1.5-0.4l-1.1-0.3l-2.1-0.6c-4.7-1.3-9.2-2.6-13.5-3.7
		c-3-0.8-5.9-1.6-8.5-2.4c-13.8-3.7-23.4-6.2-23.4-6.2c-10.2,5.6-25.1,8.8-42.3,10.3c-14.8,1.3-31.2,1.4-47.5,0.8
		c0,0.1,0.1,0.2,0.1,0.2c0.3,0.9,0.7,1.9,1,2.8c0.2,0.6,0.4,1.2,0.7,1.9c0.1,0.2,0.2,0.4,0.2,0.6c0.1,0.2,0.2,0.4,0.2,0.7l0.1,0.2
		l0.1,0.2c0,0.1,0.1,0.1,0.1,0.2l0.1,0.2c0.1,0.2,0.2,0.6,0.3,0.8c0.2,0.7,0.6,1.5,0.9,2.2c0.1,0.3,0.3,0.7,0.3,0.9
		c0.1,0.2,0.2,0.3,0.2,0.6l0.3,0.7c0.2,0.6,0.5,1.1,0.7,1.8c0.1,0.2,0.2,0.4,0.2,0.6l0.3,0.7l0.7,1.6c0.1,0.2,0.2,0.4,0.3,0.7
		c0.2,0.4,0.3,0.7,0.5,1.1c0,0.1,0.1,0.2,0.1,0.2l0.7,1.4l0.2,0.3l0.1,0.2c0,0.1,0.1,0.2,0.1,0.2c0.1,0.2,0.2,0.4,0.3,0.6
		c0.2,0.2,0.2,0.6,0.4,0.8c0.2,0.4,0.4,0.8,0.6,1.2l0.8,1.6c0.3,0.7,0.7,1.4,1.1,2c0.2,0.5,0.6,1,0.8,1.5l0.1,0.1
		c0.3,0.5,0.6,1.1,0.9,1.6c0.2,0.2,0.2,0.5,0.4,0.6l0.1,0.1l0.3,0.6l0.2,0.5c0.2,0.2,0.3,0.5,0.4,0.7l1,1.7l0.3,0.6
		c0.3,0.6,0.7,1.1,1.1,1.7c0.5,0.7,0.9,1.5,1.4,2.3c0.1,0.2,0.2,0.2,0.2,0.4l0.2,0.2c0.5,0.7,1,1.5,1.5,2.3l0.1,0.2
		c0.5,0.7,0.9,1.4,1.4,2.1l0.8,1.1c0.4,0.6,0.7,1.1,1.1,1.6l0.3,0.5l0.2,0.3l0.9,1.2l0.2,0.3l0.5,0.6l0.3,0.4l0.2,0.3
		c0.5,0.7,0.9,1.2,1.4,1.8c0.1,0.1,0.1,0.2,0.2,0.2c0.2,0.3,0.4,0.6,0.7,0.9c0.2,0.4,0.7,0.8,0.9,1.1s0.5,0.6,0.7,0.9
		c0.4,0.6,0.8,1.1,1.3,1.6l0.2,0.3c0.5,0.6,1.1,1.3,1.5,1.9l0.2,0.3c0.3,0.4,0.7,0.9,1.1,1.3c0.6,0.6,1.2,1.4,1.7,2
		c0.5,0.6,1,1.1,1.5,1.7c0.3,0.4,0.7,0.7,1.1,1.1l0.7,0.7c0.4,0.4,0.8,0.9,1.2,1.3l1.2,1.2c1,1,1.9,2,2.8,2.8l0.1,0.1l0.9,0.9
		l0.6,0.6l0.8,0.7c0.6,0.6,1.1,1.1,1.7,1.6l0.2,0.2l0.1,0.1l1,0.9l0.4,0.4l0.3,0.3c0.5,0.5,0.9,0.9,1.4,1.3c0.7,0.6,1.4,1.2,2.1,1.9
		l0.2,0.2l0.4,0.3c0.7,0.6,1.4,1.2,2,1.8l39.7,33.5l14,11.7l4.6,3.9l1.4,1.2l2.8,2.3l7.6,6.4l11.8,9.9l0.5,0.4l3,2.5l19,16l6.9,5.8
		l5,4.2l1.8,1.5l10.1,8.5l9,7.7l7.2,6.1l0.2,0.2l2.3,1.9l17.4,14.6l10.2,8.6l2,1.6l4.3,3.6l11.9,10l23.6,19.9l6,5l6.2,5.3l1.6,1.4
		l9.9,8.3l7.6,6.3l11.2,9.4l22.6,19l5.4,4.6l1.9,1.5l2,1.7l0.2,0.2l0.9-1l20.2-24l22.4-26.7l58.1-69l8.5-10l66.1-78.3L597.2,504.3z"
		/>
	<circle class="st4" cx="79" cy="275.9" r="0.8"/>
	<circle class="st4" cx="548.4" cy="320.9" r="0.8"/>
	<circle class="st4" cx="280.5" cy="256.9" r="0.8"/>
	<circle class="st4" cx="380.8" cy="258.1" r="0.8"/>
	<circle class="st4" cx="319" cy="332.6" r="0.8"/>
	<circle class="st4" cx="465.3" cy="282.2" r="0.8"/>
	<circle class="st9" cx="400.2" cy="237.5" r="1.7"/>
	<circle class="st9" cx="476" cy="219.6" r="1.7"/>
	<circle class="st9" cx="185.8" cy="354.5" r="0.7"/>
	<circle class="st9" cx="164.6" cy="258.9" r="0.7"/>
	<circle class="st9" cx="148.4" cy="302.9" r="0.7"/>
	<circle class="st9" cx="356.4" cy="298.2" r="0.7"/>
	<circle class="st9" cx="507.5" cy="250.9" r="0.7"/>
	<circle class="st9" cx="254.7" cy="296.5" r="1.7"/>
	<circle class="st9" cx="224.1" cy="226.7" r="1.7"/>
	<circle class="st9" cx="349.7" cy="259.4" r="1.7"/>
	<polygon class="st4" points="104.4,250.4 104,250.4 104,250 103.9,250 103.9,250.4 103.5,250.4 103.5,250.5 103.9,250.5 
		103.9,250.9 104,250.9 104,250.5 104.4,250.5 	"/>
	<polygon class="st4" points="559.4,257.3 559,257.3 559,256.9 558.9,256.9 558.9,257.3 558.5,257.3 558.5,257.4 558.9,257.4 
		558.9,257.9 559,257.9 559,257.4 559.4,257.4 	"/>
	<polygon class="st4" points="190,259.7 189.2,259.7 189.2,258.9 189,258.9 189,259.7 188.1,259.7 188.1,259.8 189,259.8 189,260.7 
		189.2,260.7 189.2,259.8 190,259.8 	"/>
	<polygon class="st4" points="217.6,314.5 216.8,314.5 216.8,313.7 216.6,313.7 216.6,314.5 215.8,314.5 215.8,314.7 216.6,314.7 
		216.6,315.5 216.8,315.5 216.8,314.7 217.6,314.7 	"/>
	<polygon class="st4" points="95.6,328 94.8,328 94.8,327.2 94.5,327.2 94.5,328 93.7,328 93.7,328.3 94.5,328.3 94.5,329.1 
		94.8,329.1 94.8,328.3 95.6,328.3 	"/>
	<polygon class="st4" points="376.4,345.1 375.6,345.1 375.6,344.3 375.4,344.3 375.4,345.1 374.6,345.1 374.6,345.3 375.4,345.3 
		375.4,346.1 375.6,346.1 375.6,345.3 376.4,345.3 	"/>
	<polygon class="st4" points="476.9,315.4 476.1,315.4 476.1,314.6 475.8,314.6 475.8,315.4 475,315.4 475,315.6 475.8,315.6 
		475.8,316.4 476.1,316.4 476.1,315.6 476.9,315.6 	"/>
	<path class="st6" d="M301.2,665.5c-7.6,8.8-16.5,16.3-26.3,22.3l-11.9-10C274.1,668.2,290.1,658,301.2,665.5z"/>
	<path class="st6" d="M264.3,653.3c0,0,28.2-30.6,48.8-23c0,0-24.1,31.7-52.6,32.5L264.3,653.3z"/>
	<path class="st6" d="M277.1,618.7c0,0,31.1-29.3,44.7-24.1c0,0-22.5,32.5-46.1,30.6L277.1,618.7z"/>
	<path class="st6" d="M289.5,586.7c0,0,26.8-34.9,41.4-32.3c0,0-16.3,31.1-41.4,35.8V586.7z"/>
	<path class="st6" d="M303.1,543.7c0,0,23.7-26.8,36.5-26.7c0,0-18.7,35.8-37.5,35.4L303.1,543.7z"/>
	<path class="st6" d="M311.1,515l22.9-55.8c0,0,1.1,50.5-25.8,66.1L311.1,515z"/>
	<path class="st6" d="M320.4,453.5c0,0,3.8-46.6,1.4-50.4c0,0,16.3,38.8-1.5,70.9L320.4,453.5z"/>
	<path class="st6" d="M246.6,664l-17.4-14.6l-2.3-1.9c0-0.1,0-0.2,0-0.3c-0.6-4.8-0.7-7.8-0.7-7.8C237,640.2,243.2,652,246.6,664z"
		/>
	<path class="st6" d="M266.7,651.9c0,0-6.7-41-28-46.1c0,0,2.7,39.7,25.9,56.1L266.7,651.9z"/>
	<path class="st6" d="M279.6,619c0,0-0.2-42.7-13.3-49c0,0-8.1,38.7,9.5,54.4L279.6,619z"/>
	<path class="st6" d="M290.6,586.2c0,0-1.9-44-15.4-50.2c0,0-4.6,34.9,13.3,53.1L290.6,586.2z"/>
	<path class="st6" d="M305,547.2c0,0-0.1-35.8-9.8-44.2c0,0-9.6,39.2,4.7,51.4L305,547.2z"/>
	<path class="st6" d="M309.9,513.2l-9.3-59.6c0,0-12.8,48.8,9.8,70.3L309.9,513.2z"/>
	<path class="st6" d="M311.8,454c0,0-24.1-40.1-23.6-44.5c0,0,2.5,41.9,32.9,62.9L311.8,454z"/>
	<path class="st6" d="M314.6,442.2c0,0-22.8-56.9-33.1-61.5c0,0,32.5,16.5,34.9,59.9L314.6,442.2z"/>
	<path class="st10" d="M302,552.8l-1.5-0.5c19.2-62.6,24-102.5,13.5-112.5l1.1-1.2C326.2,449.1,321.6,488.6,302,552.8z"/>
	<path class="st10" d="M303.4,548l-0.7,2.4l-0.6,1.8c-0.1,0.2-0.1,0.3-0.2,0.5c-3,9.6-6.4,20.1-10.2,31.1c-0.7,2.1-1.5,4.2-2.1,6.3
		c-2.8,8-5.7,16.4-8.8,25c-0.4,1.2-0.9,2.4-1.3,3.7l-0.1,0.2c-0.7,2-1.5,4.1-2.3,6.2c-2.8,7.9-5.9,15.8-8.9,24.1
		c-0.8,2.3-1.7,4.6-2.6,6.8c-0.7,1.7-1.3,3.5-2,5.3c-0.2,0.4-0.3,0.9-0.5,1.3c-1.5,3.8-3,7.6-4.5,11.5l-2-1.6
		c1.3-3.3,2.6-6.5,3.8-9.7c0.4-1.1,0.8-2,1.2-3c0.8-2.1,1.6-4.2,2.4-6.3l0.1-0.2c0.6-1.5,1.1-3,1.7-4.5c3.3-8.4,6.4-16.7,9.4-24.7
		l1.1-2.9c0.4-1,0.7-2,1.1-3c0.6-1.6,1.2-3.2,1.8-4.7c3.1-8.5,6-16.7,8.8-24.5c0.7-2,1.4-4.1,2.1-6c3.5-10.1,6.7-19.7,9.4-28.6
		c0.5-1.6,1.1-3.3,1.5-4.8c0-0.1,0.1-0.2,0.1-0.3l1.1-0.6L303.4,548z"/>
	<path class="st6" d="M300.4,692.9l4.1,19.7l-6-5C298.8,702.8,299.4,697.8,300.4,692.9z"/>
	<path class="st6" d="M314.8,689.8c0,0,4.9-46.5,8-49.7c0,0-23.2,35-11.6,70L314.8,689.8z"/>
	<path class="st6" d="M329.7,734l-7.6-6.3l12.1-34C334.3,693.7,335.8,714.6,329.7,734z"/>
	<path class="st6" d="M323.2,691.9c0,0,31.1-34.9,31.4-39.4c0,0-10.2,40.8-44,55.7L323.2,691.9z"/>
	<path class="st6" d="M322.6,679.8c0,0,32.9-51.7,43.9-54.3c0,0-35,10.2-45.4,52.4L322.6,679.8z"/>
	<path class="st10" d="M323.7,677.6c-0.6,0.4-1.2,0.9-1.8,1.5c-4.2,4.2-7.1,12.9-8.5,25.8c-0.1,0.8-0.2,1.5-0.2,2.4
		c-0.4,3.7-0.6,7.8-0.8,12.2l-1.6-1.4c0.1-2.8,0.2-5.4,0.5-7.9c0.1-0.7,0.1-1.4,0.2-2.1l0.1-0.6c0.5-6.4,1.7-12.7,3.6-18.9
		c1.6-5,3.7-8.6,6.1-11c0.6-0.5,1.1-1,1.7-1.4L323.7,677.6z"/>
	<path class="st6" d="M373.9,769.5l-0.9,1l-0.2-0.2C373.2,769.9,373.5,769.7,373.9,769.5z"/>
	<path class="st6" d="M416.5,718.8l-22.4,26.7l0,0c-5.2,2.8-10.7,4.6-16.3,4.5c-0.6,0-1.1,0-1.6-0.1l0.2-0.8l0.7-3.2l0.5-2.4
		l0.6-0.6c0.4-0.4,1.1-1,1.9-1.7l1.4-1.2l0,0C388.7,733.5,405.1,720.3,416.5,718.8z"/>
	<path class="st6" d="M390,711.4c0,0,26.8-34.9,41.4-32.3c0,0-16.3,31.1-41.4,35.8L390,711.4L390,711.4z"/>
	<path class="st6" d="M403.4,668.3c0,0,23.7-26.8,36.5-26.7c0,0-18.7,35.8-37.5,35.4L403.4,668.3z"/>
	<path class="st6" d="M411.5,639.6l22.9-55.8c0,0,1.1,50.5-25.8,66.1L411.5,639.6z"/>
	<path class="st6" d="M420.7,578.1c0,0,3.8-46.6,1.4-50.4c0,0,16.3,38.8-1.5,70.9L420.7,578.1z"/>
	<path class="st6" d="M363.5,762.5l-22.6-19c-0.9-4.3-1.6-8.6-2-12.9C352.1,733.5,359.6,750,363.5,762.5z"/>
	<path class="st6" d="M380,743.6c0,0-0.2-42.7-13.3-49c0,0-8.1,38.7,9.5,54.4L380,743.6z"/>
	<path class="st6" d="M390.9,711c0,0-1.9-44-15.4-50.2c0,0-4.6,34.9,13.3,53.1L390.9,711z"/>
	<path class="st6" d="M405.3,671.8c0,0-0.1-35.8-9.8-44.2c0,0-9.6,39.2,4.7,51.4L405.3,671.8z"/>
	<path class="st6" d="M410.3,637.8l-9.3-59.6c0,0-12.8,48.8,9.8,70.3L410.3,637.8z"/>
	<path class="st6" d="M412.1,578.6c0,0-24.1-40.1-23.6-44.5c0,0,2.6,41.9,32.9,62.9L412.1,578.6z"/>
	<path class="st6" d="M415,566.8c0,0-22.8-56.9-33.1-61.5c0,0,32.5,16.5,34.9,59.9L415,566.8z"/>
	<path class="st10" d="M402.4,677.3l-1.5-0.5c19.2-62.6,24-102.5,13.5-112.5l1.1-1.2C426.5,573.7,422,613.2,402.4,677.3z"/>
	<path class="st10" d="M403.8,672.8c-0.2,0.8-0.5,1.6-0.7,2.4l0,0c-0.2,0.6-0.3,1.1-0.6,1.7l0,0l0,0c-0.1,0.2-0.1,0.3-0.2,0.5
		c-3,9.6-6.4,20.1-10.2,31.1l0,0c-0.7,2.1-1.5,4.2-2.2,6.3c-2.8,8-5.7,16.4-8.8,25l0,0c-0.4,1.2-0.9,2.4-1.3,3.7l-0.1,0.2l0,0
		c-0.7,2-1.5,4.1-2.3,6.2c-2.2,6.1-4.6,12.4-6.9,18.7l-1.9-1.5c2.4-6.2,4.6-12.3,6.9-18.3l1.1-2.9c0.4-1,0.7-2,1.1-3
		c0.6-1.6,1.1-3.2,1.8-4.7c3.1-8.5,6-16.7,8.8-24.5c0.7-2,1.4-4.1,2.1-6l0,0c3.5-10.1,6.7-19.7,9.4-28.6c0.5-1.6,1-3.2,1.5-4.7
		c0.1-0.2,0.1-0.3,0.2-0.4l1.1-0.6L403.8,672.8z"/>
	<path class="st6" d="M508.7,600.2c0,0,14.4-41.7,29.1-43.7c0,0-5.5,34.7-28,47L508.7,600.2z"/>
	<path class="st6" d="M507.8,555.1c0,0,14-32.9,26.2-36.9c0,0-6.4,39.8-24.3,45.5L507.8,555.1z"/>
	<path class="st6" d="M506.3,525.4l4-60.1c0,0,17.1,47.5-3.5,70.9L506.3,525.4z"/>
	<path class="st6" d="M495.6,464c0,0-11.2-45.4-14.7-48.2c0,0,27.8,31.5,21,67.8L495.6,464z"/>
	<path class="st6" d="M483.1,639.8l-8.5,10c-3.1-4.9-5.9-9.9-8.1-15.3C472.3,634,477.9,636.2,483.1,639.8z"/>
	<path class="st6" d="M509.5,599.5c0,0-15.7-41.1-30.5-42.7c0,0,6.7,34.5,29.5,46.2L509.5,599.5z"/>
	<path class="st6" d="M510.7,557.8c0,0-11.5-33.9-23.2-38.8c0,0,3.3,40.2,20.7,47.2L510.7,557.8z"/>
	<path class="st6" d="M504.7,524.1l-27.8-53.5c0,0,3.4,50.3,31.6,63.5L504.7,524.1z"/>
	<path class="st6" d="M487.6,467.3c0,0-35.6-30.3-36.5-34.7c0,0,15.8,39,51.2,49.2L487.6,467.3z"/>
	<path class="st6" d="M486.6,455.2c0,0-39.7-46.7-50.9-47.9c0,0,36.1,5.4,52.2,45.7L486.6,455.2z"/>
	<path class="st10" d="M509.6,564.1H508c-1.6-65.5-9.8-104.9-22.9-111l0.6-1.5C499.7,458.1,507.9,496.9,509.6,564.1z"/>
	<path class="st10" d="M508.2,596.3c-0.1,2.1-0.1,4.2-0.1,6.3c0,2.7-0.1,4.8-0.2,7.6c0.5-0.3,1.1-1.4,1.9-2.4c0-2.2,0-2.2,0-4.4
		v-6.7c0-11.7-0.1-22.7-0.3-32.8v-2.3c-0.1-0.9-0.1-1.7-0.1-2.5l-0.6,0.7l-0.9,0.9v0.2c0.1,1.7,0.1,3.4,0.1,5.1
		C508.3,575.5,508.3,585.6,508.2,596.3z"/>
	<path class="st6" d="M374.8,409.5c0,0-6.4,1-4.7,5.2c0,0.5,0.3,0.9,0.8,1c0,0-0.1-0.3,0.6-0.3c0.2,0,0.5-0.1,0.7-0.1
		c0.3-0.1,0.6-0.2,0.7-0.5l0,0c0,0,1.6-1.1,1.7-4.1c0,0,0.4-0.7,0.3-0.9l-1,0.7c0.3,0.4,0.4,0.9,0.4,1.4c0,0-0.3-1.4-0.5-1.3
		l-0.5,0.4c0.5,0.6,0.7,1.5,0.7,2.3c0,0-0.2-1.7-0.8-2.1l-0.6,0.6c0.6,0.7,0.9,1.5,0.8,2.4c0,0-0.2-1.7-0.9-2.3l-0.6,0.7
		c0.5,0.6,0.8,1.4,0.7,2.3c0,0-0.5-2-0.9-2c-0.2,0.2-0.4,0.6-0.5,0.9c0,0,0.7,0.9,0.5,1.5c0,0-0.5-1.3-0.6-1.3
		c-0.2,0.5-0.3,1.1-0.3,1.6c-0.1-0.6,0-1.1,0.2-1.7c-0.3,0.2-0.6,0.4-0.8,0.7c0,0-0.1-0.7,0.9-0.9c0.2-0.3,0.2-0.6,0.5-0.8
		c-0.5,0.1-1.1,0.2-1.5,0.5c0.4-0.5,1-0.7,1.6-0.7l0.6-0.7c-0.7,0-1.2,0.2-1.8,0.4c0.5-0.5,1.2-0.7,2-0.6l0.7-0.6
		c-0.6,0-1.1,0.1-1.7,0.2c0.6-0.3,1.2-0.5,2-0.4l0.5-0.3c0,0-0.8,0-1.1,0s-0.2,0-0.2,0c0.5-0.2,1-0.2,1.5-0.2
		C374.2,410,374.5,409.8,374.8,409.5z"/>
	<path class="st8" d="M374.8,409.5c0,0-6.4,1-4.7,5.2c0,0.5,0.3,0.9,0.8,1c0,0-0.1-0.3,0.6-0.3c0.2,0,0.5-0.1,0.7-0.1
		c0.3-0.1,0.6-0.2,0.7-0.5l0,0c0,0,1.6-1.1,1.7-4.1c0,0,0.4-0.7,0.3-0.9l-1,0.7c0.3,0.4,0.4,0.9,0.4,1.4c0,0-0.3-1.4-0.5-1.3
		l-0.5,0.4c0.5,0.6,0.7,1.5,0.7,2.3c0,0-0.2-1.7-0.8-2.1l-0.6,0.6c0.6,0.7,0.9,1.5,0.8,2.4c0,0-0.2-1.7-0.9-2.3l-0.6,0.7
		c0.5,0.6,0.8,1.4,0.7,2.3c0,0-0.5-2-0.9-2c-0.2,0.2-0.4,0.6-0.5,0.9c0,0,0.7,0.9,0.5,1.5c0,0-0.5-1.3-0.6-1.3
		c-0.2,0.5-0.3,1.1-0.3,1.6c-0.1-0.6,0-1.1,0.2-1.7c-0.3,0.2-0.6,0.4-0.8,0.7c0,0-0.1-0.7,0.9-0.9c0.2-0.3,0.2-0.6,0.5-0.8
		c-0.5,0.1-1.1,0.2-1.5,0.5c0.4-0.5,1-0.7,1.6-0.7l0.6-0.7c-0.7,0-1.2,0.2-1.8,0.4c0.5-0.5,1.2-0.7,2-0.6l0.7-0.6
		c-0.6,0-1.1,0.1-1.7,0.2c0.6-0.3,1.2-0.5,2-0.4l0.5-0.3c0,0-0.8,0-1.1,0s-0.2,0-0.2,0c0.5-0.2,1-0.2,1.5-0.2
		C374.2,410,374.5,409.8,374.8,409.5z"/>
	<path class="st6" d="M102.6,385.5c0,0-6.4,1-4.7,5.2c0,0.5,0.3,0.9,0.8,1.1c0,0-0.1-0.3,0.6-0.3c0.2,0,0.5-0.1,0.7-0.1
		c0.3-0.1,0.6-0.2,0.7-0.5l0,0c0,0,1.6-1.1,1.7-4.1c0,0,0.4-0.7,0.3-0.9l-1,0.7c0.3,0.4,0.4,0.9,0.4,1.4c0,0-0.3-1.4-0.5-1.3
		c-0.1,0-0.5,0.4-0.5,0.4c0.5,0.6,0.7,1.5,0.7,2.3c0,0-0.2-1.7-0.8-2.1l-0.7,0.6c0.6,0.6,0.9,1.5,0.8,2.4c0,0-0.2-1.8-0.9-2.4
		l-0.6,0.7c0.5,0.6,0.8,1.4,0.7,2.3c0,0-0.5-2-0.9-2c-0.2,0.2-0.4,0.6-0.5,0.9c0,0,0.7,0.9,0.5,1.5c0,0-0.5-1.3-0.7-1.3
		c-0.2,0.5-0.3,1.1-0.3,1.6c-0.1-0.6,0-1.1,0.2-1.7c-0.3,0.2-0.7,0.4-0.8,0.7c0,0-0.1-0.7,0.9-0.9c0.2-0.3,0.2-0.6,0.5-0.8
		c-0.5,0.1-1.1,0.2-1.5,0.5c0.4-0.5,1-0.7,1.6-0.7l0.6-0.7c-0.7,0-1.2,0.2-1.8,0.4c0.5-0.5,1.2-0.7,2-0.6l0.7-0.6
		c-0.6,0-1.1,0.1-1.7,0.2c0.6-0.4,1.3-0.5,2-0.4l0.5-0.3c0,0-0.8,0-1.1,0s-0.2,0-0.2,0c0.5-0.2,1-0.2,1.5-0.2
		C101.9,386,102.2,385.8,102.6,385.5z"/>
	<path class="st8" d="M102.6,385.5c0,0-6.4,1-4.7,5.2c0,0.5,0.3,0.9,0.8,1.1c0,0-0.1-0.3,0.6-0.3c0.2,0,0.5-0.1,0.7-0.1
		c0.3-0.1,0.6-0.2,0.7-0.5l0,0c0,0,1.6-1.1,1.7-4.1c0,0,0.4-0.7,0.3-0.9l-1,0.7c0.3,0.4,0.4,0.9,0.4,1.4c0,0-0.3-1.4-0.5-1.3
		c-0.1,0-0.5,0.4-0.5,0.4c0.5,0.6,0.7,1.5,0.7,2.3c0,0-0.2-1.7-0.8-2.1l-0.7,0.6c0.6,0.6,0.9,1.5,0.8,2.4c0,0-0.2-1.8-0.9-2.4
		l-0.6,0.7c0.5,0.6,0.8,1.4,0.7,2.3c0,0-0.5-2-0.9-2c-0.2,0.2-0.4,0.6-0.5,0.9c0,0,0.7,0.9,0.5,1.5c0,0-0.5-1.3-0.7-1.3
		c-0.2,0.5-0.3,1.1-0.3,1.6c-0.1-0.6,0-1.1,0.2-1.7c-0.3,0.2-0.7,0.4-0.8,0.7c0,0-0.1-0.7,0.9-0.9c0.2-0.3,0.2-0.6,0.5-0.8
		c-0.5,0.1-1.1,0.2-1.5,0.5c0.4-0.5,1-0.7,1.6-0.7l0.6-0.7c-0.7,0-1.2,0.2-1.8,0.4c0.5-0.5,1.2-0.7,2-0.6l0.7-0.6
		c-0.6,0-1.1,0.1-1.7,0.2c0.6-0.4,1.3-0.5,2-0.4l0.5-0.3c0,0-0.8,0-1.1,0s-0.2,0-0.2,0c0.5-0.2,1-0.2,1.5-0.2
		C101.9,386,102.2,385.8,102.6,385.5z"/>
	<path class="st6" d="M348.4,418c0,0-6.4,1-4.7,5.2c0,0.5,0.3,0.9,0.8,1.1c0,0-0.1-0.3,0.6-0.3c0.2,0,0.5-0.1,0.7-0.1
		c0.3-0.1,0.6-0.2,0.7-0.5l0,0c0,0,1.6-1.1,1.7-4.1c0,0,0.4-0.7,0.3-0.9l-1,0.7c0.3,0.4,0.4,0.9,0.4,1.4c0,0-0.3-1.4-0.5-1.3
		l-0.5,0.4c0.5,0.6,0.7,1.5,0.6,2.3c0,0-0.2-1.7-0.8-2.1l-0.7,0.6c0.6,0.6,0.9,1.5,0.8,2.4c0,0-0.2-1.8-0.9-2.4l-0.6,0.6
		c0.5,0.7,0.8,1.5,0.7,2.3c0,0-0.5-2-0.9-2c-0.2,0.2-0.4,0.6-0.5,0.9c0,0,0.6,0.9,0.5,1.5c0,0-0.5-1.3-0.7-1.3
		c-0.2,0.5-0.3,1.1-0.3,1.6c-0.1-0.6,0-1.1,0.2-1.7c-0.3,0.2-0.7,0.3-0.8,0.7c0,0,0-0.7,0.9-0.9c0.2-0.3,0.2-0.6,0.5-0.8
		c-0.5,0.1-1.1,0.2-1.5,0.5c0.4-0.5,1-0.8,1.6-0.7l0.6-0.7c-0.6,0-1.2,0.2-1.8,0.4c0.5-0.5,1.2-0.7,2-0.6l0.6-0.6
		c-0.6,0-1.1,0.1-1.7,0.2c0.6-0.4,1.2-0.5,2-0.4l0.5-0.3c0,0-0.8,0-1.1,0c-0.2,0-0.2,0-0.2,0c0.5-0.2,1-0.2,1.5-0.2
		C347.7,418.6,348,418.4,348.4,418z"/>
	<path class="st8" d="M348.4,418c0,0-6.4,1-4.7,5.2c0,0.5,0.3,0.9,0.8,1.1c0,0-0.1-0.3,0.6-0.3c0.2,0,0.5-0.1,0.7-0.1
		c0.3-0.1,0.6-0.2,0.7-0.5l0,0c0,0,1.6-1.1,1.7-4.1c0,0,0.4-0.7,0.3-0.9l-1,0.7c0.3,0.4,0.4,0.9,0.4,1.4c0,0-0.3-1.4-0.5-1.3
		l-0.5,0.4c0.5,0.6,0.7,1.5,0.6,2.3c0,0-0.2-1.7-0.8-2.1l-0.7,0.6c0.6,0.6,0.9,1.5,0.8,2.4c0,0-0.2-1.8-0.9-2.4l-0.6,0.6
		c0.5,0.7,0.8,1.5,0.7,2.3c0,0-0.5-2-0.9-2c-0.2,0.2-0.4,0.6-0.5,0.9c0,0,0.6,0.9,0.5,1.5c0,0-0.5-1.3-0.7-1.3
		c-0.2,0.5-0.3,1.1-0.3,1.6c-0.1-0.6,0-1.1,0.2-1.7c-0.3,0.2-0.7,0.3-0.8,0.7c0,0,0-0.7,0.9-0.9c0.2-0.3,0.2-0.6,0.5-0.8
		c-0.5,0.1-1.1,0.2-1.5,0.5c0.4-0.5,1-0.8,1.6-0.7l0.6-0.7c-0.6,0-1.2,0.2-1.8,0.4c0.5-0.5,1.2-0.7,2-0.6l0.6-0.6
		c-0.6,0-1.1,0.1-1.7,0.2c0.6-0.4,1.2-0.5,2-0.4l0.5-0.3c0,0-0.8,0-1.1,0c-0.2,0-0.2,0-0.2,0c0.5-0.2,1-0.2,1.5-0.2
		C347.7,418.6,348,418.4,348.4,418z"/>
	<path class="st6" d="M354.3,393.3c0,0-3.9,5.1,0.2,7c0.3,0.3,0.9,0.4,1.3,0.2c0,0-0.2-0.2,0.2-0.7c0.2-0.2,0.3-0.3,0.4-0.6
		c0.2-0.2,0.2-0.6,0.2-0.9l0,0c0,0,0.4-2-1.6-4.1c0,0-0.2-0.8-0.4-0.9l-0.2,1.1c0.5,0.1,0.9,0.3,1.2,0.7c0,0-1.2-0.7-1.3-0.6
		l-0.1,0.7c0.8,0.2,1.5,0.6,2,1.2c0,0-1.3-1.1-2-1l-0.1,0.9c0.9,0.1,1.7,0.6,2.3,1.2c0,0-1.4-1.1-2.3-1.1l0.1,0.9
		c0.8,0.1,1.5,0.5,2.1,1.1c0,0-1.7-1.1-2-0.9c0,0.3,0.1,0.7,0.2,1c0,0,1.1,0.2,1.4,0.7c0,0-1.2-0.6-1.3-0.5c0.2,0.5,0.5,1,0.9,1.4
		c-0.5-0.3-0.8-0.8-1.1-1.4c-0.2,0.3-0.2,0.7-0.1,1.1c0,0-0.5-0.4,0-1.3c-0.1-0.3-0.2-0.6-0.2-0.9c-0.3,0.4-0.6,0.9-0.7,1.4
		c-0.1-0.6,0.2-1.2,0.7-1.6l-0.1-0.9c-0.4,0.5-0.7,1-1.1,1.5c0,0-0.1-0.8,1-1.7l0.1-0.9c-0.4,0.4-0.8,0.9-1.1,1.4
		c0.2-0.6,0.6-1.2,1.1-1.6l0.1-0.6c0,0-0.6,0.6-0.7,0.7c-0.2,0.2-0.2,0.2-0.2,0.2c0.2-0.5,0.6-0.9,1-1.1
		C354.1,394.1,354.3,393.7,354.3,393.3z"/>
	<path class="st8" d="M354.3,393.3c0,0-3.9,5.1,0.2,7c0.3,0.3,0.9,0.4,1.3,0.2c0,0-0.2-0.2,0.2-0.7c0.2-0.2,0.3-0.3,0.4-0.6
		c0.2-0.2,0.2-0.6,0.2-0.9l0,0c0,0,0.4-2-1.6-4.1c0,0-0.2-0.8-0.4-0.9l-0.2,1.1c0.5,0.1,0.9,0.3,1.2,0.7c0,0-1.2-0.7-1.3-0.6
		l-0.1,0.7c0.8,0.2,1.5,0.6,2,1.2c0,0-1.3-1.1-2-1l-0.1,0.9c0.9,0.1,1.7,0.6,2.3,1.2c0,0-1.4-1.1-2.3-1.1l0.1,0.9
		c0.8,0.1,1.5,0.5,2.1,1.1c0,0-1.7-1.1-2-0.9c0,0.3,0.1,0.7,0.2,1c0,0,1.1,0.2,1.4,0.7c0,0-1.2-0.6-1.3-0.5c0.2,0.5,0.5,1,0.9,1.4
		c-0.5-0.3-0.8-0.8-1.1-1.4c-0.2,0.3-0.2,0.7-0.1,1.1c0,0-0.5-0.4,0-1.3c-0.1-0.3-0.2-0.6-0.2-0.9c-0.3,0.4-0.6,0.9-0.7,1.4
		c-0.1-0.6,0.2-1.2,0.7-1.6l-0.1-0.9c-0.4,0.5-0.7,1-1.1,1.5c0,0-0.1-0.8,1-1.7l0.1-0.9c-0.4,0.4-0.8,0.9-1.1,1.4
		c0.2-0.6,0.6-1.2,1.1-1.6l0.1-0.6c0,0-0.6,0.6-0.7,0.7c-0.2,0.2-0.2,0.2-0.2,0.2c0.2-0.5,0.6-0.9,1-1.1
		C354.1,394.1,354.3,393.7,354.3,393.3z"/>
	<path class="st6" d="M381.4,480.2c0,0,17.1-0.7,18.9-34.2s-16-39.2-16-39.2s-5.7-3.2-8.1-3.3c-2.4-0.1-10.9,0.7-10.9,0.7l9.3-1.8
		c0,0-13-5-16.9-5.4l14.1,3c0,0,0.2-7.8-3.2-10.4c0,0,2.8-0.2,4.4,5.4c0.9,3.3,3.3,5.9,6.4,7.2c5.2,2,12.4,5.3,14.1,8
		c0,0,3,3.2,2.6-5.1c-0.4-8.3-2.7-15.4-3.5-15.5c0,0-6.2-6.6-14.9-7c0,0,5.1-2,13.7,4.4c0,0,0.7-3.3-2.5-7.1s-8.2-11.9-13.7-12.8
		c0,0,7.6-0.5,13.7,9.4c0,0,2.3,1.5,2.4-2.3c0.2-2.8,0.7-5.6,1.5-8.3c0,0,1.9,8.5-2,12.4c0,0,7.5,9.7,7.2,20.6c0,0,2.3,5,3.2-0.9
		c0,0,0.5-8,1.5-14.8c0.8-5.5-0.7-11.1-4.2-15.5c-1.6-2-2.8-4.1-2.2-5.1l8.6,10.3c0,0,7.3-16.8,12.5-20.4c5.2-3.6,5.9-4.4,5.9-4.4
		l-8.5,10l10.7-3.7l-10.7,5c0,0-5,4-7.8,15c-2.8,11.1-3.1,17.9-3.1,17.9s15.3-12.1,18.1-11.7l-9.8,7.5c-5.4,4.1-8.8,10.3-9.3,17.1
		l0,0c0,0,19.1-4.9,23.6-5.8l8.7-8.9l-6.6,8.5l13.6-0.2l7.8-5.5c0,0-6.1,5.1-5.5,5.4c0.6,0.3,9.6,0.7,9.6,0.7s-22.8-0.2-25.4,1.5
		c-2.5,1.6-8.1,2.3-8.1,2.3l16.2,2.4l-19.3-1.4c0,0-14.5,2.7-15.4,7.2c0,0,3,7.7,5,10.8c1.6,2.5,5,10.8,5.6,18.1
		c0.6,7.3,1.6,18.4-0.9,25.2s-3.4,10.6-2.2,12.7c1.2,2,2.4,4.7-1.6,5.2c-4.1,0.5-22-0.2-22-0.2S380.4,484.2,381.4,480.2z"/>
	<path class="st0" d="M391,476.5c1.8-0.9,3.8-1.1,5.9-0.7c2.9,0.5,5.9,0.6,8.9,0.2L391,476.5z"/>
	<path class="st0" d="M401.7,437.1c0,0,0.8,12.9-0.7,15.4L401.7,437.1z"/>
	<path class="st0" d="M404.8,452.5c0,0-1.1,12.1-1.7,14.5C402.5,469.3,404.8,452.5,404.8,452.5z"/>
	<path class="st0" d="M405.8,422.8c0.7,0.2,3.9,6.7,3.3,8.6C408.4,433.2,405.8,422.8,405.8,422.8z"/>
	<path class="st0" d="M397.8,416.1c0.3,0.2,1.9,3.9,1.5,5C399,422.1,397.8,416.1,397.8,416.1z"/>
	<path class="st0" d="M411.5,437.8c-0.4,3.1-0.5,6.1-0.3,9.2c0.2,2.4,0.2,4.6-0.1,7L411.5,437.8z"/>
	<path class="st0" d="M371.8,394.2c0.4,0.6,0.7,1.2,0.7,1.9c0,0.7-0.1,1.4,0,2c0.1,0.7,0.4,1.5,1.1,1.6L371.8,394.2z"/>
	<path class="st0" d="M383.9,371.8c0.9,0.9,1.7,1.9,2.4,2.9c0.2,0.3,0.4,0.7,0.7,1c0.4,0.4,0.8,0.7,1.3,1.1c1.1,0.8,1.8,2,2.1,3.3
		L383.9,371.8z"/>
	<path class="st0" d="M418.4,352.6c-0.2,0.4-0.5,0.8-0.8,1.1c-0.3,0.3-0.7,0.5-0.9,0.8c-0.2,0.2-0.4,0.6-0.6,0.9
		c-0.7,1.1-1.5,2.1-2.4,3.1L418.4,352.6z"/>
	<path class="st0" d="M402.4,371.6c0.5,0.4,0.8,1.1,0.7,1.8c-0.1,0.7-0.1,1.4,0.2,2c0.1,0.3,0.3,0.5,0.4,0.8
		c0.2,0.5,0.2,1.1,0.2,1.5c0,0.6,0,1.2-0.1,1.8c0.1,0.7-0.2,1.5-0.6,2L402.4,371.6z"/>
	<path class="st6" d="M407.2,390.6c-0.6,0.2-1.1,0.6-1.5,1.1c-0.5,0.4-0.7,1-0.9,1.5c0,0.2,0,0.5-0.1,0.7c-0.1,0.3-0.2,0.6-0.5,0.9
		c-0.4,0.5-0.8,1-1.2,1.4L407.2,390.6z"/>
	<path class="st0" d="M402.9,407.8c0.4-0.3,0.8-0.6,1.2-0.8c0.4-0.2,0.8-0.4,1.2-0.6c0.6-0.2,1.4-0.2,2-0.2c0.7,0,1.4-0.3,1.9-0.7
		L402.9,407.8z"/>
	<path class="st0" d="M429.7,399.4c-0.8,0-1.6,0.1-2.4,0.4c-0.3,0.2-0.7,0.5-1.1,0.7c-0.5,0.2-1,0.4-1.5,0.4L429.7,399.4z"/>
	<path class="st0" d="M418.6,402.8c0.2-0.1,0.4-0.1,0.6,0.2c0.2,0.2,0.2,0.4,0.4,0.6c0.3,0.2,0.7,0.4,1.2,0.4L418.6,402.8z"/>
	<path class="st0" d="M414,385.7l-0.8,0.4c-0.8,0.4-1.5,0.9-2.3,1.4L414,385.7z"/>
	<path class="st0" d="M405.1,393.3c-0.5-0.1-1,0.4-1.1,0.9c0,0.5-0.1,1.1-0.2,1.5c-0.2,0.4-0.4,0.8-0.7,1.1L405.1,393.3z"/>
	<path class="st0" d="M396.6,394.2c-0.5,1.4,0.5,2.8,0.2,4.3c-0.1,0.4-0.2,0.8-0.4,1.3c-0.2,1.1,0.2,2.4,1,3.3L396.6,394.2z"/>
	<g class="st11">
		<path class="st12" d="M381.4,480.2c0,0,17.1-0.7,18.9-34.2s-16-39.2-16-39.2s-5.7-3.2-8.1-3.3c-2.4-0.1-10.9,0.7-10.9,0.7l9.3-1.8
			c0,0-13-5-16.9-5.4l14.1,3c0,0,0.2-7.8-3.2-10.4c0,0,2.8-0.2,4.4,5.4c0.9,3.3,3.3,5.9,6.4,7.2c5.2,2,12.4,5.3,14.1,8
			c0,0,3,3.2,2.6-5.1c-0.4-8.3-2.7-15.4-3.5-15.5c0,0-6.2-6.6-14.9-7c0,0,5.1-2,13.7,4.4c0,0,0.7-3.3-2.5-7.1s-8.2-11.9-13.7-12.8
			c0,0,7.6-0.5,13.7,9.4c0,0,2.3,1.5,2.4-2.3c0.2-2.8,0.7-5.6,1.5-8.3c0,0,1.9,8.5-2,12.4c0,0,7.5,9.7,7.2,20.6c0,0,2.3,5,3.2-0.9
			c0,0,0.5-8,1.5-14.8c0.8-5.5-0.7-11.1-4.2-15.5c-1.6-2-2.8-4.1-2.2-5.1l8.6,10.3c0,0,7.3-16.8,12.5-20.4c5.2-3.6,5.9-4.4,5.9-4.4
			l-8.5,10l10.7-3.7l-10.7,5c0,0-5,4-7.8,15c-2.8,11.1-3.1,17.9-3.1,17.9s15.3-12.1,18.1-11.7l-9.8,7.5c-5.4,4.1-8.8,10.3-9.3,17.1
			l0,0c0,0,19.1-4.9,23.6-5.8l8.7-8.9l-6.6,8.5l13.6-0.2l7.8-5.5c0,0-6.1,5.1-5.5,5.4c0.6,0.3,9.6,0.7,9.6,0.7s-22.8-0.2-25.4,1.5
			c-2.5,1.6-8.1,2.3-8.1,2.3l16.2,2.4l-19.3-1.4c0,0-14.5,2.7-15.4,7.2c0,0,3,7.7,5,10.8c1.6,2.5,5,10.8,5.6,18.1
			c0.6,7.3,1.6,18.4-0.9,25.2s-3.4,10.6-2.2,12.7c1.2,2,2.4,4.7-1.6,5.2c-4.1,0.5-22-0.2-22-0.2S380.4,484.2,381.4,480.2z"/>
		<path class="st3" d="M391,476.5c1.8-0.9,3.8-1.1,5.9-0.7c2.9,0.5,5.9,0.6,8.9,0.2L391,476.5z"/>
		<path class="st3" d="M401.7,437.1c0,0,0.8,12.9-0.7,15.4L401.7,437.1z"/>
		<path class="st3" d="M404.8,452.5c0,0-1.1,12.1-1.7,14.5C402.5,469.3,404.8,452.5,404.8,452.5z"/>
		<path class="st3" d="M405.8,422.8c0.7,0.2,3.9,6.7,3.3,8.6C408.4,433.2,405.8,422.8,405.8,422.8z"/>
		<path class="st3" d="M397.8,416.1c0.3,0.2,1.9,3.9,1.5,5C399,422.1,397.8,416.1,397.8,416.1z"/>
		<path class="st3" d="M411.5,437.8c-0.4,3.1-0.5,6.1-0.3,9.2c0.2,2.4,0.2,4.6-0.1,7L411.5,437.8z"/>
		<path class="st3" d="M371.8,394.2c0.4,0.6,0.7,1.2,0.7,1.9c0,0.7-0.1,1.4,0,2c0.1,0.7,0.4,1.5,1.1,1.6L371.8,394.2z"/>
		<path class="st3" d="M383.9,371.8c0.9,0.9,1.7,1.9,2.4,2.9c0.2,0.3,0.4,0.7,0.7,1c0.4,0.4,0.8,0.7,1.3,1.1c1.1,0.8,1.8,2,2.1,3.3
			L383.9,371.8z"/>
		<path class="st3" d="M418.4,352.6c-0.2,0.4-0.5,0.8-0.8,1.1c-0.3,0.3-0.7,0.5-0.9,0.8c-0.2,0.2-0.4,0.6-0.6,0.9
			c-0.7,1.1-1.5,2.1-2.4,3.1L418.4,352.6z"/>
		<path class="st3" d="M402.4,371.6c0.5,0.4,0.8,1.1,0.7,1.8c-0.1,0.7-0.1,1.4,0.2,2c0.1,0.3,0.3,0.5,0.4,0.8
			c0.2,0.5,0.2,1.1,0.2,1.5c0,0.6,0,1.2-0.1,1.8c0.1,0.7-0.2,1.5-0.6,2L402.4,371.6z"/>
		<path class="st12" d="M407.2,390.6c-0.6,0.2-1.1,0.6-1.5,1.1c-0.5,0.4-0.7,1-0.9,1.5c0,0.2,0,0.5-0.1,0.7
			c-0.1,0.3-0.2,0.6-0.5,0.9c-0.4,0.5-0.8,1-1.2,1.4L407.2,390.6z"/>
		<path class="st3" d="M402.9,407.8c0.4-0.3,0.8-0.6,1.2-0.8c0.4-0.2,0.8-0.4,1.2-0.6c0.6-0.2,1.4-0.2,2-0.2c0.7,0,1.4-0.3,1.9-0.7
			L402.9,407.8z"/>
		<path class="st3" d="M429.7,399.4c-0.8,0-1.6,0.1-2.4,0.4c-0.3,0.2-0.7,0.5-1.1,0.7c-0.5,0.2-1,0.4-1.5,0.4L429.7,399.4z"/>
		<path class="st3" d="M418.6,402.8c0.2-0.1,0.4-0.1,0.6,0.2c0.2,0.2,0.2,0.4,0.4,0.6c0.3,0.2,0.7,0.4,1.2,0.4L418.6,402.8z"/>
		<path class="st3" d="M414,385.7l-0.8,0.4c-0.8,0.4-1.5,0.9-2.3,1.4L414,385.7z"/>
		<path class="st3" d="M405.1,393.3c-0.5-0.1-1,0.4-1.1,0.9c0,0.5-0.1,1.1-0.2,1.5c-0.2,0.4-0.4,0.8-0.7,1.1L405.1,393.3z"/>
		<path class="st3" d="M396.6,394.2c-0.5,1.4,0.5,2.8,0.2,4.3c-0.1,0.4-0.2,0.8-0.4,1.3c-0.2,1.1,0.2,2.4,1,3.3L396.6,394.2z"/>
	</g>
	<path class="st6" d="M102.6,446c0,0-17.1-0.7-18.9-34.2c-1.8-33.5,16-39.2,16-39.2s5.7-3.2,8.2-3.3s10.9,0.7,10.9,0.7l-9.3-1.8
		c0,0,13-5,16.9-5.4l-14.1,2.9c0,0-0.2-7.8,3.2-10.4c0,0-2.8-0.2-4.4,5.4c-0.9,3.3-3.3,5.9-6.4,7.2c-5.2,2-12.4,5.2-14.1,8
		c0,0-3,3.2-2.6-5.1c0.4-8.3,2.7-15.3,3.4-15.5c0,0,6.2-6.6,15-7c0,0-5.1-2-13.7,4.4c0,0-0.7-3.3,2.5-7.1
		c3.3-3.8,8.2-11.9,13.7-12.8c0,0-7.6-0.5-13.7,9.4c0,0-2.3,1.5-2.4-2.3c-0.2-2.8-0.7-5.6-1.5-8.3c0,0-1.9,8.5,2,12.4
		c0,0-7.5,9.7-7.2,20.6c0,0-2.3,5-3.2-0.9c0,0-0.5-8-1.5-14.8c-0.8-5.5,0.7-11.1,4.2-15.5c1.6-2,2.8-4.1,2.2-5.1l-8.6,10.3
		c0,0-7.2-16.8-12.5-20.5c-5.3-3.7-5.9-4.4-5.9-4.4l8.5,10.2l-10.7-3.7l10.7,5c0,0,5,4.1,7.8,15c2.8,11,3.1,17.9,3.1,17.9
		S65,346,62.1,346.4l9.8,7.5c5.4,4.1,8.8,10.3,9.3,17.1l0,0c0,0-19.1-4.9-23.6-5.8l-8.7-8.9l6.6,8.5l-13.6-0.2l-7.8-5.5
		c0,0,6.2,5.1,5.5,5.4s-9.6,0.7-9.6,0.7s22.8-0.2,25.4,1.5c2.5,1.7,8.1,2.3,8.1,2.3l-16.2,2.4l19.3-1.4c0,0,14.5,2.7,15.4,7.2
		c0,0-2.9,7.7-5,10.8c-1.6,2.5-5,10.8-5.6,18c-0.7,7.2-1.5,18.4,0.9,25.2s3.4,10.6,2.2,12.8c-1.2,2.1-2.4,4.7,1.6,5.2
		c4.1,0.5,22-0.2,22-0.2S103.6,450,102.6,446z"/>
	<path class="st0" d="M93,442.3c-1.8-0.9-3.8-1.1-5.8-0.7c-2.9,0.5-5.9,0.6-8.9,0.2L93,442.3z"/>
	<path class="st0" d="M82.3,402.8c0,0-0.8,12.9,0.7,15.4L82.3,402.8z"/>
	<path class="st0" d="M79.2,418.3c0,0,1.1,12.1,1.8,14.5C81.8,435.1,79.2,418.3,79.2,418.3z"/>
	<path class="st0" d="M78.3,388.6c-0.7,0.2-3.9,6.7-3.3,8.6C75.5,399.1,78.3,388.6,78.3,388.6z"/>
	<path class="st0" d="M86.3,381.9c-0.3,0.2-1.8,3.9-1.5,5C85,388,86.3,381.9,86.3,381.9z"/>
	<path class="st0" d="M72.5,403.6c0.4,3.1,0.5,6.1,0.3,9.2c-0.2,2.4-0.2,4.6,0.1,7L72.5,403.6z"/>
	<path class="st0" d="M112.3,359.9c-0.4,0.6-0.7,1.2-0.7,1.9c0,0.7,0.1,1.4,0,2c-0.1,0.7-0.4,1.5-1.1,1.6L112.3,359.9z"/>
	<path class="st0" d="M100.1,337.7c-0.9,0.9-1.7,1.9-2.4,2.9c-0.2,0.3-0.4,0.7-0.7,1c-0.4,0.4-0.8,0.7-1.3,1.1
		c-1.1,0.8-1.8,2-2.1,3.3L100.1,337.7z"/>
	<path class="st0" d="M65.7,318.3c0.2,0.4,0.5,0.8,0.8,1.1s0.7,0.5,0.9,0.8c0.2,0.2,0.4,0.6,0.6,0.9c0.7,1.1,1.5,2.1,2.4,3.1
		L65.7,318.3z"/>
	<path class="st0" d="M81.6,337.4c-0.5,0.4-0.8,1.1-0.7,1.8s0.1,1.4-0.1,2c-0.1,0.3-0.3,0.5-0.4,0.8c-0.2,0.5-0.2,1.1-0.2,1.5
		c0,0.6,0,1.2,0.1,1.8c-0.1,0.7,0.2,1.5,0.6,2L81.6,337.4z"/>
	<path class="st6" d="M76.9,356.4c0.6,0.2,1.1,0.6,1.5,1.1c0.5,0.4,0.7,1,0.9,1.5c0,0.2,0,0.5,0.1,0.7c0.1,0.3,0.2,0.7,0.5,0.9
		c0.4,0.5,0.8,1,1.2,1.4L76.9,356.4z"/>
	<path class="st0" d="M81.2,373.6c-0.4-0.3-0.8-0.6-1.2-0.8c-0.4-0.2-0.8-0.4-1.2-0.6c-0.7-0.2-1.4-0.2-2-0.2
		c-0.7,0-1.4-0.3-1.9-0.7L81.2,373.6z"/>
	<path class="st0" d="M54.3,365.3c0.8,0,1.6,0.1,2.4,0.4c0.3,0.2,0.7,0.5,1.1,0.7c0.5,0.2,1,0.4,1.5,0.4L54.3,365.3z"/>
	<path class="st0" d="M65.4,368.6c-0.2-0.1-0.4-0.1-0.6,0.2c-0.2,0.2-0.2,0.4-0.4,0.6c-0.3,0.2-0.7,0.4-1.2,0.4L65.4,368.6z"/>
	<path class="st0" d="M70.1,351.6l0.8,0.4c0.8,0.4,1.5,0.9,2.3,1.4L70.1,351.6z"/>
	<path class="st0" d="M78.8,359.1c0.5-0.1,1,0.4,1.1,0.9c0,0.5,0.1,1.1,0.2,1.5c0.2,0.4,0.4,0.8,0.7,1.1L78.8,359.1z"/>
	<path class="st0" d="M87.5,360c0.5,1.4-0.5,2.8-0.2,4.3c0.1,0.4,0.3,0.8,0.4,1.3c0.2,1.1-0.2,2.4-0.9,3.3L87.5,360z"/>
	<g class="st11">
		<path class="st12" d="M102.6,446c0,0-17.1-0.7-18.9-34.2c-1.8-33.5,16-39.2,16-39.2s5.7-3.2,8.2-3.3s10.9,0.7,10.9,0.7l-9.3-1.8
			c0,0,13-5,16.9-5.4l-14.1,2.9c0,0-0.2-7.8,3.2-10.4c0,0-2.8-0.2-4.4,5.4c-0.9,3.3-3.3,5.9-6.4,7.2c-5.2,2-12.4,5.2-14.1,8
			c0,0-3,3.2-2.6-5.1c0.4-8.3,2.7-15.3,3.4-15.5c0,0,6.2-6.6,15-7c0,0-5.1-2-13.7,4.4c0,0-0.7-3.3,2.5-7.1
			c3.3-3.8,8.2-11.9,13.7-12.8c0,0-7.6-0.5-13.7,9.4c0,0-2.3,1.5-2.4-2.3c-0.2-2.8-0.7-5.6-1.5-8.3c0,0-1.9,8.5,2,12.4
			c0,0-7.5,9.7-7.2,20.6c0,0-2.3,5-3.2-0.9c0,0-0.5-8-1.5-14.8c-0.8-5.5,0.7-11.1,4.2-15.5c1.6-2,2.8-4.1,2.2-5.1l-8.6,10.3
			c0,0-7.2-16.8-12.5-20.5c-5.3-3.7-5.9-4.4-5.9-4.4l8.5,10.2l-10.7-3.7l10.7,5c0,0,5,4.1,7.8,15c2.8,11,3.1,17.9,3.1,17.9
			S65,346,62.1,346.4l9.8,7.5c5.4,4.1,8.8,10.3,9.3,17.1l0,0c0,0-19.1-4.9-23.6-5.8l-8.7-8.9l6.6,8.5l-13.6-0.2l-7.8-5.5
			c0,0,6.2,5.1,5.5,5.4s-9.6,0.7-9.6,0.7s22.8-0.2,25.4,1.5c2.5,1.7,8.1,2.3,8.1,2.3l-16.2,2.4l19.3-1.4c0,0,14.5,2.7,15.4,7.2
			c0,0-2.9,7.7-5,10.8c-1.6,2.5-5,10.8-5.6,18c-0.7,7.2-1.5,18.4,0.9,25.2s3.4,10.6,2.2,12.8c-1.2,2.1-2.4,4.7,1.6,5.2
			c4.1,0.5,22-0.2,22-0.2S103.6,450,102.6,446z"/>
		<path class="st3" d="M93,442.3c-1.8-0.9-3.8-1.1-5.8-0.7c-2.9,0.5-5.9,0.6-8.9,0.2L93,442.3z"/>
		<path class="st3" d="M82.3,402.8c0,0-0.8,12.9,0.7,15.4L82.3,402.8z"/>
		<path class="st3" d="M79.2,418.3c0,0,1.1,12.1,1.8,14.5C81.8,435.1,79.2,418.3,79.2,418.3z"/>
		<path class="st3" d="M78.3,388.6c-0.7,0.2-3.9,6.7-3.3,8.6C75.5,399.1,78.3,388.6,78.3,388.6z"/>
		<path class="st3" d="M86.3,381.9c-0.3,0.2-1.8,3.9-1.5,5C85,388,86.3,381.9,86.3,381.9z"/>
		<path class="st3" d="M72.5,403.6c0.4,3.1,0.5,6.1,0.3,9.2c-0.2,2.4-0.2,4.6,0.1,7L72.5,403.6z"/>
		<path class="st3" d="M112.3,359.9c-0.4,0.6-0.7,1.2-0.7,1.9c0,0.7,0.1,1.4,0,2c-0.1,0.7-0.4,1.5-1.1,1.6L112.3,359.9z"/>
		<path class="st3" d="M100.1,337.7c-0.9,0.9-1.7,1.9-2.4,2.9c-0.2,0.3-0.4,0.7-0.7,1c-0.4,0.4-0.8,0.7-1.3,1.1
			c-1.1,0.8-1.8,2-2.1,3.3L100.1,337.7z"/>
		<path class="st3" d="M65.7,318.3c0.2,0.4,0.5,0.8,0.8,1.1s0.7,0.5,0.9,0.8c0.2,0.2,0.4,0.6,0.6,0.9c0.7,1.1,1.5,2.1,2.4,3.1
			L65.7,318.3z"/>
		<path class="st3" d="M81.6,337.4c-0.5,0.4-0.8,1.1-0.7,1.8s0.1,1.4-0.1,2c-0.1,0.3-0.3,0.5-0.4,0.8c-0.2,0.5-0.2,1.1-0.2,1.5
			c0,0.6,0,1.2,0.1,1.8c-0.1,0.7,0.2,1.5,0.6,2L81.6,337.4z"/>
		<path class="st12" d="M76.9,356.4c0.6,0.2,1.1,0.6,1.5,1.1c0.5,0.4,0.7,1,0.9,1.5c0,0.2,0,0.5,0.1,0.7c0.1,0.3,0.2,0.7,0.5,0.9
			c0.4,0.5,0.8,1,1.2,1.4L76.9,356.4z"/>
		<path class="st3" d="M81.2,373.6c-0.4-0.3-0.8-0.6-1.2-0.8c-0.4-0.2-0.8-0.4-1.2-0.6c-0.7-0.2-1.4-0.2-2-0.2
			c-0.7,0-1.4-0.3-1.9-0.7L81.2,373.6z"/>
		<path class="st3" d="M54.3,365.3c0.8,0,1.6,0.1,2.4,0.4c0.3,0.2,0.7,0.5,1.1,0.7c0.5,0.2,1,0.4,1.5,0.4L54.3,365.3z"/>
		<path class="st3" d="M65.4,368.6c-0.2-0.1-0.4-0.1-0.6,0.2c-0.2,0.2-0.2,0.4-0.4,0.6c-0.3,0.2-0.7,0.4-1.2,0.4L65.4,368.6z"/>
		<path class="st3" d="M70.1,351.6l0.8,0.4c0.8,0.4,1.5,0.9,2.3,1.4L70.1,351.6z"/>
		<path class="st3" d="M78.8,359.1c0.5-0.1,1,0.4,1.1,0.9c0,0.5,0.1,1.1,0.2,1.5c0.2,0.4,0.4,0.8,0.7,1.1L78.8,359.1z"/>
		<path class="st3" d="M87.5,360c0.5,1.4-0.5,2.8-0.2,4.3c0.1,0.4,0.3,0.8,0.4,1.3c0.2,1.1-0.2,2.4-0.9,3.3L87.5,360z"/>
	</g>
	<path class="st6" d="M169.5,595l-0.2,0.3c-0.2,0.4-0.8,1.2-1.6,2.3l-3-2.5l-0.5-0.4C166,594.3,167.8,594.4,169.5,595z"/>
	<path class="st6" d="M177.8,554.7c0,0-9.3,19.1-25.4,30l-7.6-6.4C153.7,568,168.1,553.2,177.8,554.7z"/>
	<path class="st6" d="M149.6,544.5c0,0,23.1-27.4,35.8-27.6c0,0-17.9,36.2-36.6,36.3L149.6,544.5z"/>
	<path class="st6" d="M156.9,515.6l21.5-56.3c0,0,2.4,50.4-24.2,66.7L156.9,515.6z"/>
	<path class="st6" d="M164.8,453.9c0,0,2.7-46.6,0.2-50.4c0,0,17.3,38.4,0.2,71L164.8,453.9z"/>
	<path class="st6" d="M136.1,570.9l-13.9-11.6c-1.1-7.2-1.3-14.5-0.7-21.6C129.6,541.1,133.9,557.8,136.1,570.9z"/>
	<path class="st6" d="M151.6,548c0,0-0.9-35.8-10.8-44c0,0-8.7,39.4,5.9,51.3L151.6,548z"/>
	<path class="st6" d="M155.8,513.9L145,454.6c0,0-11.6,49.1,11.5,70L155.8,513.9z"/>
	<path class="st6" d="M156.2,454.7c0,0-25-39.5-24.7-44c0,0,3.6,41.9,34.4,62.1L156.2,454.7z"/>
	<path class="st6" d="M158.7,442.8c0,0-24.1-56.3-34.5-60.7c0,0,32.9,15.8,36.3,59L158.7,442.8z"/>
	<path class="st10" d="M148.7,553.6l-1.5-0.4c17.7-63.1,21.5-103.1,10.8-112.9l1.1-1.2C170.5,449.4,166.9,489,148.7,553.6z"/>
	<path class="st10" d="M150,548.9c-0.2,0.8-0.5,1.6-0.7,2.4l0,0c-0.2,0.6-0.3,1.1-0.5,1.8c-0.1,0.2-0.1,0.3-0.2,0.5
		c-2,7.1-4.2,14.5-6.6,22.3l-1.4-1.2l0,0c2.1-6.8,4.1-13.3,5.9-19.6l0,0c0.4-1.3,0.7-2.7,1.1-4c0.1-0.3,0.2-0.6,0.2-0.9
		c0-0.1,0.1-0.2,0.1-0.3l1.1-0.6L150,548.9z"/>
	<path class="st6" d="M199.3,612.4c0,0-17.2-31.4-29.7-34.1c0,0,10.4,39,28.8,42.8L199.3,612.4z"/>
	<path class="st6" d="M197.9,582.7l-10.1-59.5c0,0-12.2,48.9,10.6,70.2L197.9,582.7z"/>
	<path class="st6" d="M202.3,520.6c0,0,6.5-46.3,9.8-49.5c0,0-24.5,34.2-14.1,69.6L202.3,520.6z"/>
	<path class="st6" d="M229.4,646.2c0,0,0,1.1-0.2,3.2l-2.3-1.9l-0.2-0.2c0.1,0,0.2-0.1,0.2-0.1C227.7,646.7,228.5,646.4,229.4,646.2
		z"/>
	<path class="st6" d="M228.3,611.2c0,0-1.4,15.5-8.7,30l-9-7.6C215.1,623,221.3,612.6,228.3,611.2z"/>
	<path class="st6" d="M196.7,615.4c0,0,8-34.9,19.2-41c0,0,0.7,40.4-15.8,49.1L196.7,615.4z"/>
	<path class="st6" d="M199.3,581.2l22.3-56.1c0,0,1.7,50.4-25,66.5L199.3,581.2z"/>
	<path class="st6" d="M210.5,523c0,0,32.3-33.8,32.8-38.3c0,0-11.7,40.4-45.9,54.1L210.5,523z"/>
	<path class="st6" d="M210.4,510.9c0,0,34.7-50.5,45.7-52.7c0,0-35.3,8.9-47.2,50.7L210.4,510.9z"/>
	<path class="st10" d="M198.4,621.6l1.6-0.2c-5-65.3-0.9-105.4,11.5-112.8l-0.8-1.4C197.6,515.1,193.3,554.6,198.4,621.6z"/>
	<path class="st10" d="M200.2,623.4c0,0.5,0.1,1.1,0.2,1.5l-1.8-1.5c-0.1-0.6-0.1-1.4-0.2-2c0-0.2,0-0.3,0-0.5l0,0
		c-0.1-0.6-0.1-1.2-0.2-1.9l0,0c-0.1-0.7-0.1-1.3-0.2-2c0-0.2,0-0.4,0-0.6l0,0l0.7,0.7l1,0.8c0,0.1,0,0.2,0,0.2c0,0.1,0,0.1,0,0.2
		c0.1,0.6,0.1,1.4,0.2,2c0,0.2,0,0.2,0,0.4C200.1,621.8,200.1,622.6,200.2,623.4z"/>
	<circle class="st13" cx="577.1" cy="582.3" r="18.6"/>
	<circle class="st6" cx="633.4" cy="660.4" r="8.9"/>
	<circle class="st14" cx="602" cy="627.9" r="13.7"/>
	<path class="st1" d="M748.2,660.2c-29.7-14.2-23.3-11.7-70,0c0-19.3,15.7-35,35-35C732.5,625.2,748.2,640.8,748.2,660.2z"/>
</g>
<g id="Layer_3">
	<path class="st14" d="M673.4,715.1c0,0,17.4-8.5,20.6-11.5s6.1,5.3,6.1,5.3l11.9,20.2l2.4,5.1l15-22.3l2-9.3l29.8,14.6l-8.2,47.8
		l-4.6,58.7c0,0,10.8,31.4,6.7,41c-6.7,15.7-28.4,13.7-28.4,13.7s-14.5-1.9-25.8,0.1c-11.3,2-27.6-5.4-29.5-15
		c-1.9-9.5,6.9-42.8,6.9-42.8l7.4-51.6L673.4,715.1"/>
</g>
<g id="kimono">
	<polygon class="st15" points="691.7,760.8 738.8,759.3 736.7,814.1 692.8,815.1 	"/>
	<path class="st16" d="M746.5,733.1l-2.8-0.2L714,835l41.6,3.1c0,0-21.5-12.1-21-14.3c0.6-2.2,4.2-40,5.2-42.7
		C740.8,778.3,746.5,733.1,746.5,733.1z"/>
	<path class="st16" d="M683,734.1l3.3-0.2l29.3,102.4l-35.4,2.5c0,0,15.3-11.7,14.7-13.8c-0.6-2.2-4.2-40-5.2-42.7
		C688.7,779.4,683,734.1,683,734.1z"/>
	<path class="st14" d="M737.3,702.7c0,0,18.2,4.6,28.4,18.5c4.5,19.1,4.5,30,4.5,30l-9.7,66.7l-5,20.2l-39.5-4.3l28.1-102.7
		L737.3,702.7z"/>
	<path class="st14" d="M692.9,703.9c0,0-18.2,4.6-28.4,18.5c-4.5,19.1-4.5,30-4.5,30l9.7,66.7l5,20.2l39.5-4.3L686,732.3
		L692.9,703.9z"/>
</g>
<g id="vai">
	<path class="st16" d="M744.5,707.7l21.2,13.4c0,0,0,0,0.3,1.2c-7.6,4.8-20.2,13.1-20.9,15.8c-1.1,3.8-9.1,21.2-9.1,21.2l-17.1-2.3
		l26.4-50.8"/>
	<path class="st16" d="M683.7,708.9l-20.2,17.6l-0.4,2c0,0,26.9,24.2,30.1,31.9c-0.4-3.5,10.9-14.4,10.9-14.4
		S686.4,714.8,683.7,708.9"/>
	<path class="st14" d="M740.3,704.2l30.2,13.9c0,0-25.4,15.4-26.5,19.3c-1.1,3.8-8,21.9-8,21.9l-23.2,0.9L740.3,704.2"/>
	<path class="st14" d="M684.2,707.5l-26.3,14.2c0,0,31.4,25.4,34.6,40.3c0.9-3.3,12.9-16,12.9-16S686.8,713.3,684.2,707.5"/>
</g>
<g id="co_ao">
	<polygon class="st4" points="726.3,700 714.1,731.8 721.2,737.9 733,714 	"/>
	<path class="st4" d="M701.1,701.1c0,0,12.3,26.4,15.5,28.5c1.5,1-4.6,9.8-4.6,9.8l-9.2-11.6l-5-12.6l-5.1-11.4l7.7-5L701.1,701.1z"
		/>
	<path class="st13" d="M698.6,698c0,0,11.1,30.2,21.9,36.9c-2.7,8-4.9,20.2-4.9,20.2s-31-37.7-27.1-49.9
		C691,704.5,698.6,698,698.6,698z"/>
	<path class="st13" d="M728,698c0,0-12.8,40.4-22.4,48.8c-9.5,8.4-11.1,14.1-11.1,14.1l18.2-0.6c0,0,32.2-46,26.3-57.4
		C737.1,702.5,728,698,728,698z"/>
</g>
<g id="Layer_5">
	<path class="st14" d="M641.6,877.1l-48.5-7.8c-10.5-2.5-4.6-9.5-4.6-9.5s62.4-61,83-110.7l25.1,32.4c1.4,1.7,1.5,4.3,0.4,6.7
		l-26.5,74.4c-0.2,0.5-0.5,0.9-0.7,1.4c-7.5,10.8-14.7,12.3-27.5,12.9C642,877.1,641.8,877.1,641.6,877.1z"/>
	<path class="st14" d="M785.5,877.1l48.5-7.8c10.5-2.5,4.6-9.5,4.6-9.5s-62.4-61-83-110.6l-25.1,32.4c-1.4,1.7-1.5,4.3-0.4,6.7
		l26.5,74.4c0.2,0.5,0.5,0.9,0.7,1.4c7.5,10.8,14.7,12.3,27.5,12.9C785.1,877.1,785.2,877.1,785.5,877.1z"/>
	<path class="st1" d="M734.3,660.2c0,0-7.6,84.3-3.9,94.5c2.8-0.9,3.9-1.1,3.9-1.1s3.4-78.4,3.8-92.4
		C735.4,660.6,734.3,660.2,734.3,660.2z"/>
	<path class="st1" d="M693.1,658.1c0,0,3,84.6-1.4,94.5c-2.7-1.1-3.8-1.4-3.8-1.4s-3.3-79.8-2.9-93.8
		C687.9,657.1,693.1,658.1,693.1,658.1z"/>
	<polygon class="st2" points="718,660.4 719.3,651.6 719.3,661 	"/>
</g>
</svg>
